M48
; DRILL file {KiCad 5.1.10-88a1d61d58~90~ubuntu21.04.1} date Fri Sep 24 17:48:25 2021
; FORMAT={-:-/ absolute / metric / decimal}
; #@! TF.CreationDate,2021-09-24T17:48:25+02:00
; #@! TF.GenerationSoftware,Kicad,Pcbnew,5.1.10-88a1d61d58~90~ubuntu21.04.1
; #@! TF.FileFunction,NonPlated,1,2,NPTH
FMAT,2
METRIC
T1C0.630
T2C1.300
T3C3.000
T4C3.048
T5C3.988
%
G90
G05
T1
X329.5Y9.475
X335.5Y9.475
T2
X326.25Y-4.2
X338.75Y-4.2
T3
X-2.54Y-5.08
X-2.54Y-33.58
X-0.165Y-109.58
X2.21Y-52.58
X3.81Y-2.54
X3.81Y-31.04
X4.585Y-71.58
X6.185Y-107.04
X8.56Y-50.04
X9.335Y-90.58
X10.935Y-69.04
X15.685Y-88.04
X16.46Y-33.58
X22.81Y-31.04
X23.585Y-109.58
X25.96Y-52.58
X29.935Y-107.04
X30.71Y-71.58
X32.31Y-50.04
X35.46Y-5.08
X35.46Y-33.58
X37.06Y-69.04
X40.21Y-90.58
X41.81Y-2.54
X41.81Y-31.04
X44.96Y-52.58
X46.56Y-88.04
X47.335Y-109.58
X49.71Y-71.58
X51.31Y-50.04
X53.685Y-107.04
X54.46Y-5.08
X54.46Y-33.58
X56.06Y-69.04
X59.21Y-90.58
X60.81Y-2.54
X60.81Y-31.04
X63.96Y-52.58
X65.56Y-88.04
X68.71Y-71.58
X70.31Y-50.04
X73.46Y-5.08
X73.46Y-33.58
X75.06Y-69.04
X78.21Y-90.58
X79.81Y-2.54
X79.81Y-31.04
X82.96Y-52.58
X84.56Y-88.04
X87.71Y-71.58
X89.31Y-50.04
X92.46Y-5.08
X92.46Y-33.58
X94.06Y-69.04
X97.21Y-90.58
X98.81Y-2.54
X98.81Y-31.04
X101.96Y-52.58
X103.56Y-88.04
X106.71Y-71.58
X108.31Y-50.04
X111.46Y-33.58
X113.06Y-69.04
X116.21Y-90.58
X117.81Y-31.04
X118.585Y-109.58
X120.96Y-5.08
X120.96Y-52.58
X122.56Y-88.04
X124.935Y-107.04
X125.71Y-71.58
X127.31Y-2.54
X127.31Y-50.04
X130.46Y-33.58
X132.06Y-69.04
X135.21Y-90.58
X136.81Y-31.04
X139.96Y-5.08
X139.96Y-52.58
X141.56Y-88.04
X144.71Y-71.58
X146.31Y-2.54
X146.31Y-50.04
X149.46Y-33.58
X151.06Y-69.04
X154.21Y-90.58
X155.81Y-31.04
X158.96Y-5.08
X158.96Y-52.58
X160.56Y-88.04
X163.71Y-71.58
X165.31Y-2.54
X165.31Y-50.04
X168.46Y-33.58
X170.06Y-69.04
X173.21Y-90.58
X174.81Y-31.04
X177.96Y-5.08
X177.96Y-52.58
X179.56Y-88.04
X182.71Y-71.58
X184.31Y-2.54
X184.31Y-50.04
X187.46Y-33.58
X189.06Y-69.04
X189.835Y-109.58
X192.21Y-90.58
X193.81Y-31.04
X196.185Y-107.04
X196.96Y-52.58
X198.56Y-88.04
X201.71Y-71.58
X203.31Y-50.04
X206.46Y-5.08
X206.46Y-33.58
X208.06Y-69.04
X211.21Y-90.58
X212.81Y-2.54
X212.81Y-31.04
X213.585Y-109.58
X215.96Y-52.58
X217.56Y-88.04
X219.935Y-107.04
X220.71Y-71.58
X222.31Y-50.04
X225.46Y-5.08
X225.46Y-33.58
X227.06Y-69.04
X231.81Y-2.54
X231.81Y-31.04
X234.96Y-52.58
X237.335Y-109.58
X241.31Y-50.04
X243.685Y-107.04
X244.46Y-5.08
X246.835Y-90.58
X250.81Y-2.54
X251.585Y-71.58
X253.185Y-88.04
X253.96Y-33.58
X257.935Y-69.04
X258.71Y-52.58
X260.31Y-31.04
X261.085Y-109.58
X263.46Y-5.08
X265.06Y-50.04
X267.435Y-107.04
X269.81Y-2.54
X291.96Y-33.58
X291.96Y-52.58
X291.96Y-109.58
X298.31Y-31.04
X298.31Y-50.04
X298.31Y-107.04
X310.96Y-33.58
X310.96Y-52.58
X310.96Y-90.58
X310.96Y-109.58
X317.31Y-31.04
X317.31Y-50.04
X317.31Y-88.04
X317.31Y-107.04
X329.96Y-33.58
X329.96Y-52.58
X329.96Y-109.58
X336.31Y-31.04
X336.31Y-50.04
X336.31Y-107.04
T4
X-0.063Y-92.485
X23.813Y-92.485
X71.125Y-111.485
X171.125Y-111.485
X237.437Y-92.485
X242.187Y-73.485
X244.562Y-35.485
X261.313Y-92.485
X266.063Y-73.485
X268.438Y-35.485
T5
X-0.063Y-77.245
X0.0Y0.0
X0.0Y-28.5
X2.375Y-104.5
X4.75Y-47.5
X7.125Y-66.5
X11.875Y-85.5
X19.0Y-28.5
X23.813Y-77.245
X26.125Y-104.5
X28.5Y-47.5
X33.25Y-66.5
X38.0Y0.0
X38.0Y-28.5
X42.75Y-85.5
X47.5Y-47.5
X49.875Y-104.5
X52.25Y-66.5
X57.0Y0.0
X57.0Y-28.5
X61.75Y-85.5
X66.5Y-47.5
X71.125Y-96.245
X71.25Y-66.5
X76.0Y0.0
X76.0Y-28.5
X80.75Y-85.5
X85.5Y-47.5
X90.25Y-66.5
X95.0Y0.0
X95.0Y-28.5
X99.75Y-85.5
X104.5Y-47.5
X109.25Y-66.5
X114.0Y-28.5
X118.75Y-85.5
X121.125Y-104.5
X123.5Y0.0
X123.5Y-47.5
X128.25Y-66.5
X133.0Y-28.5
X137.75Y-85.5
X142.5Y0.0
X142.5Y-47.5
X147.25Y-66.5
X152.0Y-28.5
X156.75Y-85.5
X161.5Y0.0
X161.5Y-47.5
X166.25Y-66.5
X171.0Y-28.5
X171.125Y-96.245
X175.75Y-85.5
X180.5Y0.0
X180.5Y-47.5
X185.25Y-66.5
X190.0Y-28.5
X192.375Y-104.5
X194.75Y-85.5
X199.5Y-47.5
X204.25Y-66.5
X209.0Y0.0
X209.0Y-28.5
X213.75Y-85.5
X216.125Y-104.5
X218.5Y-47.5
X223.25Y-66.5
X228.0Y0.0
X228.0Y-28.5
X237.437Y-77.245
X237.5Y-47.5
X239.875Y-104.5
X242.187Y-58.245
X244.562Y-20.245
X247.0Y0.0
X249.375Y-85.5
X254.125Y-66.5
X256.5Y-28.5
X261.25Y-47.5
X261.313Y-77.245
X263.625Y-104.5
X266.0Y0.0
X266.063Y-58.245
X268.438Y-20.245
X294.5Y-28.5
X294.5Y-47.5
X294.5Y-104.5
X313.5Y-28.5
X313.5Y-47.5
X313.5Y-85.5
X313.5Y-104.5
X332.5Y-28.5
X332.5Y-47.5
X332.5Y-104.5
T0
M30
