M48
; DRILL file {KiCad 5.1.10-88a1d61d58~90~ubuntu21.04.1} date Fri Sep 24 17:48:25 2021
; FORMAT={-:-/ absolute / metric / decimal}
; #@! TF.CreationDate,2021-09-24T17:48:25+02:00
; #@! TF.GenerationSoftware,Kicad,Pcbnew,5.1.10-88a1d61d58~90~ubuntu21.04.1
; #@! TF.FileFunction,Plated,1,2,PTH
FMAT,2
METRIC
T1C0.300
T2C0.650
T3C0.991
T4C2.311
T5C2.700
%
G90
G05
T1
X-6.25Y-7.0
X-6.25Y-9.0
X-6.25Y-31.75
X-6.25Y-35.5
X-5.5Y-81.75
X-5.25Y5.75
X-4.5Y-20.0
X-4.0Y-107.75
X-3.5Y-50.75
X-2.025Y-81.175
X-1.5Y-54.5
X-1.0Y-69.75
X-0.75Y-55.25
X0.75Y-73.5
X2.575Y-62.175
X5.5Y-88.5
X5.5Y-92.5
X11.0Y-22.5
X11.0Y-64.0
X12.75Y-31.75
X12.75Y-35.5
X19.0Y-81.25
X19.75Y-98.5
X19.75Y-107.5
X20.25Y-52.5
X22.25Y-54.5
X25.0Y-69.75
X26.75Y-60.5
X27.0Y-73.5
X29.25Y-9.5
X30.0Y-22.5
X31.75Y-7.0
X31.75Y-31.5
X31.75Y-35.5
X36.25Y-43.25
X36.5Y-88.25
X36.5Y-92.5
X41.25Y-50.5
X41.25Y-54.5
X42.0Y-98.5
X43.5Y-107.5
X45.5Y4.25
X46.0Y-60.5
X46.0Y-69.5
X46.0Y-73.5
X46.25Y-19.0
X47.75Y-10.0
X49.0Y-22.5
X50.5Y-81.25
X50.75Y-7.0
X50.75Y-31.5
X50.75Y-35.5
X55.25Y-43.25
X55.5Y-88.25
X55.5Y-92.5
X57.25Y-63.25
X60.25Y-50.5
X60.25Y-54.5
X60.75Y-96.75
X64.75Y4.25
X65.0Y-60.5
X65.0Y-69.25
X65.0Y-73.5
X66.25Y-10.5
X68.25Y-22.5
X68.5Y-81.75
X69.75Y-7.0
X69.75Y-31.25
X69.75Y-35.5
X74.0Y-43.25
X74.5Y-88.0
X78.0Y-96.75
X79.25Y-50.0
X79.25Y-54.5
X83.75Y4.25
X84.0Y-60.5
X84.0Y-69.5
X84.0Y-73.5
X84.75Y-11.0
X87.25Y-22.5
X88.25Y-81.25
X88.75Y-7.0
X88.75Y-31.25
X88.75Y-35.5
X93.5Y-88.25
X96.25Y-52.5
X98.25Y-54.5
X103.0Y-60.5
X103.0Y-69.25
X103.0Y-73.5
X106.25Y-22.5
X107.5Y-81.25
X107.75Y-19.0
X107.75Y-31.25
X107.75Y-35.5
X112.25Y-43.25
X112.5Y-88.25
X112.5Y-92.5
X112.75Y-11.5
X114.5Y-98.5
X114.75Y-107.25
X117.25Y-7.0
X117.25Y-50.25
X117.25Y-54.5
X120.25Y-60.5
X122.0Y-69.25
X122.0Y-73.5
X125.25Y-22.5
X126.5Y-81.25
X126.75Y-31.25
X126.75Y-35.5
X131.0Y4.25
X131.25Y-12.0
X131.25Y-43.25
X131.5Y-88.25
X133.0Y-63.75
X136.25Y-7.0
X136.25Y-50.25
X136.25Y-54.5
X139.25Y-60.5
X141.0Y-69.25
X141.0Y-73.5
X144.0Y-22.25
X145.5Y-81.25
X145.75Y-31.25
X145.75Y-35.5
X149.75Y-12.5
X150.25Y4.25
X150.25Y-43.25
X150.5Y-88.25
X155.25Y-7.0
X155.25Y-50.25
X155.25Y-54.5
X158.5Y-60.5
X160.0Y-69.0
X160.0Y-73.5
X163.0Y-22.5
X164.5Y-81.25
X164.75Y-31.25
X164.75Y-35.5
X168.25Y-13.0
X169.25Y4.25
X169.5Y-88.25
X169.5Y-92.5
X172.0Y-50.5
X174.25Y-7.0
X174.25Y-13.5
X174.25Y-54.5
X175.25Y5.75
X177.25Y-60.5
X179.0Y-69.25
X179.0Y-73.5
X182.25Y-22.5
X183.25Y-81.25
X183.75Y-31.5
X183.75Y-35.5
X183.75Y-109.5
X186.0Y-98.5
X188.25Y-43.25
X188.5Y-88.5
X188.5Y-92.5
X193.25Y-50.25
X193.25Y-54.5
X196.25Y-60.5
X198.0Y-69.0
X198.0Y-73.5
X201.25Y-22.5
X202.5Y-81.25
X202.75Y-7.0
X202.75Y-31.25
X202.75Y-35.5
X207.0Y-43.25
X207.5Y-88.25
X207.5Y-92.5
X209.5Y-98.5
X209.75Y-107.25
X212.25Y-50.0
X212.25Y-54.5
X214.75Y-14.0
X215.25Y-60.5
X216.75Y4.25
X216.75Y-19.0
X217.0Y-69.25
X217.0Y-73.5
X220.5Y-22.5
X221.5Y-81.25
X221.75Y-7.0
X221.75Y-31.25
X221.75Y-35.5
X226.25Y-43.25
X231.25Y-50.25
X231.25Y-54.5
X233.25Y-14.5
X233.25Y-98.5
X233.5Y-107.25
X240.75Y-7.0
X241.0Y-88.5
X243.0Y-92.5
X246.0Y-69.25
X247.0Y-57.0
X249.0Y-15.75
X250.0Y-22.5
X250.25Y-35.5
X251.75Y-15.0
X254.0Y-83.0
X254.5Y4.25
X255.0Y-50.25
X255.0Y-109.5
X257.0Y-7.75
X257.25Y-98.5
X258.17Y-81.17
X258.75Y-63.5
X259.75Y-7.0
X261.0Y-60.75
X264.5Y-91.75
X267.475Y-24.175
X268.25Y-43.25
X269.75Y8.0
X269.9Y-43.175
X270.0Y-56.0
X271.5Y-37.0
X273.5Y-56.0
X273.75Y4.25
X274.0Y-37.0
X277.25Y-91.5
X277.25Y-96.75
X286.0Y-72.5
X286.0Y-92.5
X286.0Y-113.0
X286.25Y-57.5
X286.475Y-43.175
X286.5Y-37.0
X286.75Y-92.0
X286.75Y-94.5
X287.5Y-91.5
X287.5Y-95.0
X287.65Y-56.0
X288.25Y-35.5
X288.25Y-50.25
X288.25Y-55.0
X288.25Y-91.0
X288.25Y-95.5
X288.25Y-98.5
X288.25Y-107.0
X290.0Y-19.75
X290.2Y-24.175
X291.5Y-62.0
X292.5Y0.0
X292.75Y-61.0
X293.75Y-62.0
X294.5Y-13.25
X294.75Y-62.0
X295.5Y-9.75
X295.5Y-58.75
X298.0Y-3.5
X298.0Y-9.25
X298.25Y-66.5
X298.25Y-69.25
X299.0Y-27.75
X299.5Y-58.75
X300.25Y-14.5
X301.0Y-66.5
X301.25Y-24.25
X301.79Y-59.71
X302.0Y-43.25
X302.5Y-9.0
X303.055Y-17.345
X303.5Y-73.75
X303.75Y-66.5
X303.75Y-69.25
X304.525Y-10.275
X305.0Y-75.5
X305.5Y-13.0
X305.5Y-16.0
X305.5Y-98.5
X307.0Y-14.5
X307.25Y-35.5
X307.25Y-50.25
X307.25Y-54.5
X307.25Y-92.5
X307.25Y-95.0
X307.25Y-107.25
X307.5Y-23.25
X307.5Y-25.75
X308.17Y-81.17
X308.5Y0.0
X308.5Y-1.75
X308.5Y-13.0
X308.5Y-16.0
X308.5Y-58.25
X308.5Y-62.0
X308.5Y-66.25
X308.5Y-72.0
X308.5Y-73.0
X309.0Y-7.0
X309.0Y-9.2
X309.75Y-67.25
X309.75Y-68.25
X310.15Y-1.75
X310.25Y-67.75
X310.25Y-68.75
X310.5Y-63.0
X310.5Y-64.0
X311.05Y-18.75
X311.5Y0.0
X311.75Y-14.5
X312.0Y-4.25
X312.0Y-15.25
X312.5Y-70.25
X312.5Y-73.75
X313.5Y-78.0
X314.0Y-18.25
X315.5Y0.0
X315.6Y-9.2
X316.0Y-14.25
X316.25Y-21.75
X317.0Y-17.75
X317.25Y-70.25
X317.25Y-74.0
X317.75Y-6.0
X319.0Y-6.0
X319.01Y-13.24
X320.15Y-9.9
X320.15Y-12.45
X320.25Y-6.0
X320.25Y-16.5
X320.5Y1.5
X320.5Y-24.25
X321.45Y-3.5
X321.5Y-6.0
X322.0Y-12.25
X322.25Y-68.75
X322.4Y-9.2
X322.9Y-4.02
X323.0Y-63.5
X323.5Y8.0
X323.5Y-37.75
X323.5Y-68.25
X323.75Y6.75
X323.75Y-1.5
X324.25Y-93.25
X324.25Y-96.75
X325.0Y5.0
X326.05Y-18.9
X326.25Y-1.5
X326.25Y-35.5
X326.25Y-50.0
X326.25Y-54.5
X326.25Y-96.75
X326.25Y-107.25
X326.4Y-9.2
X326.75Y-23.25
X326.75Y-25.75
X326.95Y-21.65
X327.25Y3.5
X327.5Y-63.5
X327.75Y-67.25
X328.0Y0.25
X328.0Y-0.75
X328.5Y-39.75
X329.0Y7.25
X329.0Y-12.25
X329.2Y-67.75
X329.85Y-65.85
X329.85Y-67.25
X330.0Y6.0
X330.25Y-3.0
X330.7Y-67.15
X331.0Y-12.25
X332.25Y-96.75
X332.5Y-16.65
X334.75Y-3.25
X335.25Y-40.5
X335.6Y7.25
X335.75Y-94.5
X336.0Y-3.25
X336.15Y-14.75
X336.25Y-95.0
X336.75Y-95.5
X337.5Y-24.25
X337.75Y-44.75
X337.9Y0.65
X338.25Y-19.0
X338.25Y-22.75
X338.35Y-67.15
X338.5Y-64.5
X339.75Y-0.75
X340.25Y-55.75
X340.75Y-56.25
T3
X291.0Y2.0
X293.5Y2.0
X295.5Y2.0
X298.0Y2.0
X310.0Y2.0
X312.5Y2.0
X314.5Y2.0
X317.0Y2.0
T4
X287.93Y4.71
X301.07Y4.71
X306.93Y4.71
X320.07Y4.71
T5
X14.25Y-102.125
X16.625Y-45.125
X19.0Y2.375
X95.0Y-45.125
X95.0Y-102.125
X109.25Y2.375
X166.25Y-102.125
X171.0Y-45.125
X194.75Y2.375
X237.5Y2.375
X249.375Y-45.125
X251.75Y-102.125
X280.25Y2.375
X323.0Y-45.125
X323.0Y-102.125
T2
X328.18Y13.225G85X328.18Y11.925
G05
X328.18Y9.25G85X328.18Y8.25
G05
X336.82Y13.225G85X336.82Y11.925
G05
X336.82Y9.25G85X336.82Y8.25
G05
T0
M30
