%FSLAX45Y45*%
G04 Gerber Fmt 4.5, Leading zero omitted, Abs format (unit mm)*
G04 Created by KiCad (PCBNEW 5.1.10-88a1d61d58~90~ubuntu21.04.1) date 2021-09-24 17:48:30*
%MOMM*%
%LPD*%
G01*
G04 APERTURE LIST*
%TA.AperFunction,Profile*%
%ADD10C,0.050000*%
%TD*%
%ADD11C,0.200000*%
%ADD12C,0.300000*%
G04 APERTURE END LIST*
D10*
X32720000Y950000D02*
X27550000Y950000D01*
X33730000Y1420000D02*
G75*
G02*
X33780000Y1370000I0J-50000D01*
G01*
X32720000Y1370000D02*
G75*
G02*
X32770000Y1420000I50000J0D01*
G01*
X32720000Y1370000D02*
X32720000Y950000D01*
X32770000Y1420000D02*
X33250000Y1420000D01*
X33730000Y1420000D02*
X33250000Y1420000D01*
X33780000Y950000D02*
X33962500Y950000D01*
X33780000Y1370000D02*
X33780000Y950000D01*
X27550000Y950000D02*
X-475000Y950000D01*
X-950000Y712500D02*
G75*
G02*
X-712500Y950000I237500J0D01*
G01*
X-712500Y-11400000D02*
G75*
G02*
X-950000Y-11162500I0J237500D01*
G01*
X34200000Y-11162500D02*
G75*
G02*
X33962500Y-11400000I-237500J0D01*
G01*
X33962500Y950000D02*
G75*
G02*
X34200000Y712500I0J-237500D01*
G01*
X34200000Y475000D02*
X34200000Y712500D01*
X33962500Y-11400000D02*
X33725000Y-11400000D01*
X34200000Y-11162500D02*
X34200000Y-10925000D01*
X-950000Y-10925000D02*
X-950000Y-11162500D01*
X-475000Y-11400000D02*
X-712500Y-11400000D01*
X-475000Y950000D02*
X-712500Y950000D01*
X-950000Y475000D02*
X-950000Y712500D01*
X-950000Y475000D02*
X-950000Y-10925000D01*
X34200000Y-10925000D02*
X34200000Y475000D01*
X-475000Y-11400000D02*
X33725000Y-11400000D01*
D11*
X-640000Y-685000D02*
X-610000Y-715000D01*
X-610000Y-685000D02*
X-640000Y-715000D01*
X-640000Y-885000D02*
X-610000Y-915000D01*
X-610000Y-885000D02*
X-640000Y-915000D01*
X-640000Y-3160000D02*
X-610000Y-3190000D01*
X-610000Y-3160000D02*
X-640000Y-3190000D01*
X-640000Y-3535000D02*
X-610000Y-3565000D01*
X-610000Y-3535000D02*
X-640000Y-3565000D01*
X-565000Y-8160000D02*
X-535000Y-8190000D01*
X-535000Y-8160000D02*
X-565000Y-8190000D01*
X-540000Y590000D02*
X-510000Y560000D01*
X-510000Y590000D02*
X-540000Y560000D01*
X-465000Y-1985000D02*
X-435000Y-2015000D01*
X-435000Y-1985000D02*
X-465000Y-2015000D01*
X-415000Y-10760000D02*
X-385000Y-10790000D01*
X-385000Y-10760000D02*
X-415000Y-10790000D01*
X-365000Y-5060000D02*
X-335000Y-5090000D01*
X-335000Y-5060000D02*
X-365000Y-5090000D01*
X-217500Y-8102500D02*
X-187500Y-8132500D01*
X-187500Y-8102500D02*
X-217500Y-8132500D01*
X-165000Y-5435000D02*
X-135000Y-5465000D01*
X-135000Y-5435000D02*
X-165000Y-5465000D01*
X-115000Y-6960000D02*
X-85000Y-6990000D01*
X-85000Y-6960000D02*
X-115000Y-6990000D01*
X-90000Y-5510000D02*
X-60000Y-5540000D01*
X-60000Y-5510000D02*
X-90000Y-5540000D01*
X60000Y-7335000D02*
X90000Y-7365000D01*
X90000Y-7335000D02*
X60000Y-7365000D01*
X242500Y-6202500D02*
X272500Y-6232500D01*
X272500Y-6202500D02*
X242500Y-6232500D01*
X535000Y-8835000D02*
X565000Y-8865000D01*
X565000Y-8835000D02*
X535000Y-8865000D01*
X535000Y-9235000D02*
X565000Y-9265000D01*
X565000Y-9235000D02*
X535000Y-9265000D01*
X1085000Y-2235000D02*
X1115000Y-2265000D01*
X1115000Y-2235000D02*
X1085000Y-2265000D01*
X1085000Y-6385000D02*
X1115000Y-6415000D01*
X1115000Y-6385000D02*
X1085000Y-6415000D01*
X1260000Y-3160000D02*
X1290000Y-3190000D01*
X1290000Y-3160000D02*
X1260000Y-3190000D01*
X1260000Y-3535000D02*
X1290000Y-3565000D01*
X1290000Y-3535000D02*
X1260000Y-3565000D01*
X1885000Y-8110000D02*
X1915000Y-8140000D01*
X1915000Y-8110000D02*
X1885000Y-8140000D01*
X1960000Y-9835000D02*
X1990000Y-9865000D01*
X1990000Y-9835000D02*
X1960000Y-9865000D01*
X1960000Y-10735000D02*
X1990000Y-10765000D01*
X1990000Y-10735000D02*
X1960000Y-10765000D01*
X2010000Y-5235000D02*
X2040000Y-5265000D01*
X2040000Y-5235000D02*
X2010000Y-5265000D01*
X2210000Y-5435000D02*
X2240000Y-5465000D01*
X2240000Y-5435000D02*
X2210000Y-5465000D01*
X2485000Y-6960000D02*
X2515000Y-6990000D01*
X2515000Y-6960000D02*
X2485000Y-6990000D01*
X2660000Y-6035000D02*
X2690000Y-6065000D01*
X2690000Y-6035000D02*
X2660000Y-6065000D01*
X2685000Y-7335000D02*
X2715000Y-7365000D01*
X2715000Y-7335000D02*
X2685000Y-7365000D01*
X2910000Y-935000D02*
X2940000Y-965000D01*
X2940000Y-935000D02*
X2910000Y-965000D01*
X2985000Y-2235000D02*
X3015000Y-2265000D01*
X3015000Y-2235000D02*
X2985000Y-2265000D01*
X3160000Y-685000D02*
X3190000Y-715000D01*
X3190000Y-685000D02*
X3160000Y-715000D01*
X3160000Y-3135000D02*
X3190000Y-3165000D01*
X3190000Y-3135000D02*
X3160000Y-3165000D01*
X3160000Y-3535000D02*
X3190000Y-3565000D01*
X3190000Y-3535000D02*
X3160000Y-3565000D01*
X3610000Y-4310000D02*
X3640000Y-4340000D01*
X3640000Y-4310000D02*
X3610000Y-4340000D01*
X3635000Y-8810000D02*
X3665000Y-8840000D01*
X3665000Y-8810000D02*
X3635000Y-8840000D01*
X3635000Y-9235000D02*
X3665000Y-9265000D01*
X3665000Y-9235000D02*
X3635000Y-9265000D01*
X4110000Y-5035000D02*
X4140000Y-5065000D01*
X4140000Y-5035000D02*
X4110000Y-5065000D01*
X4110000Y-5435000D02*
X4140000Y-5465000D01*
X4140000Y-5435000D02*
X4110000Y-5465000D01*
X4185000Y-9835000D02*
X4215000Y-9865000D01*
X4215000Y-9835000D02*
X4185000Y-9865000D01*
X4335000Y-10735000D02*
X4365000Y-10765000D01*
X4365000Y-10735000D02*
X4335000Y-10765000D01*
X4535000Y440000D02*
X4565000Y410000D01*
X4565000Y440000D02*
X4535000Y410000D01*
X4585000Y-6035000D02*
X4615000Y-6065000D01*
X4615000Y-6035000D02*
X4585000Y-6065000D01*
X4585000Y-6935000D02*
X4615000Y-6965000D01*
X4615000Y-6935000D02*
X4585000Y-6965000D01*
X4585000Y-7335000D02*
X4615000Y-7365000D01*
X4615000Y-7335000D02*
X4585000Y-7365000D01*
X4610000Y-1885000D02*
X4640000Y-1915000D01*
X4640000Y-1885000D02*
X4610000Y-1915000D01*
X4760000Y-985000D02*
X4790000Y-1015000D01*
X4790000Y-985000D02*
X4760000Y-1015000D01*
X4885000Y-2235000D02*
X4915000Y-2265000D01*
X4915000Y-2235000D02*
X4885000Y-2265000D01*
X5035000Y-8110000D02*
X5065000Y-8140000D01*
X5065000Y-8110000D02*
X5035000Y-8140000D01*
X5060000Y-685000D02*
X5090000Y-715000D01*
X5090000Y-685000D02*
X5060000Y-715000D01*
X5060000Y-3135000D02*
X5090000Y-3165000D01*
X5090000Y-3135000D02*
X5060000Y-3165000D01*
X5060000Y-3535000D02*
X5090000Y-3565000D01*
X5090000Y-3535000D02*
X5060000Y-3565000D01*
X5510000Y-4310000D02*
X5540000Y-4340000D01*
X5540000Y-4310000D02*
X5510000Y-4340000D01*
X5535000Y-8810000D02*
X5565000Y-8840000D01*
X5565000Y-8810000D02*
X5535000Y-8840000D01*
X5535000Y-9235000D02*
X5565000Y-9265000D01*
X5565000Y-9235000D02*
X5535000Y-9265000D01*
X5710000Y-6310000D02*
X5740000Y-6340000D01*
X5740000Y-6310000D02*
X5710000Y-6340000D01*
X6010000Y-5035000D02*
X6040000Y-5065000D01*
X6040000Y-5035000D02*
X6010000Y-5065000D01*
X6010000Y-5435000D02*
X6040000Y-5465000D01*
X6040000Y-5435000D02*
X6010000Y-5465000D01*
X6060000Y-9660000D02*
X6090000Y-9690000D01*
X6090000Y-9660000D02*
X6060000Y-9690000D01*
X6460000Y440000D02*
X6490000Y410000D01*
X6490000Y440000D02*
X6460000Y410000D01*
X6485000Y-6035000D02*
X6515000Y-6065000D01*
X6515000Y-6035000D02*
X6485000Y-6065000D01*
X6485000Y-6910000D02*
X6515000Y-6940000D01*
X6515000Y-6910000D02*
X6485000Y-6940000D01*
X6485000Y-7335000D02*
X6515000Y-7365000D01*
X6515000Y-7335000D02*
X6485000Y-7365000D01*
X6610000Y-1035000D02*
X6640000Y-1065000D01*
X6640000Y-1035000D02*
X6610000Y-1065000D01*
X6810000Y-2235000D02*
X6840000Y-2265000D01*
X6840000Y-2235000D02*
X6810000Y-2265000D01*
X6835000Y-8160000D02*
X6865000Y-8190000D01*
X6865000Y-8160000D02*
X6835000Y-8190000D01*
X6960000Y-685000D02*
X6990000Y-715000D01*
X6990000Y-685000D02*
X6960000Y-715000D01*
X6960000Y-3110000D02*
X6990000Y-3140000D01*
X6990000Y-3110000D02*
X6960000Y-3140000D01*
X6960000Y-3535000D02*
X6990000Y-3565000D01*
X6990000Y-3535000D02*
X6960000Y-3565000D01*
X7385000Y-4310000D02*
X7415000Y-4340000D01*
X7415000Y-4310000D02*
X7385000Y-4340000D01*
X7435000Y-8785000D02*
X7465000Y-8815000D01*
X7465000Y-8785000D02*
X7435000Y-8815000D01*
X7785000Y-9660000D02*
X7815000Y-9690000D01*
X7815000Y-9660000D02*
X7785000Y-9690000D01*
X7910000Y-4985000D02*
X7940000Y-5015000D01*
X7940000Y-4985000D02*
X7910000Y-5015000D01*
X7910000Y-5435000D02*
X7940000Y-5465000D01*
X7940000Y-5435000D02*
X7910000Y-5465000D01*
X8360000Y440000D02*
X8390000Y410000D01*
X8390000Y440000D02*
X8360000Y410000D01*
X8385000Y-6035000D02*
X8415000Y-6065000D01*
X8415000Y-6035000D02*
X8385000Y-6065000D01*
X8385000Y-6935000D02*
X8415000Y-6965000D01*
X8415000Y-6935000D02*
X8385000Y-6965000D01*
X8385000Y-7335000D02*
X8415000Y-7365000D01*
X8415000Y-7335000D02*
X8385000Y-7365000D01*
X8460000Y-1085000D02*
X8490000Y-1115000D01*
X8490000Y-1085000D02*
X8460000Y-1115000D01*
X8710000Y-2235000D02*
X8740000Y-2265000D01*
X8740000Y-2235000D02*
X8710000Y-2265000D01*
X8810000Y-8110000D02*
X8840000Y-8140000D01*
X8840000Y-8110000D02*
X8810000Y-8140000D01*
X8860000Y-685000D02*
X8890000Y-715000D01*
X8890000Y-685000D02*
X8860000Y-715000D01*
X8860000Y-3110000D02*
X8890000Y-3140000D01*
X8890000Y-3110000D02*
X8860000Y-3140000D01*
X8860000Y-3535000D02*
X8890000Y-3565000D01*
X8890000Y-3535000D02*
X8860000Y-3565000D01*
X9335000Y-8810000D02*
X9365000Y-8840000D01*
X9365000Y-8810000D02*
X9335000Y-8840000D01*
X9610000Y-5235000D02*
X9640000Y-5265000D01*
X9640000Y-5235000D02*
X9610000Y-5265000D01*
X9810000Y-5435000D02*
X9840000Y-5465000D01*
X9840000Y-5435000D02*
X9810000Y-5465000D01*
X10285000Y-6035000D02*
X10315000Y-6065000D01*
X10315000Y-6035000D02*
X10285000Y-6065000D01*
X10285000Y-6910000D02*
X10315000Y-6940000D01*
X10315000Y-6910000D02*
X10285000Y-6940000D01*
X10285000Y-7335000D02*
X10315000Y-7365000D01*
X10315000Y-7335000D02*
X10285000Y-7365000D01*
X10610000Y-2235000D02*
X10640000Y-2265000D01*
X10640000Y-2235000D02*
X10610000Y-2265000D01*
X10735000Y-8110000D02*
X10765000Y-8140000D01*
X10765000Y-8110000D02*
X10735000Y-8140000D01*
X10760000Y-1885000D02*
X10790000Y-1915000D01*
X10790000Y-1885000D02*
X10760000Y-1915000D01*
X10760000Y-3110000D02*
X10790000Y-3140000D01*
X10790000Y-3110000D02*
X10760000Y-3140000D01*
X10760000Y-3535000D02*
X10790000Y-3565000D01*
X10790000Y-3535000D02*
X10760000Y-3565000D01*
X11210000Y-4310000D02*
X11240000Y-4340000D01*
X11240000Y-4310000D02*
X11210000Y-4340000D01*
X11235000Y-8810000D02*
X11265000Y-8840000D01*
X11265000Y-8810000D02*
X11235000Y-8840000D01*
X11235000Y-9235000D02*
X11265000Y-9265000D01*
X11265000Y-9235000D02*
X11235000Y-9265000D01*
X11260000Y-1135000D02*
X11290000Y-1165000D01*
X11290000Y-1135000D02*
X11260000Y-1165000D01*
X11435000Y-9835000D02*
X11465000Y-9865000D01*
X11465000Y-9835000D02*
X11435000Y-9865000D01*
X11460000Y-10710000D02*
X11490000Y-10740000D01*
X11490000Y-10710000D02*
X11460000Y-10740000D01*
X11710000Y-685000D02*
X11740000Y-715000D01*
X11740000Y-685000D02*
X11710000Y-715000D01*
X11710000Y-5010000D02*
X11740000Y-5040000D01*
X11740000Y-5010000D02*
X11710000Y-5040000D01*
X11710000Y-5435000D02*
X11740000Y-5465000D01*
X11740000Y-5435000D02*
X11710000Y-5465000D01*
X12010000Y-6035000D02*
X12040000Y-6065000D01*
X12040000Y-6035000D02*
X12010000Y-6065000D01*
X12185000Y-6910000D02*
X12215000Y-6940000D01*
X12215000Y-6910000D02*
X12185000Y-6940000D01*
X12185000Y-7335000D02*
X12215000Y-7365000D01*
X12215000Y-7335000D02*
X12185000Y-7365000D01*
X12510000Y-2235000D02*
X12540000Y-2265000D01*
X12540000Y-2235000D02*
X12510000Y-2265000D01*
X12635000Y-8110000D02*
X12665000Y-8140000D01*
X12665000Y-8110000D02*
X12635000Y-8140000D01*
X12660000Y-3110000D02*
X12690000Y-3140000D01*
X12690000Y-3110000D02*
X12660000Y-3140000D01*
X12660000Y-3535000D02*
X12690000Y-3565000D01*
X12690000Y-3535000D02*
X12660000Y-3565000D01*
X13085000Y440000D02*
X13115000Y410000D01*
X13115000Y440000D02*
X13085000Y410000D01*
X13110000Y-1185000D02*
X13140000Y-1215000D01*
X13140000Y-1185000D02*
X13110000Y-1215000D01*
X13110000Y-4310000D02*
X13140000Y-4340000D01*
X13140000Y-4310000D02*
X13110000Y-4340000D01*
X13135000Y-8810000D02*
X13165000Y-8840000D01*
X13165000Y-8810000D02*
X13135000Y-8840000D01*
X13285000Y-6360000D02*
X13315000Y-6390000D01*
X13315000Y-6360000D02*
X13285000Y-6390000D01*
X13610000Y-685000D02*
X13640000Y-715000D01*
X13640000Y-685000D02*
X13610000Y-715000D01*
X13610000Y-5010000D02*
X13640000Y-5040000D01*
X13640000Y-5010000D02*
X13610000Y-5040000D01*
X13610000Y-5435000D02*
X13640000Y-5465000D01*
X13640000Y-5435000D02*
X13610000Y-5465000D01*
X13910000Y-6035000D02*
X13940000Y-6065000D01*
X13940000Y-6035000D02*
X13910000Y-6065000D01*
X14085000Y-6910000D02*
X14115000Y-6940000D01*
X14115000Y-6910000D02*
X14085000Y-6940000D01*
X14085000Y-7335000D02*
X14115000Y-7365000D01*
X14115000Y-7335000D02*
X14085000Y-7365000D01*
X14385000Y-2210000D02*
X14415000Y-2240000D01*
X14415000Y-2210000D02*
X14385000Y-2240000D01*
X14535000Y-8110000D02*
X14565000Y-8140000D01*
X14565000Y-8110000D02*
X14535000Y-8140000D01*
X14560000Y-3110000D02*
X14590000Y-3140000D01*
X14590000Y-3110000D02*
X14560000Y-3140000D01*
X14560000Y-3535000D02*
X14590000Y-3565000D01*
X14590000Y-3535000D02*
X14560000Y-3565000D01*
X14960000Y-1235000D02*
X14990000Y-1265000D01*
X14990000Y-1235000D02*
X14960000Y-1265000D01*
X15010000Y440000D02*
X15040000Y410000D01*
X15040000Y440000D02*
X15010000Y410000D01*
X15010000Y-4310000D02*
X15040000Y-4340000D01*
X15040000Y-4310000D02*
X15010000Y-4340000D01*
X15035000Y-8810000D02*
X15065000Y-8840000D01*
X15065000Y-8810000D02*
X15035000Y-8840000D01*
X15510000Y-685000D02*
X15540000Y-715000D01*
X15540000Y-685000D02*
X15510000Y-715000D01*
X15510000Y-5010000D02*
X15540000Y-5040000D01*
X15540000Y-5010000D02*
X15510000Y-5040000D01*
X15510000Y-5435000D02*
X15540000Y-5465000D01*
X15540000Y-5435000D02*
X15510000Y-5465000D01*
X15835000Y-6035000D02*
X15865000Y-6065000D01*
X15865000Y-6035000D02*
X15835000Y-6065000D01*
X15985000Y-6885000D02*
X16015000Y-6915000D01*
X16015000Y-6885000D02*
X15985000Y-6915000D01*
X15985000Y-7335000D02*
X16015000Y-7365000D01*
X16015000Y-7335000D02*
X15985000Y-7365000D01*
X16285000Y-2235000D02*
X16315000Y-2265000D01*
X16315000Y-2235000D02*
X16285000Y-2265000D01*
X16435000Y-8110000D02*
X16465000Y-8140000D01*
X16465000Y-8110000D02*
X16435000Y-8140000D01*
X16460000Y-3110000D02*
X16490000Y-3140000D01*
X16490000Y-3110000D02*
X16460000Y-3140000D01*
X16460000Y-3535000D02*
X16490000Y-3565000D01*
X16490000Y-3535000D02*
X16460000Y-3565000D01*
X16810000Y-1285000D02*
X16840000Y-1315000D01*
X16840000Y-1285000D02*
X16810000Y-1315000D01*
X16910000Y440000D02*
X16940000Y410000D01*
X16940000Y440000D02*
X16910000Y410000D01*
X16935000Y-8810000D02*
X16965000Y-8840000D01*
X16965000Y-8810000D02*
X16935000Y-8840000D01*
X16935000Y-9235000D02*
X16965000Y-9265000D01*
X16965000Y-9235000D02*
X16935000Y-9265000D01*
X17185000Y-5035000D02*
X17215000Y-5065000D01*
X17215000Y-5035000D02*
X17185000Y-5065000D01*
X17410000Y-685000D02*
X17440000Y-715000D01*
X17440000Y-685000D02*
X17410000Y-715000D01*
X17410000Y-1335000D02*
X17440000Y-1365000D01*
X17440000Y-1335000D02*
X17410000Y-1365000D01*
X17410000Y-5435000D02*
X17440000Y-5465000D01*
X17440000Y-5435000D02*
X17410000Y-5465000D01*
X17510000Y590000D02*
X17540000Y560000D01*
X17540000Y590000D02*
X17510000Y560000D01*
X17710000Y-6035000D02*
X17740000Y-6065000D01*
X17740000Y-6035000D02*
X17710000Y-6065000D01*
X17885000Y-6910000D02*
X17915000Y-6940000D01*
X17915000Y-6910000D02*
X17885000Y-6940000D01*
X17885000Y-7335000D02*
X17915000Y-7365000D01*
X17915000Y-7335000D02*
X17885000Y-7365000D01*
X18210000Y-2235000D02*
X18240000Y-2265000D01*
X18240000Y-2235000D02*
X18210000Y-2265000D01*
X18310000Y-8110000D02*
X18340000Y-8140000D01*
X18340000Y-8110000D02*
X18310000Y-8140000D01*
X18360000Y-3135000D02*
X18390000Y-3165000D01*
X18390000Y-3135000D02*
X18360000Y-3165000D01*
X18360000Y-3535000D02*
X18390000Y-3565000D01*
X18390000Y-3535000D02*
X18360000Y-3565000D01*
X18360000Y-10935000D02*
X18390000Y-10965000D01*
X18390000Y-10935000D02*
X18360000Y-10965000D01*
X18585000Y-9835000D02*
X18615000Y-9865000D01*
X18615000Y-9835000D02*
X18585000Y-9865000D01*
X18810000Y-4310000D02*
X18840000Y-4340000D01*
X18840000Y-4310000D02*
X18810000Y-4340000D01*
X18835000Y-8835000D02*
X18865000Y-8865000D01*
X18865000Y-8835000D02*
X18835000Y-8865000D01*
X18835000Y-9235000D02*
X18865000Y-9265000D01*
X18865000Y-9235000D02*
X18835000Y-9265000D01*
X19310000Y-5010000D02*
X19340000Y-5040000D01*
X19340000Y-5010000D02*
X19310000Y-5040000D01*
X19310000Y-5435000D02*
X19340000Y-5465000D01*
X19340000Y-5435000D02*
X19310000Y-5465000D01*
X19610000Y-6035000D02*
X19640000Y-6065000D01*
X19640000Y-6035000D02*
X19610000Y-6065000D01*
X19785000Y-6885000D02*
X19815000Y-6915000D01*
X19815000Y-6885000D02*
X19785000Y-6915000D01*
X19785000Y-7335000D02*
X19815000Y-7365000D01*
X19815000Y-7335000D02*
X19785000Y-7365000D01*
X20110000Y-2235000D02*
X20140000Y-2265000D01*
X20140000Y-2235000D02*
X20110000Y-2265000D01*
X20235000Y-8110000D02*
X20265000Y-8140000D01*
X20265000Y-8110000D02*
X20235000Y-8140000D01*
X20260000Y-685000D02*
X20290000Y-715000D01*
X20290000Y-685000D02*
X20260000Y-715000D01*
X20260000Y-3110000D02*
X20290000Y-3140000D01*
X20290000Y-3110000D02*
X20260000Y-3140000D01*
X20260000Y-3535000D02*
X20290000Y-3565000D01*
X20290000Y-3535000D02*
X20260000Y-3565000D01*
X20685000Y-4310000D02*
X20715000Y-4340000D01*
X20715000Y-4310000D02*
X20685000Y-4340000D01*
X20735000Y-8810000D02*
X20765000Y-8840000D01*
X20765000Y-8810000D02*
X20735000Y-8840000D01*
X20735000Y-9235000D02*
X20765000Y-9265000D01*
X20765000Y-9235000D02*
X20735000Y-9265000D01*
X20935000Y-9835000D02*
X20965000Y-9865000D01*
X20965000Y-9835000D02*
X20935000Y-9865000D01*
X20960000Y-10710000D02*
X20990000Y-10740000D01*
X20990000Y-10710000D02*
X20960000Y-10740000D01*
X21210000Y-4985000D02*
X21240000Y-5015000D01*
X21240000Y-4985000D02*
X21210000Y-5015000D01*
X21210000Y-5435000D02*
X21240000Y-5465000D01*
X21240000Y-5435000D02*
X21210000Y-5465000D01*
X21460000Y-1385000D02*
X21490000Y-1415000D01*
X21490000Y-1385000D02*
X21460000Y-1415000D01*
X21510000Y-6035000D02*
X21540000Y-6065000D01*
X21540000Y-6035000D02*
X21510000Y-6065000D01*
X21660000Y440000D02*
X21690000Y410000D01*
X21690000Y440000D02*
X21660000Y410000D01*
X21660000Y-1885000D02*
X21690000Y-1915000D01*
X21690000Y-1885000D02*
X21660000Y-1915000D01*
X21685000Y-6910000D02*
X21715000Y-6940000D01*
X21715000Y-6910000D02*
X21685000Y-6940000D01*
X21685000Y-7335000D02*
X21715000Y-7365000D01*
X21715000Y-7335000D02*
X21685000Y-7365000D01*
X22035000Y-2235000D02*
X22065000Y-2265000D01*
X22065000Y-2235000D02*
X22035000Y-2265000D01*
X22135000Y-8110000D02*
X22165000Y-8140000D01*
X22165000Y-8110000D02*
X22135000Y-8140000D01*
X22160000Y-685000D02*
X22190000Y-715000D01*
X22190000Y-685000D02*
X22160000Y-715000D01*
X22160000Y-3110000D02*
X22190000Y-3140000D01*
X22190000Y-3110000D02*
X22160000Y-3140000D01*
X22160000Y-3535000D02*
X22190000Y-3565000D01*
X22190000Y-3535000D02*
X22160000Y-3565000D01*
X22610000Y-4310000D02*
X22640000Y-4340000D01*
X22640000Y-4310000D02*
X22610000Y-4340000D01*
X23110000Y-5010000D02*
X23140000Y-5040000D01*
X23140000Y-5010000D02*
X23110000Y-5040000D01*
X23110000Y-5435000D02*
X23140000Y-5465000D01*
X23140000Y-5435000D02*
X23110000Y-5465000D01*
X23310000Y-1435000D02*
X23340000Y-1465000D01*
X23340000Y-1435000D02*
X23310000Y-1465000D01*
X23310000Y-9835000D02*
X23340000Y-9865000D01*
X23340000Y-9835000D02*
X23310000Y-9865000D01*
X23335000Y-10710000D02*
X23365000Y-10740000D01*
X23365000Y-10710000D02*
X23335000Y-10740000D01*
X24060000Y-685000D02*
X24090000Y-715000D01*
X24090000Y-685000D02*
X24060000Y-715000D01*
X24085000Y-8835000D02*
X24115000Y-8865000D01*
X24115000Y-8835000D02*
X24085000Y-8865000D01*
X24285000Y-9235000D02*
X24315000Y-9265000D01*
X24315000Y-9235000D02*
X24285000Y-9265000D01*
X24585000Y-6910000D02*
X24615000Y-6940000D01*
X24615000Y-6910000D02*
X24585000Y-6940000D01*
X24685000Y-5685000D02*
X24715000Y-5715000D01*
X24715000Y-5685000D02*
X24685000Y-5715000D01*
X24885000Y-1560000D02*
X24915000Y-1590000D01*
X24915000Y-1560000D02*
X24885000Y-1590000D01*
X24985000Y-2235000D02*
X25015000Y-2265000D01*
X25015000Y-2235000D02*
X24985000Y-2265000D01*
X25010000Y-3535000D02*
X25040000Y-3565000D01*
X25040000Y-3535000D02*
X25010000Y-3565000D01*
X25160000Y-1485000D02*
X25190000Y-1515000D01*
X25190000Y-1485000D02*
X25160000Y-1515000D01*
X25385000Y-8285000D02*
X25415000Y-8315000D01*
X25415000Y-8285000D02*
X25385000Y-8315000D01*
X25435000Y440000D02*
X25465000Y410000D01*
X25465000Y440000D02*
X25435000Y410000D01*
X25485000Y-5010000D02*
X25515000Y-5040000D01*
X25515000Y-5010000D02*
X25485000Y-5040000D01*
X25485000Y-10935000D02*
X25515000Y-10965000D01*
X25515000Y-10935000D02*
X25485000Y-10965000D01*
X25685000Y-760000D02*
X25715000Y-790000D01*
X25715000Y-760000D02*
X25685000Y-790000D01*
X25710000Y-9835000D02*
X25740000Y-9865000D01*
X25740000Y-9835000D02*
X25710000Y-9865000D01*
X25802000Y-8102000D02*
X25832000Y-8132000D01*
X25832000Y-8102000D02*
X25802000Y-8132000D01*
X25860000Y-6335000D02*
X25890000Y-6365000D01*
X25890000Y-6335000D02*
X25860000Y-6365000D01*
X25960000Y-685000D02*
X25990000Y-715000D01*
X25990000Y-685000D02*
X25960000Y-715000D01*
X26085000Y-6060000D02*
X26115000Y-6090000D01*
X26115000Y-6060000D02*
X26085000Y-6090000D01*
X26435000Y-9160000D02*
X26465000Y-9190000D01*
X26465000Y-9160000D02*
X26435000Y-9190000D01*
X26732500Y-2402500D02*
X26762500Y-2432500D01*
X26762500Y-2402500D02*
X26732500Y-2432500D01*
X26810000Y-4310000D02*
X26840000Y-4340000D01*
X26840000Y-4310000D02*
X26810000Y-4340000D01*
X26960000Y815000D02*
X26990000Y785000D01*
X26990000Y815000D02*
X26960000Y785000D01*
X26975000Y-4302500D02*
X27005000Y-4332500D01*
X27005000Y-4302500D02*
X26975000Y-4332500D01*
X26985000Y-5585000D02*
X27015000Y-5615000D01*
X27015000Y-5585000D02*
X26985000Y-5615000D01*
X27135000Y-3685000D02*
X27165000Y-3715000D01*
X27165000Y-3685000D02*
X27135000Y-3715000D01*
X27335000Y-5585000D02*
X27365000Y-5615000D01*
X27365000Y-5585000D02*
X27335000Y-5615000D01*
X27360000Y440000D02*
X27390000Y410000D01*
X27390000Y440000D02*
X27360000Y410000D01*
X27385000Y-3685000D02*
X27415000Y-3715000D01*
X27415000Y-3685000D02*
X27385000Y-3715000D01*
X27710000Y-9135000D02*
X27740000Y-9165000D01*
X27740000Y-9135000D02*
X27710000Y-9165000D01*
X27710000Y-9660000D02*
X27740000Y-9690000D01*
X27740000Y-9660000D02*
X27710000Y-9690000D01*
X28585000Y-7235000D02*
X28615000Y-7265000D01*
X28615000Y-7235000D02*
X28585000Y-7265000D01*
X28585000Y-9235000D02*
X28615000Y-9265000D01*
X28615000Y-9235000D02*
X28585000Y-9265000D01*
X28585000Y-11285000D02*
X28615000Y-11315000D01*
X28615000Y-11285000D02*
X28585000Y-11315000D01*
X28610000Y-5735000D02*
X28640000Y-5765000D01*
X28640000Y-5735000D02*
X28610000Y-5765000D01*
X28632500Y-4302500D02*
X28662500Y-4332500D01*
X28662500Y-4302500D02*
X28632500Y-4332500D01*
X28635000Y-3685000D02*
X28665000Y-3715000D01*
X28665000Y-3685000D02*
X28635000Y-3715000D01*
X28660000Y-9185000D02*
X28690000Y-9215000D01*
X28690000Y-9185000D02*
X28660000Y-9215000D01*
X28660000Y-9435000D02*
X28690000Y-9465000D01*
X28690000Y-9435000D02*
X28660000Y-9465000D01*
X28735000Y-9135000D02*
X28765000Y-9165000D01*
X28765000Y-9135000D02*
X28735000Y-9165000D01*
X28735000Y-9485000D02*
X28765000Y-9515000D01*
X28765000Y-9485000D02*
X28735000Y-9515000D01*
X28750000Y-5585000D02*
X28780000Y-5615000D01*
X28780000Y-5585000D02*
X28750000Y-5615000D01*
X28810000Y-3535000D02*
X28840000Y-3565000D01*
X28840000Y-3535000D02*
X28810000Y-3565000D01*
X28810000Y-5010000D02*
X28840000Y-5040000D01*
X28840000Y-5010000D02*
X28810000Y-5040000D01*
X28810000Y-5485000D02*
X28840000Y-5515000D01*
X28840000Y-5485000D02*
X28810000Y-5515000D01*
X28810000Y-9085000D02*
X28840000Y-9115000D01*
X28840000Y-9085000D02*
X28810000Y-9115000D01*
X28810000Y-9535000D02*
X28840000Y-9565000D01*
X28840000Y-9535000D02*
X28810000Y-9565000D01*
X28810000Y-9835000D02*
X28840000Y-9865000D01*
X28840000Y-9835000D02*
X28810000Y-9865000D01*
X28810000Y-10685000D02*
X28840000Y-10715000D01*
X28840000Y-10685000D02*
X28810000Y-10715000D01*
X28985000Y-1960000D02*
X29015000Y-1990000D01*
X29015000Y-1960000D02*
X28985000Y-1990000D01*
X29005000Y-2402500D02*
X29035000Y-2432500D01*
X29035000Y-2402500D02*
X29005000Y-2432500D01*
X29135000Y-6185000D02*
X29165000Y-6215000D01*
X29165000Y-6185000D02*
X29135000Y-6215000D01*
X29235000Y15000D02*
X29265000Y-15000D01*
X29265000Y15000D02*
X29235000Y-15000D01*
X29260000Y-6085000D02*
X29290000Y-6115000D01*
X29290000Y-6085000D02*
X29260000Y-6115000D01*
X29360000Y-6185000D02*
X29390000Y-6215000D01*
X29390000Y-6185000D02*
X29360000Y-6215000D01*
X29435000Y-1310000D02*
X29465000Y-1340000D01*
X29465000Y-1310000D02*
X29435000Y-1340000D01*
X29460000Y-6185000D02*
X29490000Y-6215000D01*
X29490000Y-6185000D02*
X29460000Y-6215000D01*
X29535000Y-960000D02*
X29565000Y-990000D01*
X29565000Y-960000D02*
X29535000Y-990000D01*
X29535000Y-5860000D02*
X29565000Y-5890000D01*
X29565000Y-5860000D02*
X29535000Y-5890000D01*
X29785000Y-335000D02*
X29815000Y-365000D01*
X29815000Y-335000D02*
X29785000Y-365000D01*
X29785000Y-910000D02*
X29815000Y-940000D01*
X29815000Y-910000D02*
X29785000Y-940000D01*
X29810000Y-6635000D02*
X29840000Y-6665000D01*
X29840000Y-6635000D02*
X29810000Y-6665000D01*
X29810000Y-6910000D02*
X29840000Y-6940000D01*
X29840000Y-6910000D02*
X29810000Y-6940000D01*
X29885000Y-2760000D02*
X29915000Y-2790000D01*
X29915000Y-2760000D02*
X29885000Y-2790000D01*
X29935000Y-5860000D02*
X29965000Y-5890000D01*
X29965000Y-5860000D02*
X29935000Y-5890000D01*
X30010000Y-1435000D02*
X30040000Y-1465000D01*
X30040000Y-1435000D02*
X30010000Y-1465000D01*
X30085000Y-6635000D02*
X30115000Y-6665000D01*
X30115000Y-6635000D02*
X30085000Y-6665000D01*
X30110000Y-2410000D02*
X30140000Y-2440000D01*
X30140000Y-2410000D02*
X30110000Y-2440000D01*
X30164000Y-5956000D02*
X30194000Y-5986000D01*
X30194000Y-5956000D02*
X30164000Y-5986000D01*
X30185000Y-4310000D02*
X30215000Y-4340000D01*
X30215000Y-4310000D02*
X30185000Y-4340000D01*
X30235000Y-885000D02*
X30265000Y-915000D01*
X30265000Y-885000D02*
X30235000Y-915000D01*
X30290520Y-1719480D02*
X30320520Y-1749480D01*
X30320520Y-1719480D02*
X30290520Y-1749480D01*
X30335000Y-7360000D02*
X30365000Y-7390000D01*
X30365000Y-7360000D02*
X30335000Y-7390000D01*
X30360000Y-6635000D02*
X30390000Y-6665000D01*
X30390000Y-6635000D02*
X30360000Y-6665000D01*
X30360000Y-6910000D02*
X30390000Y-6940000D01*
X30390000Y-6910000D02*
X30360000Y-6940000D01*
X30437500Y-1012500D02*
X30467500Y-1042500D01*
X30467500Y-1012500D02*
X30437500Y-1042500D01*
X30485000Y-7535000D02*
X30515000Y-7565000D01*
X30515000Y-7535000D02*
X30485000Y-7565000D01*
X30535000Y-1285000D02*
X30565000Y-1315000D01*
X30565000Y-1285000D02*
X30535000Y-1315000D01*
X30535000Y-1585000D02*
X30565000Y-1615000D01*
X30565000Y-1585000D02*
X30535000Y-1615000D01*
X30535000Y-9835000D02*
X30565000Y-9865000D01*
X30565000Y-9835000D02*
X30535000Y-9865000D01*
X30685000Y-1435000D02*
X30715000Y-1465000D01*
X30715000Y-1435000D02*
X30685000Y-1465000D01*
X30710000Y-3535000D02*
X30740000Y-3565000D01*
X30740000Y-3535000D02*
X30710000Y-3565000D01*
X30710000Y-5010000D02*
X30740000Y-5040000D01*
X30740000Y-5010000D02*
X30710000Y-5040000D01*
X30710000Y-5435000D02*
X30740000Y-5465000D01*
X30740000Y-5435000D02*
X30710000Y-5465000D01*
X30710000Y-9235000D02*
X30740000Y-9265000D01*
X30740000Y-9235000D02*
X30710000Y-9265000D01*
X30710000Y-9485000D02*
X30740000Y-9515000D01*
X30740000Y-9485000D02*
X30710000Y-9515000D01*
X30710000Y-10710000D02*
X30740000Y-10740000D01*
X30740000Y-10710000D02*
X30710000Y-10740000D01*
X30735000Y-2310000D02*
X30765000Y-2340000D01*
X30765000Y-2310000D02*
X30735000Y-2340000D01*
X30735000Y-2560000D02*
X30765000Y-2590000D01*
X30765000Y-2560000D02*
X30735000Y-2590000D01*
X30802000Y-8102000D02*
X30832000Y-8132000D01*
X30832000Y-8102000D02*
X30802000Y-8132000D01*
X30835000Y15000D02*
X30865000Y-15000D01*
X30865000Y15000D02*
X30835000Y-15000D01*
X30835000Y-160000D02*
X30865000Y-190000D01*
X30865000Y-160000D02*
X30835000Y-190000D01*
X30835000Y-1285000D02*
X30865000Y-1315000D01*
X30865000Y-1285000D02*
X30835000Y-1315000D01*
X30835000Y-1585000D02*
X30865000Y-1615000D01*
X30865000Y-1585000D02*
X30835000Y-1615000D01*
X30835000Y-5810000D02*
X30865000Y-5840000D01*
X30865000Y-5810000D02*
X30835000Y-5840000D01*
X30835000Y-6185000D02*
X30865000Y-6215000D01*
X30865000Y-6185000D02*
X30835000Y-6215000D01*
X30835000Y-6610000D02*
X30865000Y-6640000D01*
X30865000Y-6610000D02*
X30835000Y-6640000D01*
X30835000Y-7185000D02*
X30865000Y-7215000D01*
X30865000Y-7185000D02*
X30835000Y-7215000D01*
X30835000Y-7285000D02*
X30865000Y-7315000D01*
X30865000Y-7285000D02*
X30835000Y-7315000D01*
X30885000Y-685000D02*
X30915000Y-715000D01*
X30915000Y-685000D02*
X30885000Y-715000D01*
X30885000Y-905000D02*
X30915000Y-935000D01*
X30915000Y-905000D02*
X30885000Y-935000D01*
X30960000Y-6710000D02*
X30990000Y-6740000D01*
X30990000Y-6710000D02*
X30960000Y-6740000D01*
X30960000Y-6810000D02*
X30990000Y-6840000D01*
X30990000Y-6810000D02*
X30960000Y-6840000D01*
X31000000Y-160000D02*
X31030000Y-190000D01*
X31030000Y-160000D02*
X31000000Y-190000D01*
X31010000Y-6760000D02*
X31040000Y-6790000D01*
X31040000Y-6760000D02*
X31010000Y-6790000D01*
X31010000Y-6860000D02*
X31040000Y-6890000D01*
X31040000Y-6860000D02*
X31010000Y-6890000D01*
X31035000Y-6285000D02*
X31065000Y-6315000D01*
X31065000Y-6285000D02*
X31035000Y-6315000D01*
X31035000Y-6385000D02*
X31065000Y-6415000D01*
X31065000Y-6385000D02*
X31035000Y-6415000D01*
X31090000Y-1860000D02*
X31120000Y-1890000D01*
X31120000Y-1860000D02*
X31090000Y-1890000D01*
X31135000Y15000D02*
X31165000Y-15000D01*
X31165000Y15000D02*
X31135000Y-15000D01*
X31160000Y-1435000D02*
X31190000Y-1465000D01*
X31190000Y-1435000D02*
X31160000Y-1465000D01*
X31185000Y-410000D02*
X31215000Y-440000D01*
X31215000Y-410000D02*
X31185000Y-440000D01*
X31185000Y-1510000D02*
X31215000Y-1540000D01*
X31215000Y-1510000D02*
X31185000Y-1540000D01*
X31235000Y-7010000D02*
X31265000Y-7040000D01*
X31265000Y-7010000D02*
X31235000Y-7040000D01*
X31235000Y-7360000D02*
X31265000Y-7390000D01*
X31265000Y-7360000D02*
X31235000Y-7390000D01*
X31335000Y-7785000D02*
X31365000Y-7815000D01*
X31365000Y-7785000D02*
X31335000Y-7815000D01*
X31385000Y-1810000D02*
X31415000Y-1840000D01*
X31415000Y-1810000D02*
X31385000Y-1840000D01*
X31535000Y15000D02*
X31565000Y-15000D01*
X31565000Y15000D02*
X31535000Y-15000D01*
X31545000Y-905000D02*
X31575000Y-935000D01*
X31575000Y-905000D02*
X31545000Y-935000D01*
X31585000Y-1410000D02*
X31615000Y-1440000D01*
X31615000Y-1410000D02*
X31585000Y-1440000D01*
X31610000Y-2160000D02*
X31640000Y-2190000D01*
X31640000Y-2160000D02*
X31610000Y-2190000D01*
X31685000Y-1760000D02*
X31715000Y-1790000D01*
X31715000Y-1760000D02*
X31685000Y-1790000D01*
X31710000Y-7010000D02*
X31740000Y-7040000D01*
X31740000Y-7010000D02*
X31710000Y-7040000D01*
X31710000Y-7385000D02*
X31740000Y-7415000D01*
X31740000Y-7385000D02*
X31710000Y-7415000D01*
X31760000Y-585000D02*
X31790000Y-615000D01*
X31790000Y-585000D02*
X31760000Y-615000D01*
X31885000Y-585000D02*
X31915000Y-615000D01*
X31915000Y-585000D02*
X31885000Y-615000D01*
X31886000Y-1309000D02*
X31916000Y-1339000D01*
X31916000Y-1309000D02*
X31886000Y-1339000D01*
X32000000Y-975000D02*
X32030000Y-1005000D01*
X32030000Y-975000D02*
X32000000Y-1005000D01*
X32000000Y-1230000D02*
X32030000Y-1260000D01*
X32030000Y-1230000D02*
X32000000Y-1260000D01*
X32010000Y-585000D02*
X32040000Y-615000D01*
X32040000Y-585000D02*
X32010000Y-615000D01*
X32010000Y-1635000D02*
X32040000Y-1665000D01*
X32040000Y-1635000D02*
X32010000Y-1665000D01*
X32035000Y165000D02*
X32065000Y135000D01*
X32065000Y165000D02*
X32035000Y135000D01*
X32035000Y-2410000D02*
X32065000Y-2440000D01*
X32065000Y-2410000D02*
X32035000Y-2440000D01*
X32130000Y-335000D02*
X32160000Y-365000D01*
X32160000Y-335000D02*
X32130000Y-365000D01*
X32135000Y-585000D02*
X32165000Y-615000D01*
X32165000Y-585000D02*
X32135000Y-615000D01*
X32185000Y-1210000D02*
X32215000Y-1240000D01*
X32215000Y-1210000D02*
X32185000Y-1240000D01*
X32210000Y-6860000D02*
X32240000Y-6890000D01*
X32240000Y-6860000D02*
X32210000Y-6890000D01*
X32225000Y-905000D02*
X32255000Y-935000D01*
X32255000Y-905000D02*
X32225000Y-935000D01*
X32275000Y-387000D02*
X32305000Y-417000D01*
X32305000Y-387000D02*
X32275000Y-417000D01*
X32285000Y-6335000D02*
X32315000Y-6365000D01*
X32315000Y-6335000D02*
X32285000Y-6365000D01*
X32335000Y815000D02*
X32365000Y785000D01*
X32365000Y815000D02*
X32335000Y785000D01*
X32335000Y-3760000D02*
X32365000Y-3790000D01*
X32365000Y-3760000D02*
X32335000Y-3790000D01*
X32335000Y-6810000D02*
X32365000Y-6840000D01*
X32365000Y-6810000D02*
X32335000Y-6840000D01*
X32360000Y690000D02*
X32390000Y660000D01*
X32390000Y690000D02*
X32360000Y660000D01*
X32360000Y-135000D02*
X32390000Y-165000D01*
X32390000Y-135000D02*
X32360000Y-165000D01*
X32410000Y-9310000D02*
X32440000Y-9340000D01*
X32440000Y-9310000D02*
X32410000Y-9340000D01*
X32410000Y-9660000D02*
X32440000Y-9690000D01*
X32440000Y-9660000D02*
X32410000Y-9690000D01*
X32485000Y515000D02*
X32515000Y485000D01*
X32515000Y515000D02*
X32485000Y485000D01*
X32590000Y-1875000D02*
X32620000Y-1905000D01*
X32620000Y-1875000D02*
X32590000Y-1905000D01*
X32610000Y-135000D02*
X32640000Y-165000D01*
X32640000Y-135000D02*
X32610000Y-165000D01*
X32610000Y-3535000D02*
X32640000Y-3565000D01*
X32640000Y-3535000D02*
X32610000Y-3565000D01*
X32610000Y-4985000D02*
X32640000Y-5015000D01*
X32640000Y-4985000D02*
X32610000Y-5015000D01*
X32610000Y-5435000D02*
X32640000Y-5465000D01*
X32640000Y-5435000D02*
X32610000Y-5465000D01*
X32610000Y-9660000D02*
X32640000Y-9690000D01*
X32640000Y-9660000D02*
X32610000Y-9690000D01*
X32610000Y-10710000D02*
X32640000Y-10740000D01*
X32640000Y-10710000D02*
X32610000Y-10740000D01*
X32625000Y-905000D02*
X32655000Y-935000D01*
X32655000Y-905000D02*
X32625000Y-935000D01*
X32660000Y-2310000D02*
X32690000Y-2340000D01*
X32690000Y-2310000D02*
X32660000Y-2340000D01*
X32660000Y-2560000D02*
X32690000Y-2590000D01*
X32690000Y-2560000D02*
X32660000Y-2590000D01*
X32680000Y-2150000D02*
X32710000Y-2180000D01*
X32710000Y-2150000D02*
X32680000Y-2180000D01*
X32710000Y365000D02*
X32740000Y335000D01*
X32740000Y365000D02*
X32710000Y335000D01*
X32735000Y-6335000D02*
X32765000Y-6365000D01*
X32765000Y-6335000D02*
X32735000Y-6365000D01*
X32760000Y-6710000D02*
X32790000Y-6740000D01*
X32790000Y-6710000D02*
X32760000Y-6740000D01*
X32785000Y40000D02*
X32815000Y10000D01*
X32815000Y40000D02*
X32785000Y10000D01*
X32785000Y-60000D02*
X32815000Y-90000D01*
X32815000Y-60000D02*
X32785000Y-90000D01*
X32835000Y-3960000D02*
X32865000Y-3990000D01*
X32865000Y-3960000D02*
X32835000Y-3990000D01*
X32885000Y740000D02*
X32915000Y710000D01*
X32915000Y740000D02*
X32885000Y710000D01*
X32885000Y-1210000D02*
X32915000Y-1240000D01*
X32915000Y-1210000D02*
X32885000Y-1240000D01*
X32905000Y-6760000D02*
X32935000Y-6790000D01*
X32935000Y-6760000D02*
X32905000Y-6790000D01*
X32970000Y-6570000D02*
X33000000Y-6600000D01*
X33000000Y-6570000D02*
X32970000Y-6600000D01*
X32970000Y-6710000D02*
X33000000Y-6740000D01*
X33000000Y-6710000D02*
X32970000Y-6740000D01*
X32985000Y615000D02*
X33015000Y585000D01*
X33015000Y615000D02*
X32985000Y585000D01*
X33010000Y-285000D02*
X33040000Y-315000D01*
X33040000Y-285000D02*
X33010000Y-315000D01*
X33055000Y-6700000D02*
X33085000Y-6730000D01*
X33085000Y-6700000D02*
X33055000Y-6730000D01*
X33085000Y-1210000D02*
X33115000Y-1240000D01*
X33115000Y-1210000D02*
X33085000Y-1240000D01*
X33210000Y-9660000D02*
X33240000Y-9690000D01*
X33240000Y-9660000D02*
X33210000Y-9690000D01*
X33235000Y-1650000D02*
X33265000Y-1680000D01*
X33265000Y-1650000D02*
X33235000Y-1680000D01*
X33460000Y-310000D02*
X33490000Y-340000D01*
X33490000Y-310000D02*
X33460000Y-340000D01*
X33510000Y-4035000D02*
X33540000Y-4065000D01*
X33540000Y-4035000D02*
X33510000Y-4065000D01*
X33545000Y740000D02*
X33575000Y710000D01*
X33575000Y740000D02*
X33545000Y710000D01*
X33560000Y-9435000D02*
X33590000Y-9465000D01*
X33590000Y-9435000D02*
X33560000Y-9465000D01*
X33585000Y-310000D02*
X33615000Y-340000D01*
X33615000Y-310000D02*
X33585000Y-340000D01*
X33600000Y-1460000D02*
X33630000Y-1490000D01*
X33630000Y-1460000D02*
X33600000Y-1490000D01*
X33610000Y-9485000D02*
X33640000Y-9515000D01*
X33640000Y-9485000D02*
X33610000Y-9515000D01*
X33660000Y-9535000D02*
X33690000Y-9565000D01*
X33690000Y-9535000D02*
X33660000Y-9565000D01*
X33735000Y-2410000D02*
X33765000Y-2440000D01*
X33765000Y-2410000D02*
X33735000Y-2440000D01*
X33760000Y-4460000D02*
X33790000Y-4490000D01*
X33790000Y-4460000D02*
X33760000Y-4490000D01*
X33775000Y80000D02*
X33805000Y50000D01*
X33805000Y80000D02*
X33775000Y50000D01*
X33810000Y-1885000D02*
X33840000Y-1915000D01*
X33840000Y-1885000D02*
X33810000Y-1915000D01*
X33810000Y-2260000D02*
X33840000Y-2290000D01*
X33840000Y-2260000D02*
X33810000Y-2290000D01*
X33820000Y-6700000D02*
X33850000Y-6730000D01*
X33850000Y-6700000D02*
X33820000Y-6730000D01*
X33835000Y-6435000D02*
X33865000Y-6465000D01*
X33865000Y-6435000D02*
X33835000Y-6465000D01*
X33960000Y-60000D02*
X33990000Y-90000D01*
X33990000Y-60000D02*
X33960000Y-90000D01*
X34010000Y-5560000D02*
X34040000Y-5590000D01*
X34040000Y-5560000D02*
X34010000Y-5590000D01*
X34060000Y-5610000D02*
X34090000Y-5640000D01*
X34090000Y-5610000D02*
X34060000Y-5640000D01*
X32850500Y1257500D02*
G75*
G03*
X32850500Y1257500I-32500J0D01*
G01*
X32795500Y1322500D02*
X32795500Y1192500D01*
X32840500Y1322500D02*
X32840500Y1192500D01*
X32795500Y1192500D02*
G75*
G03*
X32840500Y1192500I22500J0D01*
G01*
X32840500Y1322500D02*
G75*
G03*
X32795500Y1322500I-22500J0D01*
G01*
X32850500Y875000D02*
G75*
G03*
X32850500Y875000I-32500J0D01*
G01*
X32795500Y925000D02*
X32795500Y825000D01*
X32840500Y925000D02*
X32840500Y825000D01*
X32795500Y825000D02*
G75*
G03*
X32840500Y825000I22500J0D01*
G01*
X32840500Y925000D02*
G75*
G03*
X32795500Y925000I-22500J0D01*
G01*
X33714500Y1257500D02*
G75*
G03*
X33714500Y1257500I-32500J0D01*
G01*
X33659500Y1322500D02*
X33659500Y1192500D01*
X33704500Y1322500D02*
X33704500Y1192500D01*
X33659500Y1192500D02*
G75*
G03*
X33704500Y1192500I22500J0D01*
G01*
X33704500Y1322500D02*
G75*
G03*
X33659500Y1322500I-22500J0D01*
G01*
X33714500Y875000D02*
G75*
G03*
X33714500Y875000I-32500J0D01*
G01*
X33659500Y925000D02*
X33659500Y825000D01*
X33704500Y925000D02*
X33704500Y825000D01*
X33659500Y825000D02*
G75*
G03*
X33704500Y825000I22500J0D01*
G01*
X33704500Y925000D02*
G75*
G03*
X33659500Y925000I-22500J0D01*
G01*
X29100000Y249530D02*
X29100000Y150470D01*
X29050470Y200000D02*
X29149530Y200000D01*
X29350000Y249530D02*
X29350000Y150470D01*
X29300470Y200000D02*
X29399530Y200000D01*
X29550000Y249530D02*
X29550000Y150470D01*
X29500470Y200000D02*
X29599530Y200000D01*
X29800000Y249530D02*
X29800000Y150470D01*
X29750470Y200000D02*
X29849530Y200000D01*
X31000000Y249530D02*
X31000000Y150470D01*
X30950470Y200000D02*
X31049530Y200000D01*
X31250000Y249530D02*
X31250000Y150470D01*
X31200470Y200000D02*
X31299530Y200000D01*
X31450000Y249530D02*
X31450000Y150470D01*
X31400470Y200000D02*
X31499530Y200000D01*
X31700000Y249530D02*
X31700000Y150470D01*
X31650470Y200000D02*
X31749530Y200000D01*
X28874721Y389279D02*
X28874721Y552721D01*
X28711279Y552721D01*
X28711279Y389279D01*
X28874721Y389279D01*
X30188721Y389279D02*
X30188721Y552721D01*
X30025279Y552721D01*
X30025279Y389279D01*
X30188721Y389279D01*
X30774721Y389279D02*
X30774721Y552721D01*
X30611279Y552721D01*
X30611279Y389279D01*
X30774721Y389279D01*
X32088721Y389279D02*
X32088721Y552721D01*
X31925279Y552721D01*
X31925279Y389279D01*
X32088721Y389279D01*
X1425000Y-10347500D02*
X1560000Y-10212500D01*
X1425000Y-10077500D01*
X1290000Y-10212500D01*
X1425000Y-10347500D01*
X1662500Y-4647500D02*
X1797500Y-4512500D01*
X1662500Y-4377500D01*
X1527500Y-4512500D01*
X1662500Y-4647500D01*
X1900000Y102500D02*
X2035000Y237500D01*
X1900000Y372500D01*
X1765000Y237500D01*
X1900000Y102500D01*
X9500000Y-4647500D02*
X9635000Y-4512500D01*
X9500000Y-4377500D01*
X9365000Y-4512500D01*
X9500000Y-4647500D01*
X9500000Y-10347500D02*
X9635000Y-10212500D01*
X9500000Y-10077500D01*
X9365000Y-10212500D01*
X9500000Y-10347500D01*
X10925000Y102500D02*
X11060000Y237500D01*
X10925000Y372500D01*
X10790000Y237500D01*
X10925000Y102500D01*
X16625000Y-10347500D02*
X16760000Y-10212500D01*
X16625000Y-10077500D01*
X16490000Y-10212500D01*
X16625000Y-10347500D01*
X17100000Y-4647500D02*
X17235000Y-4512500D01*
X17100000Y-4377500D01*
X16965000Y-4512500D01*
X17100000Y-4647500D01*
X19475000Y102500D02*
X19610000Y237500D01*
X19475000Y372500D01*
X19340000Y237500D01*
X19475000Y102500D01*
X23750000Y102500D02*
X23885000Y237500D01*
X23750000Y372500D01*
X23615000Y237500D01*
X23750000Y102500D01*
X24937500Y-4647500D02*
X25072500Y-4512500D01*
X24937500Y-4377500D01*
X24802500Y-4512500D01*
X24937500Y-4647500D01*
X25175000Y-10347500D02*
X25310000Y-10212500D01*
X25175000Y-10077500D01*
X25040000Y-10212500D01*
X25175000Y-10347500D01*
X28025000Y102500D02*
X28160000Y237500D01*
X28025000Y372500D01*
X27890000Y237500D01*
X28025000Y102500D01*
X32300000Y-4647500D02*
X32435000Y-4512500D01*
X32300000Y-4377500D01*
X32165000Y-4512500D01*
X32300000Y-4647500D01*
X32300000Y-10347500D02*
X32435000Y-10212500D01*
X32300000Y-10077500D01*
X32165000Y-10212500D01*
X32300000Y-10347500D01*
D12*
X90428Y-10581714D02*
X90428Y-10281714D01*
X161857Y-10281714D01*
X204714Y-10296000D01*
X233286Y-10324572D01*
X247571Y-10353143D01*
X261857Y-10410286D01*
X261857Y-10453143D01*
X247571Y-10510286D01*
X233286Y-10538857D01*
X204714Y-10567429D01*
X161857Y-10581714D01*
X90428Y-10581714D01*
X390428Y-10581714D02*
X390428Y-10381714D01*
X390428Y-10438857D02*
X404714Y-10410286D01*
X419000Y-10396000D01*
X447571Y-10381714D01*
X476143Y-10381714D01*
X576143Y-10581714D02*
X576143Y-10381714D01*
X576143Y-10281714D02*
X561857Y-10296000D01*
X576143Y-10310286D01*
X590428Y-10296000D01*
X576143Y-10281714D01*
X576143Y-10310286D01*
X761857Y-10581714D02*
X733286Y-10567429D01*
X719000Y-10538857D01*
X719000Y-10281714D01*
X919000Y-10581714D02*
X890428Y-10567429D01*
X876143Y-10538857D01*
X876143Y-10281714D01*
X1261857Y-10581714D02*
X1261857Y-10281714D01*
X1361857Y-10496000D01*
X1461857Y-10281714D01*
X1461857Y-10581714D01*
X1733286Y-10581714D02*
X1733286Y-10424572D01*
X1719000Y-10396000D01*
X1690428Y-10381714D01*
X1633286Y-10381714D01*
X1604714Y-10396000D01*
X1733286Y-10567429D02*
X1704714Y-10581714D01*
X1633286Y-10581714D01*
X1604714Y-10567429D01*
X1590428Y-10538857D01*
X1590428Y-10510286D01*
X1604714Y-10481714D01*
X1633286Y-10467429D01*
X1704714Y-10467429D01*
X1733286Y-10453143D01*
X1876143Y-10381714D02*
X1876143Y-10681714D01*
X1876143Y-10396000D02*
X1904714Y-10381714D01*
X1961857Y-10381714D01*
X1990428Y-10396000D01*
X2004714Y-10410286D01*
X2019000Y-10438857D01*
X2019000Y-10524572D01*
X2004714Y-10553143D01*
X1990428Y-10567429D01*
X1961857Y-10581714D01*
X1904714Y-10581714D01*
X1876143Y-10567429D01*
X2147571Y-10553143D02*
X2161857Y-10567429D01*
X2147571Y-10581714D01*
X2133286Y-10567429D01*
X2147571Y-10553143D01*
X2147571Y-10581714D01*
X2147571Y-10396000D02*
X2161857Y-10410286D01*
X2147571Y-10424572D01*
X2133286Y-10410286D01*
X2147571Y-10396000D01*
X2147571Y-10424572D01*
X-226000Y-11061000D02*
X-196000Y-11091000D01*
X-196000Y-11061000D02*
X-226000Y-11091000D01*
X147571Y-10911714D02*
X176143Y-10911714D01*
X204714Y-10926000D01*
X219000Y-10940286D01*
X233286Y-10968857D01*
X247571Y-11026000D01*
X247571Y-11097429D01*
X233286Y-11154572D01*
X219000Y-11183143D01*
X204714Y-11197429D01*
X176143Y-11211714D01*
X147571Y-11211714D01*
X119000Y-11197429D01*
X104714Y-11183143D01*
X90428Y-11154572D01*
X76143Y-11097429D01*
X76143Y-11026000D01*
X90428Y-10968857D01*
X104714Y-10940286D01*
X119000Y-10926000D01*
X147571Y-10911714D01*
X376143Y-11183143D02*
X390428Y-11197429D01*
X376143Y-11211714D01*
X361857Y-11197429D01*
X376143Y-11183143D01*
X376143Y-11211714D01*
X490428Y-10911714D02*
X676143Y-10911714D01*
X576143Y-11026000D01*
X619000Y-11026000D01*
X647571Y-11040286D01*
X661857Y-11054572D01*
X676143Y-11083143D01*
X676143Y-11154572D01*
X661857Y-11183143D01*
X647571Y-11197429D01*
X619000Y-11211714D01*
X533286Y-11211714D01*
X504714Y-11197429D01*
X490428Y-11183143D01*
X861857Y-10911714D02*
X890428Y-10911714D01*
X919000Y-10926000D01*
X933286Y-10940286D01*
X947571Y-10968857D01*
X961857Y-11026000D01*
X961857Y-11097429D01*
X947571Y-11154572D01*
X933286Y-11183143D01*
X919000Y-11197429D01*
X890428Y-11211714D01*
X861857Y-11211714D01*
X833286Y-11197429D01*
X819000Y-11183143D01*
X804714Y-11154572D01*
X790428Y-11097429D01*
X790428Y-11026000D01*
X804714Y-10968857D01*
X819000Y-10940286D01*
X833286Y-10926000D01*
X861857Y-10911714D01*
X1147571Y-10911714D02*
X1176143Y-10911714D01*
X1204714Y-10926000D01*
X1219000Y-10940286D01*
X1233286Y-10968857D01*
X1247571Y-11026000D01*
X1247571Y-11097429D01*
X1233286Y-11154572D01*
X1219000Y-11183143D01*
X1204714Y-11197429D01*
X1176143Y-11211714D01*
X1147571Y-11211714D01*
X1119000Y-11197429D01*
X1104714Y-11183143D01*
X1090428Y-11154572D01*
X1076143Y-11097429D01*
X1076143Y-11026000D01*
X1090428Y-10968857D01*
X1104714Y-10940286D01*
X1119000Y-10926000D01*
X1147571Y-10911714D01*
X1376143Y-11211714D02*
X1376143Y-11011714D01*
X1376143Y-11040286D02*
X1390428Y-11026000D01*
X1419000Y-11011714D01*
X1461857Y-11011714D01*
X1490428Y-11026000D01*
X1504714Y-11054572D01*
X1504714Y-11211714D01*
X1504714Y-11054572D02*
X1519000Y-11026000D01*
X1547571Y-11011714D01*
X1590428Y-11011714D01*
X1619000Y-11026000D01*
X1633286Y-11054572D01*
X1633286Y-11211714D01*
X1776143Y-11211714D02*
X1776143Y-11011714D01*
X1776143Y-11040286D02*
X1790428Y-11026000D01*
X1819000Y-11011714D01*
X1861857Y-11011714D01*
X1890428Y-11026000D01*
X1904714Y-11054572D01*
X1904714Y-11211714D01*
X1904714Y-11054572D02*
X1919000Y-11026000D01*
X1947571Y-11011714D01*
X1990428Y-11011714D01*
X2019000Y-11026000D01*
X2033286Y-11054572D01*
X2033286Y-11211714D01*
X2619000Y-10897429D02*
X2361857Y-11283143D01*
X3004714Y-10911714D02*
X3033286Y-10911714D01*
X3061857Y-10926000D01*
X3076143Y-10940286D01*
X3090428Y-10968857D01*
X3104714Y-11026000D01*
X3104714Y-11097429D01*
X3090428Y-11154572D01*
X3076143Y-11183143D01*
X3061857Y-11197429D01*
X3033286Y-11211714D01*
X3004714Y-11211714D01*
X2976143Y-11197429D01*
X2961857Y-11183143D01*
X2947571Y-11154572D01*
X2933286Y-11097429D01*
X2933286Y-11026000D01*
X2947571Y-10968857D01*
X2961857Y-10940286D01*
X2976143Y-10926000D01*
X3004714Y-10911714D01*
X3233286Y-11183143D02*
X3247571Y-11197429D01*
X3233286Y-11211714D01*
X3219000Y-11197429D01*
X3233286Y-11183143D01*
X3233286Y-11211714D01*
X3433286Y-10911714D02*
X3461857Y-10911714D01*
X3490428Y-10926000D01*
X3504714Y-10940286D01*
X3519000Y-10968857D01*
X3533286Y-11026000D01*
X3533286Y-11097429D01*
X3519000Y-11154572D01*
X3504714Y-11183143D01*
X3490428Y-11197429D01*
X3461857Y-11211714D01*
X3433286Y-11211714D01*
X3404714Y-11197429D01*
X3390428Y-11183143D01*
X3376143Y-11154572D01*
X3361857Y-11097429D01*
X3361857Y-11026000D01*
X3376143Y-10968857D01*
X3390428Y-10940286D01*
X3404714Y-10926000D01*
X3433286Y-10911714D01*
X3819000Y-11211714D02*
X3647571Y-11211714D01*
X3733286Y-11211714D02*
X3733286Y-10911714D01*
X3704714Y-10954572D01*
X3676143Y-10983143D01*
X3647571Y-10997429D01*
X4104714Y-11211714D02*
X3933286Y-11211714D01*
X4019000Y-11211714D02*
X4019000Y-10911714D01*
X3990428Y-10954572D01*
X3961857Y-10983143D01*
X3933286Y-10997429D01*
X4276143Y-11040286D02*
X4247571Y-11026000D01*
X4233286Y-11011714D01*
X4219000Y-10983143D01*
X4219000Y-10968857D01*
X4233286Y-10940286D01*
X4247571Y-10926000D01*
X4276143Y-10911714D01*
X4333286Y-10911714D01*
X4361857Y-10926000D01*
X4376143Y-10940286D01*
X4390428Y-10968857D01*
X4390428Y-10983143D01*
X4376143Y-11011714D01*
X4361857Y-11026000D01*
X4333286Y-11040286D01*
X4276143Y-11040286D01*
X4247571Y-11054572D01*
X4233286Y-11068857D01*
X4219000Y-11097429D01*
X4219000Y-11154572D01*
X4233286Y-11183143D01*
X4247571Y-11197429D01*
X4276143Y-11211714D01*
X4333286Y-11211714D01*
X4361857Y-11197429D01*
X4376143Y-11183143D01*
X4390428Y-11154572D01*
X4390428Y-11097429D01*
X4376143Y-11068857D01*
X4361857Y-11054572D01*
X4333286Y-11040286D01*
X4504714Y-10911714D02*
X4504714Y-10968857D01*
X4619000Y-10911714D02*
X4619000Y-10968857D01*
X5061857Y-11326000D02*
X5047571Y-11311714D01*
X5019000Y-11268857D01*
X5004714Y-11240286D01*
X4990428Y-11197429D01*
X4976143Y-11126000D01*
X4976143Y-11068857D01*
X4990428Y-10997429D01*
X5004714Y-10954572D01*
X5019000Y-10926000D01*
X5047571Y-10883143D01*
X5061857Y-10868857D01*
X5147571Y-10911714D02*
X5333286Y-10911714D01*
X5233286Y-11026000D01*
X5276143Y-11026000D01*
X5304714Y-11040286D01*
X5319000Y-11054572D01*
X5333286Y-11083143D01*
X5333286Y-11154572D01*
X5319000Y-11183143D01*
X5304714Y-11197429D01*
X5276143Y-11211714D01*
X5190428Y-11211714D01*
X5161857Y-11197429D01*
X5147571Y-11183143D01*
X5504714Y-11040286D02*
X5476143Y-11026000D01*
X5461857Y-11011714D01*
X5447571Y-10983143D01*
X5447571Y-10968857D01*
X5461857Y-10940286D01*
X5476143Y-10926000D01*
X5504714Y-10911714D01*
X5561857Y-10911714D01*
X5590428Y-10926000D01*
X5604714Y-10940286D01*
X5619000Y-10968857D01*
X5619000Y-10983143D01*
X5604714Y-11011714D01*
X5590428Y-11026000D01*
X5561857Y-11040286D01*
X5504714Y-11040286D01*
X5476143Y-11054572D01*
X5461857Y-11068857D01*
X5447571Y-11097429D01*
X5447571Y-11154572D01*
X5461857Y-11183143D01*
X5476143Y-11197429D01*
X5504714Y-11211714D01*
X5561857Y-11211714D01*
X5590428Y-11197429D01*
X5604714Y-11183143D01*
X5619000Y-11154572D01*
X5619000Y-11097429D01*
X5604714Y-11068857D01*
X5590428Y-11054572D01*
X5561857Y-11040286D01*
X5761857Y-11211714D02*
X5819000Y-11211714D01*
X5847571Y-11197429D01*
X5861857Y-11183143D01*
X5890428Y-11140286D01*
X5904714Y-11083143D01*
X5904714Y-10968857D01*
X5890428Y-10940286D01*
X5876143Y-10926000D01*
X5847571Y-10911714D01*
X5790428Y-10911714D01*
X5761857Y-10926000D01*
X5747571Y-10940286D01*
X5733286Y-10968857D01*
X5733286Y-11040286D01*
X5747571Y-11068857D01*
X5761857Y-11083143D01*
X5790428Y-11097429D01*
X5847571Y-11097429D01*
X5876143Y-11083143D01*
X5890428Y-11068857D01*
X5904714Y-11040286D01*
X6261857Y-11211714D02*
X6261857Y-10911714D01*
X6390428Y-11211714D02*
X6390428Y-11054572D01*
X6376143Y-11026000D01*
X6347571Y-11011714D01*
X6304714Y-11011714D01*
X6276143Y-11026000D01*
X6261857Y-11040286D01*
X6576143Y-11211714D02*
X6547571Y-11197429D01*
X6533286Y-11183143D01*
X6519000Y-11154572D01*
X6519000Y-11068857D01*
X6533286Y-11040286D01*
X6547571Y-11026000D01*
X6576143Y-11011714D01*
X6619000Y-11011714D01*
X6647571Y-11026000D01*
X6661857Y-11040286D01*
X6676143Y-11068857D01*
X6676143Y-11154572D01*
X6661857Y-11183143D01*
X6647571Y-11197429D01*
X6619000Y-11211714D01*
X6576143Y-11211714D01*
X6847571Y-11211714D02*
X6819000Y-11197429D01*
X6804714Y-11168857D01*
X6804714Y-10911714D01*
X7076143Y-11197429D02*
X7047571Y-11211714D01*
X6990428Y-11211714D01*
X6961857Y-11197429D01*
X6947571Y-11168857D01*
X6947571Y-11054572D01*
X6961857Y-11026000D01*
X6990428Y-11011714D01*
X7047571Y-11011714D01*
X7076143Y-11026000D01*
X7090428Y-11054572D01*
X7090428Y-11083143D01*
X6947571Y-11111714D01*
X7204714Y-11197429D02*
X7233286Y-11211714D01*
X7290428Y-11211714D01*
X7319000Y-11197429D01*
X7333286Y-11168857D01*
X7333286Y-11154572D01*
X7319000Y-11126000D01*
X7290428Y-11111714D01*
X7247571Y-11111714D01*
X7219000Y-11097429D01*
X7204714Y-11068857D01*
X7204714Y-11054572D01*
X7219000Y-11026000D01*
X7247571Y-11011714D01*
X7290428Y-11011714D01*
X7319000Y-11026000D01*
X7433286Y-11326000D02*
X7447571Y-11311714D01*
X7476143Y-11268857D01*
X7490428Y-11240286D01*
X7504714Y-11197429D01*
X7519000Y-11126000D01*
X7519000Y-11068857D01*
X7504714Y-10997429D01*
X7490428Y-10954572D01*
X7476143Y-10926000D01*
X7447571Y-10883143D01*
X7433286Y-10868857D01*
X-196000Y-11472000D02*
G75*
G03*
X-196000Y-11472000I-32500J0D01*
G01*
X147571Y-11307714D02*
X176143Y-11307714D01*
X204714Y-11322000D01*
X219000Y-11336286D01*
X233286Y-11364857D01*
X247571Y-11422000D01*
X247571Y-11493429D01*
X233286Y-11550571D01*
X219000Y-11579143D01*
X204714Y-11593429D01*
X176143Y-11607714D01*
X147571Y-11607714D01*
X119000Y-11593429D01*
X104714Y-11579143D01*
X90428Y-11550571D01*
X76143Y-11493429D01*
X76143Y-11422000D01*
X90428Y-11364857D01*
X104714Y-11336286D01*
X119000Y-11322000D01*
X147571Y-11307714D01*
X376143Y-11579143D02*
X390428Y-11593429D01*
X376143Y-11607714D01*
X361857Y-11593429D01*
X376143Y-11579143D01*
X376143Y-11607714D01*
X647571Y-11307714D02*
X590428Y-11307714D01*
X561857Y-11322000D01*
X547571Y-11336286D01*
X519000Y-11379143D01*
X504714Y-11436286D01*
X504714Y-11550571D01*
X519000Y-11579143D01*
X533286Y-11593429D01*
X561857Y-11607714D01*
X619000Y-11607714D01*
X647571Y-11593429D01*
X661857Y-11579143D01*
X676143Y-11550571D01*
X676143Y-11479143D01*
X661857Y-11450571D01*
X647571Y-11436286D01*
X619000Y-11422000D01*
X561857Y-11422000D01*
X533286Y-11436286D01*
X519000Y-11450571D01*
X504714Y-11479143D01*
X947571Y-11307714D02*
X804714Y-11307714D01*
X790428Y-11450571D01*
X804714Y-11436286D01*
X833286Y-11422000D01*
X904714Y-11422000D01*
X933286Y-11436286D01*
X947571Y-11450571D01*
X961857Y-11479143D01*
X961857Y-11550571D01*
X947571Y-11579143D01*
X933286Y-11593429D01*
X904714Y-11607714D01*
X833286Y-11607714D01*
X804714Y-11593429D01*
X790428Y-11579143D01*
X1147571Y-11307714D02*
X1176143Y-11307714D01*
X1204714Y-11322000D01*
X1219000Y-11336286D01*
X1233286Y-11364857D01*
X1247571Y-11422000D01*
X1247571Y-11493429D01*
X1233286Y-11550571D01*
X1219000Y-11579143D01*
X1204714Y-11593429D01*
X1176143Y-11607714D01*
X1147571Y-11607714D01*
X1119000Y-11593429D01*
X1104714Y-11579143D01*
X1090428Y-11550571D01*
X1076143Y-11493429D01*
X1076143Y-11422000D01*
X1090428Y-11364857D01*
X1104714Y-11336286D01*
X1119000Y-11322000D01*
X1147571Y-11307714D01*
X1376143Y-11607714D02*
X1376143Y-11407714D01*
X1376143Y-11436286D02*
X1390428Y-11422000D01*
X1419000Y-11407714D01*
X1461857Y-11407714D01*
X1490428Y-11422000D01*
X1504714Y-11450571D01*
X1504714Y-11607714D01*
X1504714Y-11450571D02*
X1519000Y-11422000D01*
X1547571Y-11407714D01*
X1590428Y-11407714D01*
X1619000Y-11422000D01*
X1633286Y-11450571D01*
X1633286Y-11607714D01*
X1776143Y-11607714D02*
X1776143Y-11407714D01*
X1776143Y-11436286D02*
X1790428Y-11422000D01*
X1819000Y-11407714D01*
X1861857Y-11407714D01*
X1890428Y-11422000D01*
X1904714Y-11450571D01*
X1904714Y-11607714D01*
X1904714Y-11450571D02*
X1919000Y-11422000D01*
X1947571Y-11407714D01*
X1990428Y-11407714D01*
X2019000Y-11422000D01*
X2033286Y-11450571D01*
X2033286Y-11607714D01*
X2619000Y-11293429D02*
X2361857Y-11679143D01*
X3004714Y-11307714D02*
X3033286Y-11307714D01*
X3061857Y-11322000D01*
X3076143Y-11336286D01*
X3090428Y-11364857D01*
X3104714Y-11422000D01*
X3104714Y-11493429D01*
X3090428Y-11550571D01*
X3076143Y-11579143D01*
X3061857Y-11593429D01*
X3033286Y-11607714D01*
X3004714Y-11607714D01*
X2976143Y-11593429D01*
X2961857Y-11579143D01*
X2947571Y-11550571D01*
X2933286Y-11493429D01*
X2933286Y-11422000D01*
X2947571Y-11364857D01*
X2961857Y-11336286D01*
X2976143Y-11322000D01*
X3004714Y-11307714D01*
X3233286Y-11579143D02*
X3247571Y-11593429D01*
X3233286Y-11607714D01*
X3219000Y-11593429D01*
X3233286Y-11579143D01*
X3233286Y-11607714D01*
X3433286Y-11307714D02*
X3461857Y-11307714D01*
X3490428Y-11322000D01*
X3504714Y-11336286D01*
X3519000Y-11364857D01*
X3533286Y-11422000D01*
X3533286Y-11493429D01*
X3519000Y-11550571D01*
X3504714Y-11579143D01*
X3490428Y-11593429D01*
X3461857Y-11607714D01*
X3433286Y-11607714D01*
X3404714Y-11593429D01*
X3390428Y-11579143D01*
X3376143Y-11550571D01*
X3361857Y-11493429D01*
X3361857Y-11422000D01*
X3376143Y-11364857D01*
X3390428Y-11336286D01*
X3404714Y-11322000D01*
X3433286Y-11307714D01*
X3647571Y-11336286D02*
X3661857Y-11322000D01*
X3690428Y-11307714D01*
X3761857Y-11307714D01*
X3790428Y-11322000D01*
X3804714Y-11336286D01*
X3819000Y-11364857D01*
X3819000Y-11393429D01*
X3804714Y-11436286D01*
X3633286Y-11607714D01*
X3819000Y-11607714D01*
X4090428Y-11307714D02*
X3947571Y-11307714D01*
X3933286Y-11450571D01*
X3947571Y-11436286D01*
X3976143Y-11422000D01*
X4047571Y-11422000D01*
X4076143Y-11436286D01*
X4090428Y-11450571D01*
X4104714Y-11479143D01*
X4104714Y-11550571D01*
X4090428Y-11579143D01*
X4076143Y-11593429D01*
X4047571Y-11607714D01*
X3976143Y-11607714D01*
X3947571Y-11593429D01*
X3933286Y-11579143D01*
X4361857Y-11307714D02*
X4304714Y-11307714D01*
X4276143Y-11322000D01*
X4261857Y-11336286D01*
X4233286Y-11379143D01*
X4219000Y-11436286D01*
X4219000Y-11550571D01*
X4233286Y-11579143D01*
X4247571Y-11593429D01*
X4276143Y-11607714D01*
X4333286Y-11607714D01*
X4361857Y-11593429D01*
X4376143Y-11579143D01*
X4390428Y-11550571D01*
X4390428Y-11479143D01*
X4376143Y-11450571D01*
X4361857Y-11436286D01*
X4333286Y-11422000D01*
X4276143Y-11422000D01*
X4247571Y-11436286D01*
X4233286Y-11450571D01*
X4219000Y-11479143D01*
X4504714Y-11307714D02*
X4504714Y-11364857D01*
X4619000Y-11307714D02*
X4619000Y-11364857D01*
X5061857Y-11722000D02*
X5047571Y-11707714D01*
X5019000Y-11664857D01*
X5004714Y-11636286D01*
X4990428Y-11593429D01*
X4976143Y-11522000D01*
X4976143Y-11464857D01*
X4990428Y-11393429D01*
X5004714Y-11350571D01*
X5019000Y-11322000D01*
X5047571Y-11279143D01*
X5061857Y-11264857D01*
X5233286Y-11307714D02*
X5261857Y-11307714D01*
X5290428Y-11322000D01*
X5304714Y-11336286D01*
X5319000Y-11364857D01*
X5333286Y-11422000D01*
X5333286Y-11493429D01*
X5319000Y-11550571D01*
X5304714Y-11579143D01*
X5290428Y-11593429D01*
X5261857Y-11607714D01*
X5233286Y-11607714D01*
X5204714Y-11593429D01*
X5190428Y-11579143D01*
X5176143Y-11550571D01*
X5161857Y-11493429D01*
X5161857Y-11422000D01*
X5176143Y-11364857D01*
X5190428Y-11336286D01*
X5204714Y-11322000D01*
X5233286Y-11307714D01*
X5690428Y-11607714D02*
X5690428Y-11307714D01*
X5819000Y-11607714D02*
X5819000Y-11450571D01*
X5804714Y-11422000D01*
X5776143Y-11407714D01*
X5733286Y-11407714D01*
X5704714Y-11422000D01*
X5690428Y-11436286D01*
X6004714Y-11607714D02*
X5976143Y-11593429D01*
X5961857Y-11579143D01*
X5947571Y-11550571D01*
X5947571Y-11464857D01*
X5961857Y-11436286D01*
X5976143Y-11422000D01*
X6004714Y-11407714D01*
X6047571Y-11407714D01*
X6076143Y-11422000D01*
X6090428Y-11436286D01*
X6104714Y-11464857D01*
X6104714Y-11550571D01*
X6090428Y-11579143D01*
X6076143Y-11593429D01*
X6047571Y-11607714D01*
X6004714Y-11607714D01*
X6276143Y-11607714D02*
X6247571Y-11593429D01*
X6233286Y-11564857D01*
X6233286Y-11307714D01*
X6504714Y-11593429D02*
X6476143Y-11607714D01*
X6419000Y-11607714D01*
X6390428Y-11593429D01*
X6376143Y-11564857D01*
X6376143Y-11450571D01*
X6390428Y-11422000D01*
X6419000Y-11407714D01*
X6476143Y-11407714D01*
X6504714Y-11422000D01*
X6519000Y-11450571D01*
X6519000Y-11479143D01*
X6376143Y-11507714D01*
X6633286Y-11593429D02*
X6661857Y-11607714D01*
X6719000Y-11607714D01*
X6747571Y-11593429D01*
X6761857Y-11564857D01*
X6761857Y-11550571D01*
X6747571Y-11522000D01*
X6719000Y-11507714D01*
X6676143Y-11507714D01*
X6647571Y-11493429D01*
X6633286Y-11464857D01*
X6633286Y-11450571D01*
X6647571Y-11422000D01*
X6676143Y-11407714D01*
X6719000Y-11407714D01*
X6747571Y-11422000D01*
X7119000Y-11493429D02*
X7347571Y-11493429D01*
X7233286Y-11607714D02*
X7233286Y-11379143D01*
X7847571Y-11407714D02*
X7847571Y-11607714D01*
X7776143Y-11293429D02*
X7704714Y-11507714D01*
X7890428Y-11507714D01*
X8219000Y-11593429D02*
X8247571Y-11607714D01*
X8304714Y-11607714D01*
X8333286Y-11593429D01*
X8347571Y-11564857D01*
X8347571Y-11550571D01*
X8333286Y-11522000D01*
X8304714Y-11507714D01*
X8261857Y-11507714D01*
X8233286Y-11493429D01*
X8219000Y-11464857D01*
X8219000Y-11450571D01*
X8233286Y-11422000D01*
X8261857Y-11407714D01*
X8304714Y-11407714D01*
X8333286Y-11422000D01*
X8519000Y-11607714D02*
X8490428Y-11593429D01*
X8476143Y-11564857D01*
X8476143Y-11307714D01*
X8676143Y-11607714D02*
X8647571Y-11593429D01*
X8633286Y-11579143D01*
X8619000Y-11550571D01*
X8619000Y-11464857D01*
X8633286Y-11436286D01*
X8647571Y-11422000D01*
X8676143Y-11407714D01*
X8719000Y-11407714D01*
X8747571Y-11422000D01*
X8761857Y-11436286D01*
X8776143Y-11464857D01*
X8776143Y-11550571D01*
X8761857Y-11579143D01*
X8747571Y-11593429D01*
X8719000Y-11607714D01*
X8676143Y-11607714D01*
X8861857Y-11407714D02*
X8976143Y-11407714D01*
X8904714Y-11307714D02*
X8904714Y-11564857D01*
X8919000Y-11593429D01*
X8947571Y-11607714D01*
X8976143Y-11607714D01*
X9061857Y-11593429D02*
X9090428Y-11607714D01*
X9147571Y-11607714D01*
X9176143Y-11593429D01*
X9190428Y-11564857D01*
X9190428Y-11550571D01*
X9176143Y-11522000D01*
X9147571Y-11507714D01*
X9104714Y-11507714D01*
X9076143Y-11493429D01*
X9061857Y-11464857D01*
X9061857Y-11450571D01*
X9076143Y-11422000D01*
X9104714Y-11407714D01*
X9147571Y-11407714D01*
X9176143Y-11422000D01*
X9290428Y-11722000D02*
X9304714Y-11707714D01*
X9333286Y-11664857D01*
X9347571Y-11636286D01*
X9361857Y-11593429D01*
X9376143Y-11522000D01*
X9376143Y-11464857D01*
X9361857Y-11393429D01*
X9347571Y-11350571D01*
X9333286Y-11322000D01*
X9304714Y-11279143D01*
X9290428Y-11264857D01*
X-245530Y-11818470D02*
X-245530Y-11917530D01*
X-295060Y-11868000D02*
X-196000Y-11868000D01*
X147571Y-11703714D02*
X176143Y-11703714D01*
X204714Y-11718000D01*
X219000Y-11732286D01*
X233286Y-11760857D01*
X247571Y-11818000D01*
X247571Y-11889429D01*
X233286Y-11946571D01*
X219000Y-11975143D01*
X204714Y-11989429D01*
X176143Y-12003714D01*
X147571Y-12003714D01*
X119000Y-11989429D01*
X104714Y-11975143D01*
X90428Y-11946571D01*
X76143Y-11889429D01*
X76143Y-11818000D01*
X90428Y-11760857D01*
X104714Y-11732286D01*
X119000Y-11718000D01*
X147571Y-11703714D01*
X376143Y-11975143D02*
X390428Y-11989429D01*
X376143Y-12003714D01*
X361857Y-11989429D01*
X376143Y-11975143D01*
X376143Y-12003714D01*
X533286Y-12003714D02*
X590428Y-12003714D01*
X619000Y-11989429D01*
X633286Y-11975143D01*
X661857Y-11932286D01*
X676143Y-11875143D01*
X676143Y-11760857D01*
X661857Y-11732286D01*
X647571Y-11718000D01*
X619000Y-11703714D01*
X561857Y-11703714D01*
X533286Y-11718000D01*
X519000Y-11732286D01*
X504714Y-11760857D01*
X504714Y-11832286D01*
X519000Y-11860857D01*
X533286Y-11875143D01*
X561857Y-11889429D01*
X619000Y-11889429D01*
X647571Y-11875143D01*
X661857Y-11860857D01*
X676143Y-11832286D01*
X819000Y-12003714D02*
X876143Y-12003714D01*
X904714Y-11989429D01*
X919000Y-11975143D01*
X947571Y-11932286D01*
X961857Y-11875143D01*
X961857Y-11760857D01*
X947571Y-11732286D01*
X933286Y-11718000D01*
X904714Y-11703714D01*
X847571Y-11703714D01*
X819000Y-11718000D01*
X804714Y-11732286D01*
X790428Y-11760857D01*
X790428Y-11832286D01*
X804714Y-11860857D01*
X819000Y-11875143D01*
X847571Y-11889429D01*
X904714Y-11889429D01*
X933286Y-11875143D01*
X947571Y-11860857D01*
X961857Y-11832286D01*
X1247571Y-12003714D02*
X1076143Y-12003714D01*
X1161857Y-12003714D02*
X1161857Y-11703714D01*
X1133286Y-11746571D01*
X1104714Y-11775143D01*
X1076143Y-11789429D01*
X1376143Y-12003714D02*
X1376143Y-11803714D01*
X1376143Y-11832286D02*
X1390428Y-11818000D01*
X1419000Y-11803714D01*
X1461857Y-11803714D01*
X1490428Y-11818000D01*
X1504714Y-11846571D01*
X1504714Y-12003714D01*
X1504714Y-11846571D02*
X1519000Y-11818000D01*
X1547571Y-11803714D01*
X1590428Y-11803714D01*
X1619000Y-11818000D01*
X1633286Y-11846571D01*
X1633286Y-12003714D01*
X1776143Y-12003714D02*
X1776143Y-11803714D01*
X1776143Y-11832286D02*
X1790428Y-11818000D01*
X1819000Y-11803714D01*
X1861857Y-11803714D01*
X1890428Y-11818000D01*
X1904714Y-11846571D01*
X1904714Y-12003714D01*
X1904714Y-11846571D02*
X1919000Y-11818000D01*
X1947571Y-11803714D01*
X1990428Y-11803714D01*
X2019000Y-11818000D01*
X2033286Y-11846571D01*
X2033286Y-12003714D01*
X2619000Y-11689429D02*
X2361857Y-12075143D01*
X3004714Y-11703714D02*
X3033286Y-11703714D01*
X3061857Y-11718000D01*
X3076143Y-11732286D01*
X3090428Y-11760857D01*
X3104714Y-11818000D01*
X3104714Y-11889429D01*
X3090428Y-11946571D01*
X3076143Y-11975143D01*
X3061857Y-11989429D01*
X3033286Y-12003714D01*
X3004714Y-12003714D01*
X2976143Y-11989429D01*
X2961857Y-11975143D01*
X2947571Y-11946571D01*
X2933286Y-11889429D01*
X2933286Y-11818000D01*
X2947571Y-11760857D01*
X2961857Y-11732286D01*
X2976143Y-11718000D01*
X3004714Y-11703714D01*
X3233286Y-11975143D02*
X3247571Y-11989429D01*
X3233286Y-12003714D01*
X3219000Y-11989429D01*
X3233286Y-11975143D01*
X3233286Y-12003714D01*
X3433286Y-11703714D02*
X3461857Y-11703714D01*
X3490428Y-11718000D01*
X3504714Y-11732286D01*
X3519000Y-11760857D01*
X3533286Y-11818000D01*
X3533286Y-11889429D01*
X3519000Y-11946571D01*
X3504714Y-11975143D01*
X3490428Y-11989429D01*
X3461857Y-12003714D01*
X3433286Y-12003714D01*
X3404714Y-11989429D01*
X3390428Y-11975143D01*
X3376143Y-11946571D01*
X3361857Y-11889429D01*
X3361857Y-11818000D01*
X3376143Y-11760857D01*
X3390428Y-11732286D01*
X3404714Y-11718000D01*
X3433286Y-11703714D01*
X3633286Y-11703714D02*
X3819000Y-11703714D01*
X3719000Y-11818000D01*
X3761857Y-11818000D01*
X3790428Y-11832286D01*
X3804714Y-11846571D01*
X3819000Y-11875143D01*
X3819000Y-11946571D01*
X3804714Y-11975143D01*
X3790428Y-11989429D01*
X3761857Y-12003714D01*
X3676143Y-12003714D01*
X3647571Y-11989429D01*
X3633286Y-11975143D01*
X3961857Y-12003714D02*
X4019000Y-12003714D01*
X4047571Y-11989429D01*
X4061857Y-11975143D01*
X4090428Y-11932286D01*
X4104714Y-11875143D01*
X4104714Y-11760857D01*
X4090428Y-11732286D01*
X4076143Y-11718000D01*
X4047571Y-11703714D01*
X3990428Y-11703714D01*
X3961857Y-11718000D01*
X3947571Y-11732286D01*
X3933286Y-11760857D01*
X3933286Y-11832286D01*
X3947571Y-11860857D01*
X3961857Y-11875143D01*
X3990428Y-11889429D01*
X4047571Y-11889429D01*
X4076143Y-11875143D01*
X4090428Y-11860857D01*
X4104714Y-11832286D01*
X4290428Y-11703714D02*
X4319000Y-11703714D01*
X4347571Y-11718000D01*
X4361857Y-11732286D01*
X4376143Y-11760857D01*
X4390428Y-11818000D01*
X4390428Y-11889429D01*
X4376143Y-11946571D01*
X4361857Y-11975143D01*
X4347571Y-11989429D01*
X4319000Y-12003714D01*
X4290428Y-12003714D01*
X4261857Y-11989429D01*
X4247571Y-11975143D01*
X4233286Y-11946571D01*
X4219000Y-11889429D01*
X4219000Y-11818000D01*
X4233286Y-11760857D01*
X4247571Y-11732286D01*
X4261857Y-11718000D01*
X4290428Y-11703714D01*
X4504714Y-11703714D02*
X4504714Y-11760857D01*
X4619000Y-11703714D02*
X4619000Y-11760857D01*
X5061857Y-12118000D02*
X5047571Y-12103714D01*
X5019000Y-12060857D01*
X5004714Y-12032286D01*
X4990428Y-11989429D01*
X4976143Y-11918000D01*
X4976143Y-11860857D01*
X4990428Y-11789429D01*
X5004714Y-11746571D01*
X5019000Y-11718000D01*
X5047571Y-11675143D01*
X5061857Y-11660857D01*
X5219000Y-11832286D02*
X5190428Y-11818000D01*
X5176143Y-11803714D01*
X5161857Y-11775143D01*
X5161857Y-11760857D01*
X5176143Y-11732286D01*
X5190428Y-11718000D01*
X5219000Y-11703714D01*
X5276143Y-11703714D01*
X5304714Y-11718000D01*
X5319000Y-11732286D01*
X5333286Y-11760857D01*
X5333286Y-11775143D01*
X5319000Y-11803714D01*
X5304714Y-11818000D01*
X5276143Y-11832286D01*
X5219000Y-11832286D01*
X5190428Y-11846571D01*
X5176143Y-11860857D01*
X5161857Y-11889429D01*
X5161857Y-11946571D01*
X5176143Y-11975143D01*
X5190428Y-11989429D01*
X5219000Y-12003714D01*
X5276143Y-12003714D01*
X5304714Y-11989429D01*
X5319000Y-11975143D01*
X5333286Y-11946571D01*
X5333286Y-11889429D01*
X5319000Y-11860857D01*
X5304714Y-11846571D01*
X5276143Y-11832286D01*
X5690428Y-12003714D02*
X5690428Y-11703714D01*
X5819000Y-12003714D02*
X5819000Y-11846571D01*
X5804714Y-11818000D01*
X5776143Y-11803714D01*
X5733286Y-11803714D01*
X5704714Y-11818000D01*
X5690428Y-11832286D01*
X6004714Y-12003714D02*
X5976143Y-11989429D01*
X5961857Y-11975143D01*
X5947571Y-11946571D01*
X5947571Y-11860857D01*
X5961857Y-11832286D01*
X5976143Y-11818000D01*
X6004714Y-11803714D01*
X6047571Y-11803714D01*
X6076143Y-11818000D01*
X6090428Y-11832286D01*
X6104714Y-11860857D01*
X6104714Y-11946571D01*
X6090428Y-11975143D01*
X6076143Y-11989429D01*
X6047571Y-12003714D01*
X6004714Y-12003714D01*
X6276143Y-12003714D02*
X6247571Y-11989429D01*
X6233286Y-11960857D01*
X6233286Y-11703714D01*
X6504714Y-11989429D02*
X6476143Y-12003714D01*
X6419000Y-12003714D01*
X6390428Y-11989429D01*
X6376143Y-11960857D01*
X6376143Y-11846571D01*
X6390428Y-11818000D01*
X6419000Y-11803714D01*
X6476143Y-11803714D01*
X6504714Y-11818000D01*
X6519000Y-11846571D01*
X6519000Y-11875143D01*
X6376143Y-11903714D01*
X6633286Y-11989429D02*
X6661857Y-12003714D01*
X6719000Y-12003714D01*
X6747571Y-11989429D01*
X6761857Y-11960857D01*
X6761857Y-11946571D01*
X6747571Y-11918000D01*
X6719000Y-11903714D01*
X6676143Y-11903714D01*
X6647571Y-11889429D01*
X6633286Y-11860857D01*
X6633286Y-11846571D01*
X6647571Y-11818000D01*
X6676143Y-11803714D01*
X6719000Y-11803714D01*
X6747571Y-11818000D01*
X6861857Y-12118000D02*
X6876143Y-12103714D01*
X6904714Y-12060857D01*
X6919000Y-12032286D01*
X6933286Y-11989429D01*
X6947571Y-11918000D01*
X6947571Y-11860857D01*
X6933286Y-11789429D01*
X6919000Y-11746571D01*
X6904714Y-11718000D01*
X6876143Y-11675143D01*
X6861857Y-11660857D01*
X-229849Y-12345721D02*
X-229849Y-12182279D01*
X-393291Y-12182279D01*
X-393291Y-12345721D01*
X-229849Y-12345721D01*
X76143Y-12128286D02*
X90428Y-12114000D01*
X119000Y-12099714D01*
X190428Y-12099714D01*
X219000Y-12114000D01*
X233286Y-12128286D01*
X247571Y-12156857D01*
X247571Y-12185429D01*
X233286Y-12228286D01*
X61857Y-12399714D01*
X247571Y-12399714D01*
X376143Y-12371143D02*
X390428Y-12385429D01*
X376143Y-12399714D01*
X361857Y-12385429D01*
X376143Y-12371143D01*
X376143Y-12399714D01*
X490428Y-12099714D02*
X676143Y-12099714D01*
X576143Y-12214000D01*
X619000Y-12214000D01*
X647571Y-12228286D01*
X661857Y-12242571D01*
X676143Y-12271143D01*
X676143Y-12342571D01*
X661857Y-12371143D01*
X647571Y-12385429D01*
X619000Y-12399714D01*
X533286Y-12399714D01*
X504714Y-12385429D01*
X490428Y-12371143D01*
X961857Y-12399714D02*
X790428Y-12399714D01*
X876143Y-12399714D02*
X876143Y-12099714D01*
X847571Y-12142571D01*
X819000Y-12171143D01*
X790428Y-12185429D01*
X1247571Y-12399714D02*
X1076143Y-12399714D01*
X1161857Y-12399714D02*
X1161857Y-12099714D01*
X1133286Y-12142571D01*
X1104714Y-12171143D01*
X1076143Y-12185429D01*
X1376143Y-12399714D02*
X1376143Y-12199714D01*
X1376143Y-12228286D02*
X1390428Y-12214000D01*
X1419000Y-12199714D01*
X1461857Y-12199714D01*
X1490428Y-12214000D01*
X1504714Y-12242571D01*
X1504714Y-12399714D01*
X1504714Y-12242571D02*
X1519000Y-12214000D01*
X1547571Y-12199714D01*
X1590428Y-12199714D01*
X1619000Y-12214000D01*
X1633286Y-12242571D01*
X1633286Y-12399714D01*
X1776143Y-12399714D02*
X1776143Y-12199714D01*
X1776143Y-12228286D02*
X1790428Y-12214000D01*
X1819000Y-12199714D01*
X1861857Y-12199714D01*
X1890428Y-12214000D01*
X1904714Y-12242571D01*
X1904714Y-12399714D01*
X1904714Y-12242571D02*
X1919000Y-12214000D01*
X1947571Y-12199714D01*
X1990428Y-12199714D01*
X2019000Y-12214000D01*
X2033286Y-12242571D01*
X2033286Y-12399714D01*
X2619000Y-12085429D02*
X2361857Y-12471143D01*
X3004714Y-12099714D02*
X3033286Y-12099714D01*
X3061857Y-12114000D01*
X3076143Y-12128286D01*
X3090428Y-12156857D01*
X3104714Y-12214000D01*
X3104714Y-12285429D01*
X3090428Y-12342571D01*
X3076143Y-12371143D01*
X3061857Y-12385429D01*
X3033286Y-12399714D01*
X3004714Y-12399714D01*
X2976143Y-12385429D01*
X2961857Y-12371143D01*
X2947571Y-12342571D01*
X2933286Y-12285429D01*
X2933286Y-12214000D01*
X2947571Y-12156857D01*
X2961857Y-12128286D01*
X2976143Y-12114000D01*
X3004714Y-12099714D01*
X3233286Y-12371143D02*
X3247571Y-12385429D01*
X3233286Y-12399714D01*
X3219000Y-12385429D01*
X3233286Y-12371143D01*
X3233286Y-12399714D01*
X3433286Y-12099714D02*
X3461857Y-12099714D01*
X3490428Y-12114000D01*
X3504714Y-12128286D01*
X3519000Y-12156857D01*
X3533286Y-12214000D01*
X3533286Y-12285429D01*
X3519000Y-12342571D01*
X3504714Y-12371143D01*
X3490428Y-12385429D01*
X3461857Y-12399714D01*
X3433286Y-12399714D01*
X3404714Y-12385429D01*
X3390428Y-12371143D01*
X3376143Y-12342571D01*
X3361857Y-12285429D01*
X3361857Y-12214000D01*
X3376143Y-12156857D01*
X3390428Y-12128286D01*
X3404714Y-12114000D01*
X3433286Y-12099714D01*
X3676143Y-12399714D02*
X3733286Y-12399714D01*
X3761857Y-12385429D01*
X3776143Y-12371143D01*
X3804714Y-12328286D01*
X3819000Y-12271143D01*
X3819000Y-12156857D01*
X3804714Y-12128286D01*
X3790428Y-12114000D01*
X3761857Y-12099714D01*
X3704714Y-12099714D01*
X3676143Y-12114000D01*
X3661857Y-12128286D01*
X3647571Y-12156857D01*
X3647571Y-12228286D01*
X3661857Y-12256857D01*
X3676143Y-12271143D01*
X3704714Y-12285429D01*
X3761857Y-12285429D01*
X3790428Y-12271143D01*
X3804714Y-12256857D01*
X3819000Y-12228286D01*
X4104714Y-12399714D02*
X3933286Y-12399714D01*
X4019000Y-12399714D02*
X4019000Y-12099714D01*
X3990428Y-12142571D01*
X3961857Y-12171143D01*
X3933286Y-12185429D01*
X4290428Y-12099714D02*
X4319000Y-12099714D01*
X4347571Y-12114000D01*
X4361857Y-12128286D01*
X4376143Y-12156857D01*
X4390428Y-12214000D01*
X4390428Y-12285429D01*
X4376143Y-12342571D01*
X4361857Y-12371143D01*
X4347571Y-12385429D01*
X4319000Y-12399714D01*
X4290428Y-12399714D01*
X4261857Y-12385429D01*
X4247571Y-12371143D01*
X4233286Y-12342571D01*
X4219000Y-12285429D01*
X4219000Y-12214000D01*
X4233286Y-12156857D01*
X4247571Y-12128286D01*
X4261857Y-12114000D01*
X4290428Y-12099714D01*
X4504714Y-12099714D02*
X4504714Y-12156857D01*
X4619000Y-12099714D02*
X4619000Y-12156857D01*
X5061857Y-12514000D02*
X5047571Y-12499714D01*
X5019000Y-12456857D01*
X5004714Y-12428286D01*
X4990428Y-12385429D01*
X4976143Y-12314000D01*
X4976143Y-12256857D01*
X4990428Y-12185429D01*
X5004714Y-12142571D01*
X5019000Y-12114000D01*
X5047571Y-12071143D01*
X5061857Y-12056857D01*
X5304714Y-12199714D02*
X5304714Y-12399714D01*
X5233286Y-12085429D02*
X5161857Y-12299714D01*
X5347571Y-12299714D01*
X5690428Y-12399714D02*
X5690428Y-12099714D01*
X5819000Y-12399714D02*
X5819000Y-12242571D01*
X5804714Y-12214000D01*
X5776143Y-12199714D01*
X5733286Y-12199714D01*
X5704714Y-12214000D01*
X5690428Y-12228286D01*
X6004714Y-12399714D02*
X5976143Y-12385429D01*
X5961857Y-12371143D01*
X5947571Y-12342571D01*
X5947571Y-12256857D01*
X5961857Y-12228286D01*
X5976143Y-12214000D01*
X6004714Y-12199714D01*
X6047571Y-12199714D01*
X6076143Y-12214000D01*
X6090428Y-12228286D01*
X6104714Y-12256857D01*
X6104714Y-12342571D01*
X6090428Y-12371143D01*
X6076143Y-12385429D01*
X6047571Y-12399714D01*
X6004714Y-12399714D01*
X6276143Y-12399714D02*
X6247571Y-12385429D01*
X6233286Y-12356857D01*
X6233286Y-12099714D01*
X6504714Y-12385429D02*
X6476143Y-12399714D01*
X6419000Y-12399714D01*
X6390428Y-12385429D01*
X6376143Y-12356857D01*
X6376143Y-12242571D01*
X6390428Y-12214000D01*
X6419000Y-12199714D01*
X6476143Y-12199714D01*
X6504714Y-12214000D01*
X6519000Y-12242571D01*
X6519000Y-12271143D01*
X6376143Y-12299714D01*
X6633286Y-12385429D02*
X6661857Y-12399714D01*
X6719000Y-12399714D01*
X6747571Y-12385429D01*
X6761857Y-12356857D01*
X6761857Y-12342571D01*
X6747571Y-12314000D01*
X6719000Y-12299714D01*
X6676143Y-12299714D01*
X6647571Y-12285429D01*
X6633286Y-12256857D01*
X6633286Y-12242571D01*
X6647571Y-12214000D01*
X6676143Y-12199714D01*
X6719000Y-12199714D01*
X6747571Y-12214000D01*
X6861857Y-12514000D02*
X6876143Y-12499714D01*
X6904714Y-12456857D01*
X6919000Y-12428286D01*
X6933286Y-12385429D01*
X6947571Y-12314000D01*
X6947571Y-12256857D01*
X6933286Y-12185429D01*
X6919000Y-12142571D01*
X6904714Y-12114000D01*
X6876143Y-12071143D01*
X6861857Y-12056857D01*
X-331000Y-12795000D02*
X-196000Y-12660000D01*
X-331000Y-12525000D01*
X-466000Y-12660000D01*
X-331000Y-12795000D01*
X76143Y-12524286D02*
X90428Y-12510000D01*
X119000Y-12495714D01*
X190428Y-12495714D01*
X219000Y-12510000D01*
X233286Y-12524286D01*
X247571Y-12552857D01*
X247571Y-12581429D01*
X233286Y-12624286D01*
X61857Y-12795714D01*
X247571Y-12795714D01*
X376143Y-12767143D02*
X390428Y-12781429D01*
X376143Y-12795714D01*
X361857Y-12781429D01*
X376143Y-12767143D01*
X376143Y-12795714D01*
X490428Y-12495714D02*
X690428Y-12495714D01*
X561857Y-12795714D01*
X861857Y-12495714D02*
X890428Y-12495714D01*
X919000Y-12510000D01*
X933286Y-12524286D01*
X947571Y-12552857D01*
X961857Y-12610000D01*
X961857Y-12681429D01*
X947571Y-12738571D01*
X933286Y-12767143D01*
X919000Y-12781429D01*
X890428Y-12795714D01*
X861857Y-12795714D01*
X833286Y-12781429D01*
X819000Y-12767143D01*
X804714Y-12738571D01*
X790428Y-12681429D01*
X790428Y-12610000D01*
X804714Y-12552857D01*
X819000Y-12524286D01*
X833286Y-12510000D01*
X861857Y-12495714D01*
X1147571Y-12495714D02*
X1176143Y-12495714D01*
X1204714Y-12510000D01*
X1219000Y-12524286D01*
X1233286Y-12552857D01*
X1247571Y-12610000D01*
X1247571Y-12681429D01*
X1233286Y-12738571D01*
X1219000Y-12767143D01*
X1204714Y-12781429D01*
X1176143Y-12795714D01*
X1147571Y-12795714D01*
X1119000Y-12781429D01*
X1104714Y-12767143D01*
X1090428Y-12738571D01*
X1076143Y-12681429D01*
X1076143Y-12610000D01*
X1090428Y-12552857D01*
X1104714Y-12524286D01*
X1119000Y-12510000D01*
X1147571Y-12495714D01*
X1376143Y-12795714D02*
X1376143Y-12595714D01*
X1376143Y-12624286D02*
X1390428Y-12610000D01*
X1419000Y-12595714D01*
X1461857Y-12595714D01*
X1490428Y-12610000D01*
X1504714Y-12638571D01*
X1504714Y-12795714D01*
X1504714Y-12638571D02*
X1519000Y-12610000D01*
X1547571Y-12595714D01*
X1590428Y-12595714D01*
X1619000Y-12610000D01*
X1633286Y-12638571D01*
X1633286Y-12795714D01*
X1776143Y-12795714D02*
X1776143Y-12595714D01*
X1776143Y-12624286D02*
X1790428Y-12610000D01*
X1819000Y-12595714D01*
X1861857Y-12595714D01*
X1890428Y-12610000D01*
X1904714Y-12638571D01*
X1904714Y-12795714D01*
X1904714Y-12638571D02*
X1919000Y-12610000D01*
X1947571Y-12595714D01*
X1990428Y-12595714D01*
X2019000Y-12610000D01*
X2033286Y-12638571D01*
X2033286Y-12795714D01*
X2619000Y-12481429D02*
X2361857Y-12867143D01*
X3004714Y-12495714D02*
X3033286Y-12495714D01*
X3061857Y-12510000D01*
X3076143Y-12524286D01*
X3090428Y-12552857D01*
X3104714Y-12610000D01*
X3104714Y-12681429D01*
X3090428Y-12738571D01*
X3076143Y-12767143D01*
X3061857Y-12781429D01*
X3033286Y-12795714D01*
X3004714Y-12795714D01*
X2976143Y-12781429D01*
X2961857Y-12767143D01*
X2947571Y-12738571D01*
X2933286Y-12681429D01*
X2933286Y-12610000D01*
X2947571Y-12552857D01*
X2961857Y-12524286D01*
X2976143Y-12510000D01*
X3004714Y-12495714D01*
X3233286Y-12767143D02*
X3247571Y-12781429D01*
X3233286Y-12795714D01*
X3219000Y-12781429D01*
X3233286Y-12767143D01*
X3233286Y-12795714D01*
X3533286Y-12795714D02*
X3361857Y-12795714D01*
X3447571Y-12795714D02*
X3447571Y-12495714D01*
X3419000Y-12538571D01*
X3390428Y-12567143D01*
X3361857Y-12581429D01*
X3719000Y-12495714D02*
X3747571Y-12495714D01*
X3776143Y-12510000D01*
X3790428Y-12524286D01*
X3804714Y-12552857D01*
X3819000Y-12610000D01*
X3819000Y-12681429D01*
X3804714Y-12738571D01*
X3790428Y-12767143D01*
X3776143Y-12781429D01*
X3747571Y-12795714D01*
X3719000Y-12795714D01*
X3690428Y-12781429D01*
X3676143Y-12767143D01*
X3661857Y-12738571D01*
X3647571Y-12681429D01*
X3647571Y-12610000D01*
X3661857Y-12552857D01*
X3676143Y-12524286D01*
X3690428Y-12510000D01*
X3719000Y-12495714D01*
X4076143Y-12495714D02*
X4019000Y-12495714D01*
X3990428Y-12510000D01*
X3976143Y-12524286D01*
X3947571Y-12567143D01*
X3933286Y-12624286D01*
X3933286Y-12738571D01*
X3947571Y-12767143D01*
X3961857Y-12781429D01*
X3990428Y-12795714D01*
X4047571Y-12795714D01*
X4076143Y-12781429D01*
X4090428Y-12767143D01*
X4104714Y-12738571D01*
X4104714Y-12667143D01*
X4090428Y-12638571D01*
X4076143Y-12624286D01*
X4047571Y-12610000D01*
X3990428Y-12610000D01*
X3961857Y-12624286D01*
X3947571Y-12638571D01*
X3933286Y-12667143D01*
X4204714Y-12495714D02*
X4390428Y-12495714D01*
X4290428Y-12610000D01*
X4333286Y-12610000D01*
X4361857Y-12624286D01*
X4376143Y-12638571D01*
X4390428Y-12667143D01*
X4390428Y-12738571D01*
X4376143Y-12767143D01*
X4361857Y-12781429D01*
X4333286Y-12795714D01*
X4247571Y-12795714D01*
X4219000Y-12781429D01*
X4204714Y-12767143D01*
X4504714Y-12495714D02*
X4504714Y-12552857D01*
X4619000Y-12495714D02*
X4619000Y-12552857D01*
X5061857Y-12910000D02*
X5047571Y-12895714D01*
X5019000Y-12852857D01*
X5004714Y-12824286D01*
X4990428Y-12781429D01*
X4976143Y-12710000D01*
X4976143Y-12652857D01*
X4990428Y-12581429D01*
X5004714Y-12538571D01*
X5019000Y-12510000D01*
X5047571Y-12467143D01*
X5061857Y-12452857D01*
X5333286Y-12795714D02*
X5161857Y-12795714D01*
X5247571Y-12795714D02*
X5247571Y-12495714D01*
X5219000Y-12538571D01*
X5190428Y-12567143D01*
X5161857Y-12581429D01*
X5604714Y-12495714D02*
X5461857Y-12495714D01*
X5447571Y-12638571D01*
X5461857Y-12624286D01*
X5490428Y-12610000D01*
X5561857Y-12610000D01*
X5590428Y-12624286D01*
X5604714Y-12638571D01*
X5619000Y-12667143D01*
X5619000Y-12738571D01*
X5604714Y-12767143D01*
X5590428Y-12781429D01*
X5561857Y-12795714D01*
X5490428Y-12795714D01*
X5461857Y-12781429D01*
X5447571Y-12767143D01*
X5976143Y-12795714D02*
X5976143Y-12495714D01*
X6104714Y-12795714D02*
X6104714Y-12638571D01*
X6090428Y-12610000D01*
X6061857Y-12595714D01*
X6019000Y-12595714D01*
X5990428Y-12610000D01*
X5976143Y-12624286D01*
X6290428Y-12795714D02*
X6261857Y-12781429D01*
X6247571Y-12767143D01*
X6233286Y-12738571D01*
X6233286Y-12652857D01*
X6247571Y-12624286D01*
X6261857Y-12610000D01*
X6290428Y-12595714D01*
X6333286Y-12595714D01*
X6361857Y-12610000D01*
X6376143Y-12624286D01*
X6390428Y-12652857D01*
X6390428Y-12738571D01*
X6376143Y-12767143D01*
X6361857Y-12781429D01*
X6333286Y-12795714D01*
X6290428Y-12795714D01*
X6561857Y-12795714D02*
X6533286Y-12781429D01*
X6519000Y-12752857D01*
X6519000Y-12495714D01*
X6790428Y-12781429D02*
X6761857Y-12795714D01*
X6704714Y-12795714D01*
X6676143Y-12781429D01*
X6661857Y-12752857D01*
X6661857Y-12638571D01*
X6676143Y-12610000D01*
X6704714Y-12595714D01*
X6761857Y-12595714D01*
X6790428Y-12610000D01*
X6804714Y-12638571D01*
X6804714Y-12667143D01*
X6661857Y-12695714D01*
X6919000Y-12781429D02*
X6947571Y-12795714D01*
X7004714Y-12795714D01*
X7033286Y-12781429D01*
X7047571Y-12752857D01*
X7047571Y-12738571D01*
X7033286Y-12710000D01*
X7004714Y-12695714D01*
X6961857Y-12695714D01*
X6933286Y-12681429D01*
X6919000Y-12652857D01*
X6919000Y-12638571D01*
X6933286Y-12610000D01*
X6961857Y-12595714D01*
X7004714Y-12595714D01*
X7033286Y-12610000D01*
X7147571Y-12910000D02*
X7161857Y-12895714D01*
X7190428Y-12852857D01*
X7204714Y-12824286D01*
X7219000Y-12781429D01*
X7233286Y-12710000D01*
X7233286Y-12652857D01*
X7219000Y-12581429D01*
X7204714Y-12538571D01*
X7190428Y-12510000D01*
X7161857Y-12467143D01*
X7147571Y-12452857D01*
M02*
