G04 #@! TF.GenerationSoftware,KiCad,Pcbnew,(5.1.8)-1*
G04 #@! TF.CreationDate,2021-04-06T16:32:38+02:00*
G04 #@! TF.ProjectId,Keyboard_80_with_USB_HUB_V3,4b657962-6f61-4726-945f-3830255f7769,rev?*
G04 #@! TF.SameCoordinates,Original*
G04 #@! TF.FileFunction,Paste,Bot*
G04 #@! TF.FilePolarity,Positive*
%FSLAX46Y46*%
G04 Gerber Fmt 4.6, Leading zero omitted, Abs format (unit mm)*
G04 Created by KiCad (PCBNEW (5.1.8)-1) date 2021-04-06 16:32:38*
%MOMM*%
%LPD*%
G01*
G04 APERTURE LIST*
%ADD10C,0.152400*%
%ADD11R,7.600000X7.600000*%
%ADD12R,0.249200X0.854800*%
%ADD13R,0.854800X0.249200*%
%ADD14R,0.600000X0.700000*%
%ADD15R,0.700000X0.600000*%
%ADD16R,0.700000X1.000000*%
%ADD17R,3.860800X3.860800*%
%ADD18R,0.254000X1.066800*%
%ADD19R,1.066800X0.254000*%
%ADD20R,1.800000X0.820000*%
%ADD21R,1.003300X0.508000*%
%ADD22C,0.100000*%
%ADD23R,0.800000X0.655600*%
%ADD24R,0.655600X0.800000*%
%ADD25R,1.168400X0.431800*%
%ADD26R,1.168400X0.838200*%
%ADD27R,0.431800X1.168400*%
%ADD28R,0.838200X1.168400*%
%ADD29R,1.300000X1.100000*%
%ADD30R,2.641600X1.600200*%
%ADD31R,0.533400X1.460500*%
%ADD32R,1.000000X2.000000*%
%ADD33R,0.270000X1.000000*%
%ADD34R,0.520000X1.000000*%
%ADD35R,2.550000X2.500000*%
%ADD36R,2.400000X0.740000*%
%ADD37C,0.750000*%
G04 APERTURE END LIST*
D10*
X304700000Y-62800000D02*
X304700000Y-64120000D01*
X304700000Y-64120000D02*
X303380000Y-64120000D01*
X303380000Y-64120000D02*
X303380000Y-62800000D01*
X303380000Y-62800000D02*
X304700000Y-62800000D01*
X304700000Y-64320000D02*
X304700000Y-65640000D01*
X304700000Y-65640000D02*
X303380000Y-65640000D01*
X303380000Y-65640000D02*
X303380000Y-64320000D01*
X303380000Y-64320000D02*
X304700000Y-64320000D01*
X304700000Y-65840000D02*
X304700000Y-67160000D01*
X304700000Y-67160000D02*
X303380000Y-67160000D01*
X303380000Y-67160000D02*
X303380000Y-65840000D01*
X303380000Y-65840000D02*
X304700000Y-65840000D01*
X304700000Y-67360000D02*
X304700000Y-68680000D01*
X304700000Y-68680000D02*
X303380000Y-68680000D01*
X303380000Y-68680000D02*
X303380000Y-67360000D01*
X303380000Y-67360000D02*
X304700000Y-67360000D01*
X304700000Y-68880000D02*
X304700000Y-70200000D01*
X304700000Y-70200000D02*
X303380000Y-70200000D01*
X303380000Y-70200000D02*
X303380000Y-68880000D01*
X303380000Y-68880000D02*
X304700000Y-68880000D01*
X303180000Y-62800000D02*
X303180000Y-64120000D01*
X303180000Y-64120000D02*
X301860000Y-64120000D01*
X301860000Y-64120000D02*
X301860000Y-62800000D01*
X301860000Y-62800000D02*
X303180000Y-62800000D01*
X303180000Y-64320000D02*
X303180000Y-65640000D01*
X303180000Y-65640000D02*
X301860000Y-65640000D01*
X301860000Y-65640000D02*
X301860000Y-64320000D01*
X301860000Y-64320000D02*
X303180000Y-64320000D01*
X303180000Y-65840000D02*
X303180000Y-67160000D01*
X303180000Y-67160000D02*
X301860000Y-67160000D01*
X301860000Y-67160000D02*
X301860000Y-65840000D01*
X301860000Y-65840000D02*
X303180000Y-65840000D01*
X303180000Y-67360000D02*
X303180000Y-68680000D01*
X303180000Y-68680000D02*
X301860000Y-68680000D01*
X301860000Y-68680000D02*
X301860000Y-67360000D01*
X301860000Y-67360000D02*
X303180000Y-67360000D01*
X303180000Y-68880000D02*
X303180000Y-70200000D01*
X303180000Y-70200000D02*
X301860000Y-70200000D01*
X301860000Y-70200000D02*
X301860000Y-68880000D01*
X301860000Y-68880000D02*
X303180000Y-68880000D01*
X301660000Y-62800000D02*
X301660000Y-64120000D01*
X301660000Y-64120000D02*
X300340000Y-64120000D01*
X300340000Y-64120000D02*
X300340000Y-62800000D01*
X300340000Y-62800000D02*
X301660000Y-62800000D01*
X301660000Y-64320000D02*
X301660000Y-65640000D01*
X301660000Y-65640000D02*
X300340000Y-65640000D01*
X300340000Y-65640000D02*
X300340000Y-64320000D01*
X300340000Y-64320000D02*
X301660000Y-64320000D01*
X301660000Y-65840000D02*
X301660000Y-67160000D01*
X301660000Y-67160000D02*
X300340000Y-67160000D01*
X300340000Y-67160000D02*
X300340000Y-65840000D01*
X300340000Y-65840000D02*
X301660000Y-65840000D01*
X301660000Y-67360000D02*
X301660000Y-68680000D01*
X301660000Y-68680000D02*
X300340000Y-68680000D01*
X300340000Y-68680000D02*
X300340000Y-67360000D01*
X300340000Y-67360000D02*
X301660000Y-67360000D01*
X301660000Y-68880000D02*
X301660000Y-70200000D01*
X301660000Y-70200000D02*
X300340000Y-70200000D01*
X300340000Y-70200000D02*
X300340000Y-68880000D01*
X300340000Y-68880000D02*
X301660000Y-68880000D01*
X300140000Y-62800000D02*
X300140000Y-64120000D01*
X300140000Y-64120000D02*
X298820000Y-64120000D01*
X298820000Y-64120000D02*
X298820000Y-62800000D01*
X298820000Y-62800000D02*
X300140000Y-62800000D01*
X300140000Y-64320000D02*
X300140000Y-65640000D01*
X300140000Y-65640000D02*
X298820000Y-65640000D01*
X298820000Y-65640000D02*
X298820000Y-64320000D01*
X298820000Y-64320000D02*
X300140000Y-64320000D01*
X300140000Y-65840000D02*
X300140000Y-67160000D01*
X300140000Y-67160000D02*
X298820000Y-67160000D01*
X298820000Y-67160000D02*
X298820000Y-65840000D01*
X298820000Y-65840000D02*
X300140000Y-65840000D01*
X300140000Y-67360000D02*
X300140000Y-68680000D01*
X300140000Y-68680000D02*
X298820000Y-68680000D01*
X298820000Y-68680000D02*
X298820000Y-67360000D01*
X298820000Y-67360000D02*
X300140000Y-67360000D01*
X300140000Y-68880000D02*
X300140000Y-70200000D01*
X300140000Y-70200000D02*
X298820000Y-70200000D01*
X298820000Y-70200000D02*
X298820000Y-68880000D01*
X298820000Y-68880000D02*
X300140000Y-68880000D01*
X298620000Y-62800000D02*
X298620000Y-64120000D01*
X298620000Y-64120000D02*
X297300000Y-64120000D01*
X297300000Y-64120000D02*
X297300000Y-62800000D01*
X297300000Y-62800000D02*
X298620000Y-62800000D01*
X298620000Y-64320000D02*
X298620000Y-65640000D01*
X298620000Y-65640000D02*
X297300000Y-65640000D01*
X297300000Y-65640000D02*
X297300000Y-64320000D01*
X297300000Y-64320000D02*
X298620000Y-64320000D01*
X298620000Y-65840000D02*
X298620000Y-67160000D01*
X298620000Y-67160000D02*
X297300000Y-67160000D01*
X297300000Y-67160000D02*
X297300000Y-65840000D01*
X297300000Y-65840000D02*
X298620000Y-65840000D01*
X298620000Y-67360000D02*
X298620000Y-68680000D01*
X298620000Y-68680000D02*
X297300000Y-68680000D01*
X297300000Y-68680000D02*
X297300000Y-67360000D01*
X297300000Y-67360000D02*
X298620000Y-67360000D01*
X298620000Y-68880000D02*
X298620000Y-70200000D01*
X298620000Y-70200000D02*
X297300000Y-70200000D01*
X297300000Y-70200000D02*
X297300000Y-68880000D01*
X297300000Y-68880000D02*
X298620000Y-68880000D01*
X305144530Y-16355470D02*
X305144530Y-15781100D01*
X305144530Y-15781100D02*
X305577479Y-15781100D01*
X305577479Y-15781100D02*
X305577479Y-15781100D01*
X305577479Y-15781100D02*
X305718900Y-15922521D01*
X305718900Y-15922521D02*
X305718900Y-15922521D01*
X305718900Y-15922521D02*
X305718900Y-16355470D01*
X305718900Y-16355470D02*
X305144530Y-16355470D01*
X305144530Y-15581100D02*
X305144530Y-14993700D01*
X305144530Y-14993700D02*
X305577479Y-14993700D01*
X305577479Y-14993700D02*
X305577479Y-14993700D01*
X305577479Y-14993700D02*
X305718900Y-15135121D01*
X305718900Y-15135121D02*
X305718900Y-15135121D01*
X305718900Y-15135121D02*
X305718900Y-15439679D01*
X305718900Y-15439679D02*
X305718900Y-15439679D01*
X305718900Y-15439679D02*
X305577479Y-15581100D01*
X305577479Y-15581100D02*
X305577479Y-15581100D01*
X305577479Y-15581100D02*
X305144530Y-15581100D01*
X305144530Y-14793700D02*
X305144530Y-14206300D01*
X305144530Y-14206300D02*
X305577479Y-14206300D01*
X305577479Y-14206300D02*
X305577479Y-14206300D01*
X305577479Y-14206300D02*
X305718900Y-14347721D01*
X305718900Y-14347721D02*
X305718900Y-14347721D01*
X305718900Y-14347721D02*
X305718900Y-14652279D01*
X305718900Y-14652279D02*
X305718900Y-14652279D01*
X305718900Y-14652279D02*
X305577479Y-14793700D01*
X305577479Y-14793700D02*
X305577479Y-14793700D01*
X305577479Y-14793700D02*
X305144530Y-14793700D01*
X305144530Y-14006300D02*
X305144530Y-13418900D01*
X305144530Y-13418900D02*
X305577479Y-13418900D01*
X305577479Y-13418900D02*
X305577479Y-13418900D01*
X305577479Y-13418900D02*
X305718900Y-13560321D01*
X305718900Y-13560321D02*
X305718900Y-13560321D01*
X305718900Y-13560321D02*
X305718900Y-13864879D01*
X305718900Y-13864879D02*
X305718900Y-13864879D01*
X305718900Y-13864879D02*
X305577479Y-14006300D01*
X305577479Y-14006300D02*
X305577479Y-14006300D01*
X305577479Y-14006300D02*
X305144530Y-14006300D01*
X305144530Y-13218900D02*
X305144530Y-12644530D01*
X305144530Y-12644530D02*
X305718900Y-12644530D01*
X305718900Y-12644530D02*
X305718900Y-13077479D01*
X305718900Y-13077479D02*
X305718900Y-13077479D01*
X305718900Y-13077479D02*
X305577479Y-13218900D01*
X305577479Y-13218900D02*
X305577479Y-13218900D01*
X305577479Y-13218900D02*
X305144530Y-13218900D01*
X305918900Y-16355470D02*
X305918900Y-15922521D01*
X305918900Y-15922521D02*
X305918900Y-15922521D01*
X305918900Y-15922521D02*
X306060321Y-15781100D01*
X306060321Y-15781100D02*
X306060321Y-15781100D01*
X306060321Y-15781100D02*
X306364879Y-15781100D01*
X306364879Y-15781100D02*
X306364879Y-15781100D01*
X306364879Y-15781100D02*
X306506300Y-15922521D01*
X306506300Y-15922521D02*
X306506300Y-15922521D01*
X306506300Y-15922521D02*
X306506300Y-16355470D01*
X306506300Y-16355470D02*
X305918900Y-16355470D01*
X306060321Y-15581100D02*
X306060321Y-15581100D01*
X306060321Y-15581100D02*
X305918900Y-15439679D01*
X305918900Y-15439679D02*
X305918900Y-15439679D01*
X305918900Y-15439679D02*
X305918900Y-15135121D01*
X305918900Y-15135121D02*
X305918900Y-15135121D01*
X305918900Y-15135121D02*
X306060321Y-14993700D01*
X306060321Y-14993700D02*
X306060321Y-14993700D01*
X306060321Y-14993700D02*
X306364879Y-14993700D01*
X306364879Y-14993700D02*
X306364879Y-14993700D01*
X306364879Y-14993700D02*
X306506300Y-15135121D01*
X306506300Y-15135121D02*
X306506300Y-15135121D01*
X306506300Y-15135121D02*
X306506300Y-15439679D01*
X306506300Y-15439679D02*
X306506300Y-15439679D01*
X306506300Y-15439679D02*
X306364879Y-15581100D01*
X306364879Y-15581100D02*
X306364879Y-15581100D01*
X306364879Y-15581100D02*
X306060321Y-15581100D01*
X306060321Y-14793700D02*
X306060321Y-14793700D01*
X306060321Y-14793700D02*
X305918900Y-14652279D01*
X305918900Y-14652279D02*
X305918900Y-14652279D01*
X305918900Y-14652279D02*
X305918900Y-14347721D01*
X305918900Y-14347721D02*
X305918900Y-14347721D01*
X305918900Y-14347721D02*
X306060321Y-14206300D01*
X306060321Y-14206300D02*
X306060321Y-14206300D01*
X306060321Y-14206300D02*
X306364879Y-14206300D01*
X306364879Y-14206300D02*
X306364879Y-14206300D01*
X306364879Y-14206300D02*
X306506300Y-14347721D01*
X306506300Y-14347721D02*
X306506300Y-14347721D01*
X306506300Y-14347721D02*
X306506300Y-14652279D01*
X306506300Y-14652279D02*
X306506300Y-14652279D01*
X306506300Y-14652279D02*
X306364879Y-14793700D01*
X306364879Y-14793700D02*
X306364879Y-14793700D01*
X306364879Y-14793700D02*
X306060321Y-14793700D01*
X306060321Y-14006300D02*
X306060321Y-14006300D01*
X306060321Y-14006300D02*
X305918900Y-13864879D01*
X305918900Y-13864879D02*
X305918900Y-13864879D01*
X305918900Y-13864879D02*
X305918900Y-13560321D01*
X305918900Y-13560321D02*
X305918900Y-13560321D01*
X305918900Y-13560321D02*
X306060321Y-13418900D01*
X306060321Y-13418900D02*
X306060321Y-13418900D01*
X306060321Y-13418900D02*
X306364879Y-13418900D01*
X306364879Y-13418900D02*
X306364879Y-13418900D01*
X306364879Y-13418900D02*
X306506300Y-13560321D01*
X306506300Y-13560321D02*
X306506300Y-13560321D01*
X306506300Y-13560321D02*
X306506300Y-13864879D01*
X306506300Y-13864879D02*
X306506300Y-13864879D01*
X306506300Y-13864879D02*
X306364879Y-14006300D01*
X306364879Y-14006300D02*
X306364879Y-14006300D01*
X306364879Y-14006300D02*
X306060321Y-14006300D01*
X306060321Y-13218900D02*
X306060321Y-13218900D01*
X306060321Y-13218900D02*
X305918900Y-13077479D01*
X305918900Y-13077479D02*
X305918900Y-13077479D01*
X305918900Y-13077479D02*
X305918900Y-12644530D01*
X305918900Y-12644530D02*
X306506300Y-12644530D01*
X306506300Y-12644530D02*
X306506300Y-13077479D01*
X306506300Y-13077479D02*
X306506300Y-13077479D01*
X306506300Y-13077479D02*
X306364879Y-13218900D01*
X306364879Y-13218900D02*
X306364879Y-13218900D01*
X306364879Y-13218900D02*
X306060321Y-13218900D01*
X306706300Y-16355470D02*
X306706300Y-15922521D01*
X306706300Y-15922521D02*
X306706300Y-15922521D01*
X306706300Y-15922521D02*
X306847721Y-15781100D01*
X306847721Y-15781100D02*
X306847721Y-15781100D01*
X306847721Y-15781100D02*
X307152279Y-15781100D01*
X307152279Y-15781100D02*
X307152279Y-15781100D01*
X307152279Y-15781100D02*
X307293700Y-15922521D01*
X307293700Y-15922521D02*
X307293700Y-15922521D01*
X307293700Y-15922521D02*
X307293700Y-16355470D01*
X307293700Y-16355470D02*
X306706300Y-16355470D01*
X306847721Y-15581100D02*
X306847721Y-15581100D01*
X306847721Y-15581100D02*
X306706300Y-15439679D01*
X306706300Y-15439679D02*
X306706300Y-15439679D01*
X306706300Y-15439679D02*
X306706300Y-15135121D01*
X306706300Y-15135121D02*
X306706300Y-15135121D01*
X306706300Y-15135121D02*
X306847721Y-14993700D01*
X306847721Y-14993700D02*
X306847721Y-14993700D01*
X306847721Y-14993700D02*
X307152279Y-14993700D01*
X307152279Y-14993700D02*
X307152279Y-14993700D01*
X307152279Y-14993700D02*
X307293700Y-15135121D01*
X307293700Y-15135121D02*
X307293700Y-15135121D01*
X307293700Y-15135121D02*
X307293700Y-15439679D01*
X307293700Y-15439679D02*
X307293700Y-15439679D01*
X307293700Y-15439679D02*
X307152279Y-15581100D01*
X307152279Y-15581100D02*
X307152279Y-15581100D01*
X307152279Y-15581100D02*
X306847721Y-15581100D01*
X306847721Y-14793700D02*
X306847721Y-14793700D01*
X306847721Y-14793700D02*
X306706300Y-14652279D01*
X306706300Y-14652279D02*
X306706300Y-14652279D01*
X306706300Y-14652279D02*
X306706300Y-14347721D01*
X306706300Y-14347721D02*
X306706300Y-14347721D01*
X306706300Y-14347721D02*
X306847721Y-14206300D01*
X306847721Y-14206300D02*
X306847721Y-14206300D01*
X306847721Y-14206300D02*
X307152279Y-14206300D01*
X307152279Y-14206300D02*
X307152279Y-14206300D01*
X307152279Y-14206300D02*
X307293700Y-14347721D01*
X307293700Y-14347721D02*
X307293700Y-14347721D01*
X307293700Y-14347721D02*
X307293700Y-14652279D01*
X307293700Y-14652279D02*
X307293700Y-14652279D01*
X307293700Y-14652279D02*
X307152279Y-14793700D01*
X307152279Y-14793700D02*
X307152279Y-14793700D01*
X307152279Y-14793700D02*
X306847721Y-14793700D01*
X306847721Y-14006300D02*
X306847721Y-14006300D01*
X306847721Y-14006300D02*
X306706300Y-13864879D01*
X306706300Y-13864879D02*
X306706300Y-13864879D01*
X306706300Y-13864879D02*
X306706300Y-13560321D01*
X306706300Y-13560321D02*
X306706300Y-13560321D01*
X306706300Y-13560321D02*
X306847721Y-13418900D01*
X306847721Y-13418900D02*
X306847721Y-13418900D01*
X306847721Y-13418900D02*
X307152279Y-13418900D01*
X307152279Y-13418900D02*
X307152279Y-13418900D01*
X307152279Y-13418900D02*
X307293700Y-13560321D01*
X307293700Y-13560321D02*
X307293700Y-13560321D01*
X307293700Y-13560321D02*
X307293700Y-13864879D01*
X307293700Y-13864879D02*
X307293700Y-13864879D01*
X307293700Y-13864879D02*
X307152279Y-14006300D01*
X307152279Y-14006300D02*
X307152279Y-14006300D01*
X307152279Y-14006300D02*
X306847721Y-14006300D01*
X306847721Y-13218900D02*
X306847721Y-13218900D01*
X306847721Y-13218900D02*
X306706300Y-13077479D01*
X306706300Y-13077479D02*
X306706300Y-13077479D01*
X306706300Y-13077479D02*
X306706300Y-12644530D01*
X306706300Y-12644530D02*
X307293700Y-12644530D01*
X307293700Y-12644530D02*
X307293700Y-13077479D01*
X307293700Y-13077479D02*
X307293700Y-13077479D01*
X307293700Y-13077479D02*
X307152279Y-13218900D01*
X307152279Y-13218900D02*
X307152279Y-13218900D01*
X307152279Y-13218900D02*
X306847721Y-13218900D01*
X307493700Y-16355470D02*
X307493700Y-15922521D01*
X307493700Y-15922521D02*
X307493700Y-15922521D01*
X307493700Y-15922521D02*
X307635121Y-15781100D01*
X307635121Y-15781100D02*
X307635121Y-15781100D01*
X307635121Y-15781100D02*
X307939679Y-15781100D01*
X307939679Y-15781100D02*
X307939679Y-15781100D01*
X307939679Y-15781100D02*
X308081100Y-15922521D01*
X308081100Y-15922521D02*
X308081100Y-15922521D01*
X308081100Y-15922521D02*
X308081100Y-16355470D01*
X308081100Y-16355470D02*
X307493700Y-16355470D01*
X307635121Y-15581100D02*
X307635121Y-15581100D01*
X307635121Y-15581100D02*
X307493700Y-15439679D01*
X307493700Y-15439679D02*
X307493700Y-15439679D01*
X307493700Y-15439679D02*
X307493700Y-15135121D01*
X307493700Y-15135121D02*
X307493700Y-15135121D01*
X307493700Y-15135121D02*
X307635121Y-14993700D01*
X307635121Y-14993700D02*
X307635121Y-14993700D01*
X307635121Y-14993700D02*
X307939679Y-14993700D01*
X307939679Y-14993700D02*
X307939679Y-14993700D01*
X307939679Y-14993700D02*
X308081100Y-15135121D01*
X308081100Y-15135121D02*
X308081100Y-15135121D01*
X308081100Y-15135121D02*
X308081100Y-15439679D01*
X308081100Y-15439679D02*
X308081100Y-15439679D01*
X308081100Y-15439679D02*
X307939679Y-15581100D01*
X307939679Y-15581100D02*
X307939679Y-15581100D01*
X307939679Y-15581100D02*
X307635121Y-15581100D01*
X307635121Y-14793700D02*
X307635121Y-14793700D01*
X307635121Y-14793700D02*
X307493700Y-14652279D01*
X307493700Y-14652279D02*
X307493700Y-14652279D01*
X307493700Y-14652279D02*
X307493700Y-14347721D01*
X307493700Y-14347721D02*
X307493700Y-14347721D01*
X307493700Y-14347721D02*
X307635121Y-14206300D01*
X307635121Y-14206300D02*
X307635121Y-14206300D01*
X307635121Y-14206300D02*
X307939679Y-14206300D01*
X307939679Y-14206300D02*
X307939679Y-14206300D01*
X307939679Y-14206300D02*
X308081100Y-14347721D01*
X308081100Y-14347721D02*
X308081100Y-14347721D01*
X308081100Y-14347721D02*
X308081100Y-14652279D01*
X308081100Y-14652279D02*
X308081100Y-14652279D01*
X308081100Y-14652279D02*
X307939679Y-14793700D01*
X307939679Y-14793700D02*
X307939679Y-14793700D01*
X307939679Y-14793700D02*
X307635121Y-14793700D01*
X307635121Y-14006300D02*
X307635121Y-14006300D01*
X307635121Y-14006300D02*
X307493700Y-13864879D01*
X307493700Y-13864879D02*
X307493700Y-13864879D01*
X307493700Y-13864879D02*
X307493700Y-13560321D01*
X307493700Y-13560321D02*
X307493700Y-13560321D01*
X307493700Y-13560321D02*
X307635121Y-13418900D01*
X307635121Y-13418900D02*
X307635121Y-13418900D01*
X307635121Y-13418900D02*
X307939679Y-13418900D01*
X307939679Y-13418900D02*
X307939679Y-13418900D01*
X307939679Y-13418900D02*
X308081100Y-13560321D01*
X308081100Y-13560321D02*
X308081100Y-13560321D01*
X308081100Y-13560321D02*
X308081100Y-13864879D01*
X308081100Y-13864879D02*
X308081100Y-13864879D01*
X308081100Y-13864879D02*
X307939679Y-14006300D01*
X307939679Y-14006300D02*
X307939679Y-14006300D01*
X307939679Y-14006300D02*
X307635121Y-14006300D01*
X307635121Y-13218900D02*
X307635121Y-13218900D01*
X307635121Y-13218900D02*
X307493700Y-13077479D01*
X307493700Y-13077479D02*
X307493700Y-13077479D01*
X307493700Y-13077479D02*
X307493700Y-12644530D01*
X307493700Y-12644530D02*
X308081100Y-12644530D01*
X308081100Y-12644530D02*
X308081100Y-13077479D01*
X308081100Y-13077479D02*
X308081100Y-13077479D01*
X308081100Y-13077479D02*
X307939679Y-13218900D01*
X307939679Y-13218900D02*
X307939679Y-13218900D01*
X307939679Y-13218900D02*
X307635121Y-13218900D01*
X308281100Y-16355470D02*
X308281100Y-15922521D01*
X308281100Y-15922521D02*
X308281100Y-15922521D01*
X308281100Y-15922521D02*
X308422521Y-15781100D01*
X308422521Y-15781100D02*
X308422521Y-15781100D01*
X308422521Y-15781100D02*
X308855470Y-15781100D01*
X308855470Y-15781100D02*
X308855470Y-16355470D01*
X308855470Y-16355470D02*
X308281100Y-16355470D01*
X308422521Y-15581100D02*
X308422521Y-15581100D01*
X308422521Y-15581100D02*
X308281100Y-15439679D01*
X308281100Y-15439679D02*
X308281100Y-15439679D01*
X308281100Y-15439679D02*
X308281100Y-15135121D01*
X308281100Y-15135121D02*
X308281100Y-15135121D01*
X308281100Y-15135121D02*
X308422521Y-14993700D01*
X308422521Y-14993700D02*
X308422521Y-14993700D01*
X308422521Y-14993700D02*
X308855470Y-14993700D01*
X308855470Y-14993700D02*
X308855470Y-15581100D01*
X308855470Y-15581100D02*
X308422521Y-15581100D01*
X308422521Y-14793700D02*
X308422521Y-14793700D01*
X308422521Y-14793700D02*
X308281100Y-14652279D01*
X308281100Y-14652279D02*
X308281100Y-14652279D01*
X308281100Y-14652279D02*
X308281100Y-14347721D01*
X308281100Y-14347721D02*
X308281100Y-14347721D01*
X308281100Y-14347721D02*
X308422521Y-14206300D01*
X308422521Y-14206300D02*
X308422521Y-14206300D01*
X308422521Y-14206300D02*
X308855470Y-14206300D01*
X308855470Y-14206300D02*
X308855470Y-14793700D01*
X308855470Y-14793700D02*
X308422521Y-14793700D01*
X308422521Y-14006300D02*
X308422521Y-14006300D01*
X308422521Y-14006300D02*
X308281100Y-13864879D01*
X308281100Y-13864879D02*
X308281100Y-13864879D01*
X308281100Y-13864879D02*
X308281100Y-13560321D01*
X308281100Y-13560321D02*
X308281100Y-13560321D01*
X308281100Y-13560321D02*
X308422521Y-13418900D01*
X308422521Y-13418900D02*
X308422521Y-13418900D01*
X308422521Y-13418900D02*
X308855470Y-13418900D01*
X308855470Y-13418900D02*
X308855470Y-14006300D01*
X308855470Y-14006300D02*
X308422521Y-14006300D01*
X308422521Y-13218900D02*
X308422521Y-13218900D01*
X308422521Y-13218900D02*
X308281100Y-13077479D01*
X308281100Y-13077479D02*
X308281100Y-13077479D01*
X308281100Y-13077479D02*
X308281100Y-12644530D01*
X308281100Y-12644530D02*
X308855470Y-12644530D01*
X308855470Y-12644530D02*
X308855470Y-13218900D01*
X308855470Y-13218900D02*
X308422521Y-13218900D01*
D11*
X301000000Y-66500000D03*
D12*
X304750000Y-62122600D03*
X304250001Y-62122600D03*
X303750000Y-62122600D03*
X303250001Y-62122600D03*
X302749999Y-62122600D03*
X302250000Y-62122600D03*
X301750001Y-62122600D03*
X301250000Y-62122600D03*
X300750000Y-62122600D03*
X300249999Y-62122600D03*
X299750000Y-62122600D03*
X299250001Y-62122600D03*
X298749999Y-62122600D03*
X298250000Y-62122600D03*
X297749999Y-62122600D03*
X297250000Y-62122600D03*
D13*
X296622600Y-62750000D03*
X296622600Y-63249999D03*
X296622600Y-63750000D03*
X296622600Y-64249999D03*
X296622600Y-64750001D03*
X296622600Y-65250000D03*
X296622600Y-65749999D03*
X296622600Y-66250000D03*
X296622600Y-66750000D03*
X296622600Y-67250001D03*
X296622600Y-67750000D03*
X296622600Y-68249999D03*
X296622600Y-68750001D03*
X296622600Y-69250000D03*
X296622600Y-69750001D03*
X296622600Y-70250000D03*
D12*
X297250000Y-70877400D03*
X297749999Y-70877400D03*
X298250000Y-70877400D03*
X298749999Y-70877400D03*
X299250001Y-70877400D03*
X299750000Y-70877400D03*
X300249999Y-70877400D03*
X300750000Y-70877400D03*
X301250000Y-70877400D03*
X301750001Y-70877400D03*
X302250000Y-70877400D03*
X302749999Y-70877400D03*
X303250001Y-70877400D03*
X303750000Y-70877400D03*
X304250001Y-70877400D03*
X304750000Y-70877400D03*
D13*
X305377400Y-70250000D03*
X305377400Y-69750001D03*
X305377400Y-69250000D03*
X305377400Y-68750001D03*
X305377400Y-68249999D03*
X305377400Y-67750000D03*
X305377400Y-67250001D03*
X305377400Y-66750000D03*
X305377400Y-66250000D03*
X305377400Y-65749999D03*
X305377400Y-65250000D03*
X305377400Y-64750001D03*
X305377400Y-64249999D03*
X305377400Y-63750000D03*
X305377400Y-63249999D03*
X305377400Y-62750000D03*
D14*
X17275000Y-81170000D03*
X16275000Y-81170000D03*
X48150000Y-81170000D03*
X47150000Y-81170000D03*
X67150000Y-81170000D03*
X66150000Y-81170000D03*
X86150000Y-81170000D03*
X85150000Y-81170000D03*
X105150000Y-81170000D03*
X104150000Y-81170000D03*
X124150000Y-81170000D03*
X123150000Y-81170000D03*
X143150000Y-81170000D03*
X142150000Y-81170000D03*
X162150000Y-81170000D03*
X161150000Y-81170000D03*
X181150000Y-81170000D03*
X180150000Y-81170000D03*
X200150000Y-81170000D03*
X199150000Y-81170000D03*
X219150000Y-81170000D03*
X218150000Y-81170000D03*
X254775000Y-81170000D03*
X253775000Y-81170000D03*
X318900000Y-81170000D03*
X317900000Y-81170000D03*
X10150000Y-43170000D03*
X9150000Y-43170000D03*
X33900000Y-43170000D03*
X32900000Y-43170000D03*
X52900000Y-43170000D03*
X51900000Y-43170000D03*
X71900000Y-43170000D03*
X70900000Y-43170000D03*
X90900000Y-43170000D03*
X89900000Y-43170000D03*
X109900000Y-43170000D03*
X108900000Y-43170000D03*
X128900000Y-43170000D03*
X127900000Y-43170000D03*
X147900000Y-43170000D03*
X146900000Y-43170000D03*
X166900000Y-43170000D03*
X165900000Y-43170000D03*
X185900000Y-43170000D03*
X184900000Y-43170000D03*
X204900000Y-43170000D03*
X203900000Y-43170000D03*
X223900000Y-43170000D03*
X222900000Y-43170000D03*
X242900000Y-43170000D03*
X241900000Y-43170000D03*
X266650000Y-43170000D03*
X265650000Y-43170000D03*
X299900000Y-43170000D03*
X298900000Y-43170000D03*
X318900000Y-43170000D03*
X317900000Y-43170000D03*
X337900000Y-43170000D03*
X336900000Y-43170000D03*
X5400000Y4330000D03*
X4400000Y4330000D03*
X43400000Y4330000D03*
X42400000Y4330000D03*
X62400000Y4330000D03*
X61400000Y4330000D03*
X81400000Y4330000D03*
X80400000Y4330000D03*
X100400000Y4330000D03*
X99400000Y4330000D03*
X128900000Y4330000D03*
X127900000Y4330000D03*
X147900000Y4330000D03*
X146900000Y4330000D03*
X166900000Y4330000D03*
X165900000Y4330000D03*
X185900000Y4330000D03*
X184900000Y4330000D03*
X214400000Y4330000D03*
X213400000Y4330000D03*
X233400000Y4330000D03*
X232400000Y4330000D03*
X252400000Y4330000D03*
X251400000Y4330000D03*
X271400000Y4330000D03*
X270400000Y4330000D03*
X337900000Y-750000D03*
X336900000Y-750000D03*
D15*
X-4560000Y-21670000D03*
X-4560000Y-22670000D03*
X14440000Y-21670000D03*
X14440000Y-22670000D03*
X33440000Y-21670000D03*
X33440000Y-22670000D03*
X52440000Y-21670000D03*
X52440000Y-22670000D03*
X71440000Y-21670000D03*
X71440000Y-22670000D03*
X90440000Y-21670000D03*
X90440000Y-22670000D03*
X109440000Y-21670000D03*
X109440000Y-22670000D03*
X128440000Y-21670000D03*
X128440000Y-22670000D03*
X147440000Y-21670000D03*
X147440000Y-22670000D03*
X166440000Y-21670000D03*
X166440000Y-22670000D03*
X185440000Y-21670000D03*
X185440000Y-22670000D03*
X204440000Y-21670000D03*
X204440000Y-22670000D03*
X223440000Y-21670000D03*
X223440000Y-22670000D03*
X251940000Y-21670000D03*
X251940000Y-22670000D03*
X289940000Y-21670000D03*
X289940000Y-22670000D03*
X308940000Y-21670000D03*
X308940000Y-22670000D03*
X327940000Y-21670000D03*
X327940000Y-22670000D03*
X2565000Y-59670000D03*
X2565000Y-60670000D03*
X28690000Y-59670000D03*
X28690000Y-60670000D03*
X47690000Y-59670000D03*
X47690000Y-60670000D03*
X66690000Y-59670000D03*
X66690000Y-60670000D03*
X85690000Y-59670000D03*
X85690000Y-60670000D03*
X104690000Y-59670000D03*
X104690000Y-60670000D03*
X123690000Y-59670000D03*
X123690000Y-60670000D03*
X142690000Y-59670000D03*
X142690000Y-60670000D03*
X161690000Y-59670000D03*
X161690000Y-60670000D03*
X180690000Y-59670000D03*
X180690000Y-60670000D03*
X199690000Y-59670000D03*
X199690000Y-60670000D03*
X218690000Y-59670000D03*
X218690000Y-60670000D03*
X249565000Y-59670000D03*
X249565000Y-60670000D03*
X-2185000Y-97670000D03*
X-2185000Y-98670000D03*
X21565000Y-97670000D03*
X21565000Y-98670000D03*
X45315000Y-97670000D03*
X45315000Y-98670000D03*
X116565000Y-97670000D03*
X116565000Y-98670000D03*
X187815000Y-97670000D03*
X187815000Y-98670000D03*
X211565000Y-97670000D03*
X211565000Y-98670000D03*
X235315000Y-97670000D03*
X235315000Y-98670000D03*
X259065000Y-97670000D03*
X259065000Y-98670000D03*
X289940000Y-97670000D03*
X289940000Y-98670000D03*
X308940000Y-97670000D03*
X308940000Y-98670000D03*
X327940000Y-97670000D03*
X327940000Y-98670000D03*
D16*
X339850000Y-18750000D03*
X339850000Y-12750000D03*
X336150000Y-18750000D03*
X336150000Y-12750000D03*
X324850000Y-69500000D03*
X324850000Y-63500000D03*
X321150000Y-69500000D03*
X321150000Y-63500000D03*
D17*
X307000000Y-14500000D03*
D18*
X304968000Y-17344800D03*
X305476000Y-17344800D03*
X305984000Y-17344800D03*
X306492000Y-17344800D03*
X307000000Y-17344800D03*
X307508000Y-17344800D03*
X308016000Y-17344800D03*
X308524000Y-17344800D03*
X309032000Y-17344800D03*
D19*
X309844800Y-16532000D03*
X309844800Y-16024000D03*
X309844800Y-15516000D03*
X309844800Y-15008000D03*
X309844800Y-14500000D03*
X309844800Y-13992000D03*
X309844800Y-13484000D03*
X309844800Y-12976000D03*
X309844800Y-12468000D03*
D18*
X309032000Y-11655200D03*
X308524000Y-11655200D03*
X308016000Y-11655200D03*
X307508000Y-11655200D03*
X307000000Y-11655200D03*
X306492000Y-11655200D03*
X305984000Y-11655200D03*
X305476000Y-11655200D03*
X304968000Y-11655200D03*
D19*
X304155200Y-12468000D03*
X304155200Y-12976000D03*
X304155200Y-13484000D03*
X304155200Y-13992000D03*
X304155200Y-14500000D03*
X304155200Y-15008000D03*
X304155200Y-15516000D03*
X304155200Y-16024000D03*
X304155200Y-16532000D03*
D20*
X335300000Y-22670000D03*
X335300000Y-24170000D03*
X329700000Y-24170000D03*
X329700000Y-22670000D03*
X2800000Y-22670000D03*
X2800000Y-24170000D03*
X-2800000Y-24170000D03*
X-2800000Y-22670000D03*
X21800000Y-22670000D03*
X21800000Y-24170000D03*
X16200000Y-24170000D03*
X16200000Y-22670000D03*
X40800000Y-22670000D03*
X40800000Y-24170000D03*
X35200000Y-24170000D03*
X35200000Y-22670000D03*
X59800000Y-22670000D03*
X59800000Y-24170000D03*
X54200000Y-24170000D03*
X54200000Y-22670000D03*
X78800000Y-22670000D03*
X78800000Y-24170000D03*
X73200000Y-24170000D03*
X73200000Y-22670000D03*
X97800000Y-22670000D03*
X97800000Y-24170000D03*
X92200000Y-24170000D03*
X92200000Y-22670000D03*
X116800000Y-22670000D03*
X116800000Y-24170000D03*
X111200000Y-24170000D03*
X111200000Y-22670000D03*
X135800000Y-22670000D03*
X135800000Y-24170000D03*
X130200000Y-24170000D03*
X130200000Y-22670000D03*
X154800000Y-22670000D03*
X154800000Y-24170000D03*
X149200000Y-24170000D03*
X149200000Y-22670000D03*
X173800000Y-22670000D03*
X173800000Y-24170000D03*
X168200000Y-24170000D03*
X168200000Y-22670000D03*
X192800000Y-22670000D03*
X192800000Y-24170000D03*
X187200000Y-24170000D03*
X187200000Y-22670000D03*
X211800000Y-22670000D03*
X211800000Y-24170000D03*
X206200000Y-24170000D03*
X206200000Y-22670000D03*
X230800000Y-22670000D03*
X230800000Y-24170000D03*
X225200000Y-24170000D03*
X225200000Y-22670000D03*
X259300000Y-22670000D03*
X259300000Y-24170000D03*
X253700000Y-24170000D03*
X253700000Y-22670000D03*
X297300000Y-22670000D03*
X297300000Y-24170000D03*
X291700000Y-24170000D03*
X291700000Y-22670000D03*
X316300000Y-22670000D03*
X316300000Y-24170000D03*
X310700000Y-24170000D03*
X310700000Y-22670000D03*
X9925000Y-60670000D03*
X9925000Y-62170000D03*
X4325000Y-62170000D03*
X4325000Y-60670000D03*
X36050000Y-60670000D03*
X36050000Y-62170000D03*
X30450000Y-62170000D03*
X30450000Y-60670000D03*
X55050000Y-60670000D03*
X55050000Y-62170000D03*
X49450000Y-62170000D03*
X49450000Y-60670000D03*
X74050000Y-60670000D03*
X74050000Y-62170000D03*
X68450000Y-62170000D03*
X68450000Y-60670000D03*
X93050000Y-60670000D03*
X93050000Y-62170000D03*
X87450000Y-62170000D03*
X87450000Y-60670000D03*
X112050000Y-60670000D03*
X112050000Y-62170000D03*
X106450000Y-62170000D03*
X106450000Y-60670000D03*
X131050000Y-60670000D03*
X131050000Y-62170000D03*
X125450000Y-62170000D03*
X125450000Y-60670000D03*
X150050000Y-60670000D03*
X150050000Y-62170000D03*
X144450000Y-62170000D03*
X144450000Y-60670000D03*
X169050000Y-60670000D03*
X169050000Y-62170000D03*
X163450000Y-62170000D03*
X163450000Y-60670000D03*
X188050000Y-60670000D03*
X188050000Y-62170000D03*
X182450000Y-62170000D03*
X182450000Y-60670000D03*
X207050000Y-60670000D03*
X207050000Y-62170000D03*
X201450000Y-62170000D03*
X201450000Y-60670000D03*
X226050000Y-60670000D03*
X226050000Y-62170000D03*
X220450000Y-62170000D03*
X220450000Y-60670000D03*
X256925000Y-60670000D03*
X256925000Y-62170000D03*
X251325000Y-62170000D03*
X251325000Y-60670000D03*
X5175000Y-98670000D03*
X5175000Y-100170000D03*
X-425000Y-100170000D03*
X-425000Y-98670000D03*
X28925000Y-98670000D03*
X28925000Y-100170000D03*
X23325000Y-100170000D03*
X23325000Y-98670000D03*
X52675000Y-98670000D03*
X52675000Y-100170000D03*
X47075000Y-100170000D03*
X47075000Y-98670000D03*
X123925000Y-98670000D03*
X123925000Y-100170000D03*
X118325000Y-100170000D03*
X118325000Y-98670000D03*
X195175000Y-98670000D03*
X195175000Y-100170000D03*
X189575000Y-100170000D03*
X189575000Y-98670000D03*
X218925000Y-98670000D03*
X218925000Y-100170000D03*
X213325000Y-100170000D03*
X213325000Y-98670000D03*
X242675000Y-98670000D03*
X242675000Y-100170000D03*
X237075000Y-100170000D03*
X237075000Y-98670000D03*
X266425000Y-98670000D03*
X266425000Y-100170000D03*
X260825000Y-100170000D03*
X260825000Y-98670000D03*
X297300000Y-98670000D03*
X297300000Y-100170000D03*
X291700000Y-100170000D03*
X291700000Y-98670000D03*
X316300000Y-98670000D03*
X316300000Y-100170000D03*
X310700000Y-100170000D03*
X310700000Y-98670000D03*
X335300000Y-98670000D03*
X335300000Y-100170000D03*
X329700000Y-100170000D03*
X329700000Y-98670000D03*
X329700000Y-750000D03*
X329700000Y750000D03*
X335300000Y750000D03*
X335300000Y-750000D03*
X263200000Y4330000D03*
X263200000Y5830000D03*
X268800000Y5830000D03*
X268800000Y4330000D03*
X244200000Y4330000D03*
X244200000Y5830000D03*
X249800000Y5830000D03*
X249800000Y4330000D03*
X225200000Y4330000D03*
X225200000Y5830000D03*
X230800000Y5830000D03*
X230800000Y4330000D03*
X206200000Y4330000D03*
X206200000Y5830000D03*
X211800000Y5830000D03*
X211800000Y4330000D03*
X177700000Y4330000D03*
X177700000Y5830000D03*
X183300000Y5830000D03*
X183300000Y4330000D03*
X158700000Y4330000D03*
X158700000Y5830000D03*
X164300000Y5830000D03*
X164300000Y4330000D03*
X139700000Y4330000D03*
X139700000Y5830000D03*
X145300000Y5830000D03*
X145300000Y4330000D03*
X120700000Y4330000D03*
X120700000Y5830000D03*
X126300000Y5830000D03*
X126300000Y4330000D03*
X92200000Y4330000D03*
X92200000Y5830000D03*
X97800000Y5830000D03*
X97800000Y4330000D03*
X73200000Y4330000D03*
X73200000Y5830000D03*
X78800000Y5830000D03*
X78800000Y4330000D03*
X54200000Y4330000D03*
X54200000Y5830000D03*
X59800000Y5830000D03*
X59800000Y4330000D03*
X35200000Y4330000D03*
X35200000Y5830000D03*
X40800000Y5830000D03*
X40800000Y4330000D03*
X-2800000Y4330000D03*
X-2800000Y5830000D03*
X2800000Y5830000D03*
X2800000Y4330000D03*
X329700000Y-43170000D03*
X329700000Y-41670000D03*
X335300000Y-41670000D03*
X335300000Y-43170000D03*
X310700000Y-43170000D03*
X310700000Y-41670000D03*
X316300000Y-41670000D03*
X316300000Y-43170000D03*
X291700000Y-43170000D03*
X291700000Y-41670000D03*
X297300000Y-41670000D03*
X297300000Y-43170000D03*
X258450000Y-43170000D03*
X258450000Y-41670000D03*
X264050000Y-41670000D03*
X264050000Y-43170000D03*
X234700000Y-43170000D03*
X234700000Y-41670000D03*
X240300000Y-41670000D03*
X240300000Y-43170000D03*
X215700000Y-43170000D03*
X215700000Y-41670000D03*
X221300000Y-41670000D03*
X221300000Y-43170000D03*
X196700000Y-43170000D03*
X196700000Y-41670000D03*
X202300000Y-41670000D03*
X202300000Y-43170000D03*
X177700000Y-43170000D03*
X177700000Y-41670000D03*
X183300000Y-41670000D03*
X183300000Y-43170000D03*
X158700000Y-43170000D03*
X158700000Y-41670000D03*
X164300000Y-41670000D03*
X164300000Y-43170000D03*
X139700000Y-43170000D03*
X139700000Y-41670000D03*
X145300000Y-41670000D03*
X145300000Y-43170000D03*
X120700000Y-43170000D03*
X120700000Y-41670000D03*
X126300000Y-41670000D03*
X126300000Y-43170000D03*
X101700000Y-43170000D03*
X101700000Y-41670000D03*
X107300000Y-41670000D03*
X107300000Y-43170000D03*
X82700000Y-43170000D03*
X82700000Y-41670000D03*
X88300000Y-41670000D03*
X88300000Y-43170000D03*
X63700000Y-43170000D03*
X63700000Y-41670000D03*
X69300000Y-41670000D03*
X69300000Y-43170000D03*
X44700000Y-43170000D03*
X44700000Y-41670000D03*
X50300000Y-41670000D03*
X50300000Y-43170000D03*
X25700000Y-43170000D03*
X25700000Y-41670000D03*
X31300000Y-41670000D03*
X31300000Y-43170000D03*
X1950000Y-43170000D03*
X1950000Y-41670000D03*
X7550000Y-41670000D03*
X7550000Y-43170000D03*
X310700000Y-81170000D03*
X310700000Y-79670000D03*
X316300000Y-79670000D03*
X316300000Y-81170000D03*
X246575000Y-81170000D03*
X246575000Y-79670000D03*
X252175000Y-79670000D03*
X252175000Y-81170000D03*
X210950000Y-81170000D03*
X210950000Y-79670000D03*
X216550000Y-79670000D03*
X216550000Y-81170000D03*
X191950000Y-81170000D03*
X191950000Y-79670000D03*
X197550000Y-79670000D03*
X197550000Y-81170000D03*
X172950000Y-81170000D03*
X172950000Y-79670000D03*
X178550000Y-79670000D03*
X178550000Y-81170000D03*
X153950000Y-81170000D03*
X153950000Y-79670000D03*
X159550000Y-79670000D03*
X159550000Y-81170000D03*
X134950000Y-81170000D03*
X134950000Y-79670000D03*
X140550000Y-79670000D03*
X140550000Y-81170000D03*
X115950000Y-81170000D03*
X115950000Y-79670000D03*
X121550000Y-79670000D03*
X121550000Y-81170000D03*
X96950000Y-81170000D03*
X96950000Y-79670000D03*
X102550000Y-79670000D03*
X102550000Y-81170000D03*
X77950000Y-81170000D03*
X77950000Y-79670000D03*
X83550000Y-79670000D03*
X83550000Y-81170000D03*
X58950000Y-81170000D03*
X58950000Y-79670000D03*
X64550000Y-79670000D03*
X64550000Y-81170000D03*
X39950000Y-81170000D03*
X39950000Y-79670000D03*
X45550000Y-79670000D03*
X45550000Y-81170000D03*
X9075000Y-81170000D03*
X9075000Y-79670000D03*
X14675000Y-79670000D03*
X14675000Y-81170000D03*
G36*
G01*
X303577500Y6545000D02*
X303922500Y6545000D01*
G75*
G02*
X304070000Y6397500I0J-147500D01*
G01*
X304070000Y6102500D01*
G75*
G02*
X303922500Y5955000I-147500J0D01*
G01*
X303577500Y5955000D01*
G75*
G02*
X303430000Y6102500I0J147500D01*
G01*
X303430000Y6397500D01*
G75*
G02*
X303577500Y6545000I147500J0D01*
G01*
G37*
G36*
G01*
X303577500Y7515000D02*
X303922500Y7515000D01*
G75*
G02*
X304070000Y7367500I0J-147500D01*
G01*
X304070000Y7072500D01*
G75*
G02*
X303922500Y6925000I-147500J0D01*
G01*
X303577500Y6925000D01*
G75*
G02*
X303430000Y7072500I0J147500D01*
G01*
X303430000Y7367500D01*
G75*
G02*
X303577500Y7515000I147500J0D01*
G01*
G37*
D21*
X332147450Y-4799999D03*
X332147450Y-6700001D03*
X334852550Y-6700001D03*
X334852550Y-5750000D03*
X334852550Y-4799999D03*
D22*
G36*
X328051053Y5985368D02*
G01*
X327485368Y6551053D01*
X327948947Y7014632D01*
X328514632Y6448947D01*
X328051053Y5985368D01*
G37*
G36*
X326880367Y4814682D02*
G01*
X326314682Y5380367D01*
X326778261Y5843946D01*
X327343946Y5278261D01*
X326880367Y4814682D01*
G37*
D23*
X335600000Y6250000D03*
X335600000Y4594400D03*
D24*
X310155600Y-3000000D03*
X308500000Y-3000000D03*
X289422200Y-3000000D03*
X291077800Y-3000000D03*
D23*
X298000000Y0D03*
X298000000Y-1655600D03*
D24*
X317094400Y0D03*
X318750000Y0D03*
D22*
G36*
X323609507Y2276940D02*
G01*
X324776940Y1109507D01*
X323950757Y283324D01*
X322783324Y1450757D01*
X323609507Y2276940D01*
G37*
G36*
X325549243Y4216676D02*
G01*
X326716676Y3049243D01*
X325890493Y2223060D01*
X324723060Y3390493D01*
X325549243Y4216676D01*
G37*
G36*
X329557095Y2044071D02*
G01*
X328730912Y2870254D01*
X329036241Y3175583D01*
X329862424Y2349400D01*
X329557095Y2044071D01*
G37*
G36*
X330900600Y3387576D02*
G01*
X330074417Y4213759D01*
X330379746Y4519088D01*
X331205929Y3692905D01*
X330900600Y3387576D01*
G37*
G36*
X329463758Y4824416D02*
G01*
X328637575Y5650599D01*
X328942904Y5955928D01*
X329769087Y5129745D01*
X329463758Y4824416D01*
G37*
G36*
X328120255Y3480913D02*
G01*
X327294072Y4307096D01*
X327886769Y4899793D01*
X328712952Y4073610D01*
X328120255Y3480913D01*
G37*
D25*
X314516000Y-3325001D03*
X314516000Y-1424999D03*
X312484000Y-1425000D03*
D26*
X312484000Y-3121800D03*
D25*
X295516000Y-3325001D03*
X295516000Y-1424999D03*
X293484000Y-1425000D03*
D26*
X293484000Y-3121800D03*
D27*
X295200001Y-15262000D03*
X293299999Y-15262000D03*
X293300000Y-17294000D03*
D28*
X294996800Y-17294000D03*
D29*
X330400000Y-16850000D03*
X328100000Y-16850000D03*
X328100000Y-18650000D03*
X330400000Y-18650000D03*
D22*
G36*
X306037868Y-78588477D02*
G01*
X305330762Y-77881371D01*
X306179290Y-77032843D01*
X306886396Y-77739949D01*
X306037868Y-78588477D01*
G37*
G36*
X307239949Y-77386396D02*
G01*
X306532843Y-76679290D01*
X307381371Y-75830762D01*
X308088477Y-76537868D01*
X307239949Y-77386396D01*
G37*
G36*
X306320710Y-76467157D02*
G01*
X305613604Y-75760051D01*
X306462132Y-74911523D01*
X307169238Y-75618629D01*
X306320710Y-76467157D01*
G37*
G36*
X305118629Y-77669238D02*
G01*
X304411523Y-76962132D01*
X305260051Y-76113604D01*
X305967157Y-76820710D01*
X305118629Y-77669238D01*
G37*
G36*
G01*
X337030000Y5420000D02*
X337030000Y5080000D01*
G75*
G02*
X336890000Y4940000I-140000J0D01*
G01*
X336610000Y4940000D01*
G75*
G02*
X336470000Y5080000I0J140000D01*
G01*
X336470000Y5420000D01*
G75*
G02*
X336610000Y5560000I140000J0D01*
G01*
X336890000Y5560000D01*
G75*
G02*
X337030000Y5420000I0J-140000D01*
G01*
G37*
G36*
G01*
X337990000Y5420000D02*
X337990000Y5080000D01*
G75*
G02*
X337850000Y4940000I-140000J0D01*
G01*
X337570000Y4940000D01*
G75*
G02*
X337430000Y5080000I0J140000D01*
G01*
X337430000Y5420000D01*
G75*
G02*
X337570000Y5560000I140000J0D01*
G01*
X337850000Y5560000D01*
G75*
G02*
X337990000Y5420000I0J-140000D01*
G01*
G37*
G36*
G01*
X305420000Y1720000D02*
X305080000Y1720000D01*
G75*
G02*
X304940000Y1860000I0J140000D01*
G01*
X304940000Y2140000D01*
G75*
G02*
X305080000Y2280000I140000J0D01*
G01*
X305420000Y2280000D01*
G75*
G02*
X305560000Y2140000I0J-140000D01*
G01*
X305560000Y1860000D01*
G75*
G02*
X305420000Y1720000I-140000J0D01*
G01*
G37*
G36*
G01*
X305420000Y760000D02*
X305080000Y760000D01*
G75*
G02*
X304940000Y900000I0J140000D01*
G01*
X304940000Y1180000D01*
G75*
G02*
X305080000Y1320000I140000J0D01*
G01*
X305420000Y1320000D01*
G75*
G02*
X305560000Y1180000I0J-140000D01*
G01*
X305560000Y900000D01*
G75*
G02*
X305420000Y760000I-140000J0D01*
G01*
G37*
G36*
G01*
X284970000Y1830000D02*
X284970000Y2170000D01*
G75*
G02*
X285110000Y2310000I140000J0D01*
G01*
X285390000Y2310000D01*
G75*
G02*
X285530000Y2170000I0J-140000D01*
G01*
X285530000Y1830000D01*
G75*
G02*
X285390000Y1690000I-140000J0D01*
G01*
X285110000Y1690000D01*
G75*
G02*
X284970000Y1830000I0J140000D01*
G01*
G37*
G36*
G01*
X284010000Y1830000D02*
X284010000Y2170000D01*
G75*
G02*
X284150000Y2310000I140000J0D01*
G01*
X284430000Y2310000D01*
G75*
G02*
X284570000Y2170000I0J-140000D01*
G01*
X284570000Y1830000D01*
G75*
G02*
X284430000Y1690000I-140000J0D01*
G01*
X284150000Y1690000D01*
G75*
G02*
X284010000Y1830000I0J140000D01*
G01*
G37*
G36*
G01*
X314200000Y-14420000D02*
X314200000Y-14080000D01*
G75*
G02*
X314340000Y-13940000I140000J0D01*
G01*
X314620000Y-13940000D01*
G75*
G02*
X314760000Y-14080000I0J-140000D01*
G01*
X314760000Y-14420000D01*
G75*
G02*
X314620000Y-14560000I-140000J0D01*
G01*
X314340000Y-14560000D01*
G75*
G02*
X314200000Y-14420000I0J140000D01*
G01*
G37*
G36*
G01*
X313240000Y-14420000D02*
X313240000Y-14080000D01*
G75*
G02*
X313380000Y-13940000I140000J0D01*
G01*
X313660000Y-13940000D01*
G75*
G02*
X313800000Y-14080000I0J-140000D01*
G01*
X313800000Y-14420000D01*
G75*
G02*
X313660000Y-14560000I-140000J0D01*
G01*
X313380000Y-14560000D01*
G75*
G02*
X313240000Y-14420000I0J140000D01*
G01*
G37*
G36*
G01*
X308370000Y-8520000D02*
X308030000Y-8520000D01*
G75*
G02*
X307890000Y-8380000I0J140000D01*
G01*
X307890000Y-8100000D01*
G75*
G02*
X308030000Y-7960000I140000J0D01*
G01*
X308370000Y-7960000D01*
G75*
G02*
X308510000Y-8100000I0J-140000D01*
G01*
X308510000Y-8380000D01*
G75*
G02*
X308370000Y-8520000I-140000J0D01*
G01*
G37*
G36*
G01*
X308370000Y-9480000D02*
X308030000Y-9480000D01*
G75*
G02*
X307890000Y-9340000I0J140000D01*
G01*
X307890000Y-9060000D01*
G75*
G02*
X308030000Y-8920000I140000J0D01*
G01*
X308370000Y-8920000D01*
G75*
G02*
X308510000Y-9060000I0J-140000D01*
G01*
X308510000Y-9340000D01*
G75*
G02*
X308370000Y-9480000I-140000J0D01*
G01*
G37*
G36*
G01*
X303820000Y-19330000D02*
X303820000Y-19670000D01*
G75*
G02*
X303680000Y-19810000I-140000J0D01*
G01*
X303400000Y-19810000D01*
G75*
G02*
X303260000Y-19670000I0J140000D01*
G01*
X303260000Y-19330000D01*
G75*
G02*
X303400000Y-19190000I140000J0D01*
G01*
X303680000Y-19190000D01*
G75*
G02*
X303820000Y-19330000I0J-140000D01*
G01*
G37*
G36*
G01*
X304780000Y-19330000D02*
X304780000Y-19670000D01*
G75*
G02*
X304640000Y-19810000I-140000J0D01*
G01*
X304360000Y-19810000D01*
G75*
G02*
X304220000Y-19670000I0J140000D01*
G01*
X304220000Y-19330000D01*
G75*
G02*
X304360000Y-19190000I140000J0D01*
G01*
X304640000Y-19190000D01*
G75*
G02*
X304780000Y-19330000I0J-140000D01*
G01*
G37*
G36*
G01*
X300970000Y-17670000D02*
X300970000Y-17330000D01*
G75*
G02*
X301110000Y-17190000I140000J0D01*
G01*
X301390000Y-17190000D01*
G75*
G02*
X301530000Y-17330000I0J-140000D01*
G01*
X301530000Y-17670000D01*
G75*
G02*
X301390000Y-17810000I-140000J0D01*
G01*
X301110000Y-17810000D01*
G75*
G02*
X300970000Y-17670000I0J140000D01*
G01*
G37*
G36*
G01*
X300010000Y-17670000D02*
X300010000Y-17330000D01*
G75*
G02*
X300150000Y-17190000I140000J0D01*
G01*
X300430000Y-17190000D01*
G75*
G02*
X300570000Y-17330000I0J-140000D01*
G01*
X300570000Y-17670000D01*
G75*
G02*
X300430000Y-17810000I-140000J0D01*
G01*
X300150000Y-17810000D01*
G75*
G02*
X300010000Y-17670000I0J140000D01*
G01*
G37*
G36*
G01*
X303200000Y-9920000D02*
X303200000Y-9580000D01*
G75*
G02*
X303340000Y-9440000I140000J0D01*
G01*
X303620000Y-9440000D01*
G75*
G02*
X303760000Y-9580000I0J-140000D01*
G01*
X303760000Y-9920000D01*
G75*
G02*
X303620000Y-10060000I-140000J0D01*
G01*
X303340000Y-10060000D01*
G75*
G02*
X303200000Y-9920000I0J140000D01*
G01*
G37*
G36*
G01*
X302240000Y-9920000D02*
X302240000Y-9580000D01*
G75*
G02*
X302380000Y-9440000I140000J0D01*
G01*
X302660000Y-9440000D01*
G75*
G02*
X302800000Y-9580000I0J-140000D01*
G01*
X302800000Y-9920000D01*
G75*
G02*
X302660000Y-10060000I-140000J0D01*
G01*
X302380000Y-10060000D01*
G75*
G02*
X302240000Y-9920000I0J140000D01*
G01*
G37*
G36*
G01*
X297771213Y-12261629D02*
X298011629Y-12021213D01*
G75*
G02*
X298209619Y-12021213I98995J-98995D01*
G01*
X298407609Y-12219203D01*
G75*
G02*
X298407609Y-12417193I-98995J-98995D01*
G01*
X298167193Y-12657609D01*
G75*
G02*
X297969203Y-12657609I-98995J98995D01*
G01*
X297771213Y-12459619D01*
G75*
G02*
X297771213Y-12261629I98995J98995D01*
G01*
G37*
G36*
G01*
X297092391Y-11582807D02*
X297332807Y-11342391D01*
G75*
G02*
X297530797Y-11342391I98995J-98995D01*
G01*
X297728787Y-11540381D01*
G75*
G02*
X297728787Y-11738371I-98995J-98995D01*
G01*
X297488371Y-11978787D01*
G75*
G02*
X297290381Y-11978787I-98995J98995D01*
G01*
X297092391Y-11780797D01*
G75*
G02*
X297092391Y-11582807I98995J98995D01*
G01*
G37*
G36*
G01*
X312300000Y-18580000D02*
X312300000Y-18920000D01*
G75*
G02*
X312160000Y-19060000I-140000J0D01*
G01*
X311880000Y-19060000D01*
G75*
G02*
X311740000Y-18920000I0J140000D01*
G01*
X311740000Y-18580000D01*
G75*
G02*
X311880000Y-18440000I140000J0D01*
G01*
X312160000Y-18440000D01*
G75*
G02*
X312300000Y-18580000I0J-140000D01*
G01*
G37*
G36*
G01*
X313260000Y-18580000D02*
X313260000Y-18920000D01*
G75*
G02*
X313120000Y-19060000I-140000J0D01*
G01*
X312840000Y-19060000D01*
G75*
G02*
X312700000Y-18920000I0J140000D01*
G01*
X312700000Y-18580000D01*
G75*
G02*
X312840000Y-18440000I140000J0D01*
G01*
X313120000Y-18440000D01*
G75*
G02*
X313260000Y-18580000I0J-140000D01*
G01*
G37*
G36*
G01*
X338200000Y-20170000D02*
X338200000Y-19830000D01*
G75*
G02*
X338340000Y-19690000I140000J0D01*
G01*
X338620000Y-19690000D01*
G75*
G02*
X338760000Y-19830000I0J-140000D01*
G01*
X338760000Y-20170000D01*
G75*
G02*
X338620000Y-20310000I-140000J0D01*
G01*
X338340000Y-20310000D01*
G75*
G02*
X338200000Y-20170000I0J140000D01*
G01*
G37*
G36*
G01*
X337240000Y-20170000D02*
X337240000Y-19830000D01*
G75*
G02*
X337380000Y-19690000I140000J0D01*
G01*
X337660000Y-19690000D01*
G75*
G02*
X337800000Y-19830000I0J-140000D01*
G01*
X337800000Y-20170000D01*
G75*
G02*
X337660000Y-20310000I-140000J0D01*
G01*
X337380000Y-20310000D01*
G75*
G02*
X337240000Y-20170000I0J140000D01*
G01*
G37*
G36*
G01*
X296720000Y-58320000D02*
X296720000Y-57980000D01*
G75*
G02*
X296860000Y-57840000I140000J0D01*
G01*
X297140000Y-57840000D01*
G75*
G02*
X297280000Y-57980000I0J-140000D01*
G01*
X297280000Y-58320000D01*
G75*
G02*
X297140000Y-58460000I-140000J0D01*
G01*
X296860000Y-58460000D01*
G75*
G02*
X296720000Y-58320000I0J140000D01*
G01*
G37*
G36*
G01*
X295760000Y-58320000D02*
X295760000Y-57980000D01*
G75*
G02*
X295900000Y-57840000I140000J0D01*
G01*
X296180000Y-57840000D01*
G75*
G02*
X296320000Y-57980000I0J-140000D01*
G01*
X296320000Y-58320000D01*
G75*
G02*
X296180000Y-58460000I-140000J0D01*
G01*
X295900000Y-58460000D01*
G75*
G02*
X295760000Y-58320000I0J140000D01*
G01*
G37*
G36*
G01*
X305030000Y-73580000D02*
X305030000Y-73920000D01*
G75*
G02*
X304890000Y-74060000I-140000J0D01*
G01*
X304610000Y-74060000D01*
G75*
G02*
X304470000Y-73920000I0J140000D01*
G01*
X304470000Y-73580000D01*
G75*
G02*
X304610000Y-73440000I140000J0D01*
G01*
X304890000Y-73440000D01*
G75*
G02*
X305030000Y-73580000I0J-140000D01*
G01*
G37*
G36*
G01*
X305990000Y-73580000D02*
X305990000Y-73920000D01*
G75*
G02*
X305850000Y-74060000I-140000J0D01*
G01*
X305570000Y-74060000D01*
G75*
G02*
X305430000Y-73920000I0J140000D01*
G01*
X305430000Y-73580000D01*
G75*
G02*
X305570000Y-73440000I140000J0D01*
G01*
X305850000Y-73440000D01*
G75*
G02*
X305990000Y-73580000I0J-140000D01*
G01*
G37*
G36*
G01*
X302330000Y-59430000D02*
X302670000Y-59430000D01*
G75*
G02*
X302810000Y-59570000I0J-140000D01*
G01*
X302810000Y-59850000D01*
G75*
G02*
X302670000Y-59990000I-140000J0D01*
G01*
X302330000Y-59990000D01*
G75*
G02*
X302190000Y-59850000I0J140000D01*
G01*
X302190000Y-59570000D01*
G75*
G02*
X302330000Y-59430000I140000J0D01*
G01*
G37*
G36*
G01*
X302330000Y-58470000D02*
X302670000Y-58470000D01*
G75*
G02*
X302810000Y-58610000I0J-140000D01*
G01*
X302810000Y-58890000D01*
G75*
G02*
X302670000Y-59030000I-140000J0D01*
G01*
X302330000Y-59030000D01*
G75*
G02*
X302190000Y-58890000I0J140000D01*
G01*
X302190000Y-58610000D01*
G75*
G02*
X302330000Y-58470000I140000J0D01*
G01*
G37*
G36*
G01*
X298680000Y-58320000D02*
X298680000Y-57980000D01*
G75*
G02*
X298820000Y-57840000I140000J0D01*
G01*
X299100000Y-57840000D01*
G75*
G02*
X299240000Y-57980000I0J-140000D01*
G01*
X299240000Y-58320000D01*
G75*
G02*
X299100000Y-58460000I-140000J0D01*
G01*
X298820000Y-58460000D01*
G75*
G02*
X298680000Y-58320000I0J140000D01*
G01*
G37*
G36*
G01*
X297720000Y-58320000D02*
X297720000Y-57980000D01*
G75*
G02*
X297860000Y-57840000I140000J0D01*
G01*
X298140000Y-57840000D01*
G75*
G02*
X298280000Y-57980000I0J-140000D01*
G01*
X298280000Y-58320000D01*
G75*
G02*
X298140000Y-58460000I-140000J0D01*
G01*
X297860000Y-58460000D01*
G75*
G02*
X297720000Y-58320000I0J140000D01*
G01*
G37*
G36*
G01*
X308180000Y-60920000D02*
X308180000Y-60580000D01*
G75*
G02*
X308320000Y-60440000I140000J0D01*
G01*
X308600000Y-60440000D01*
G75*
G02*
X308740000Y-60580000I0J-140000D01*
G01*
X308740000Y-60920000D01*
G75*
G02*
X308600000Y-61060000I-140000J0D01*
G01*
X308320000Y-61060000D01*
G75*
G02*
X308180000Y-60920000I0J140000D01*
G01*
G37*
G36*
G01*
X307220000Y-60920000D02*
X307220000Y-60580000D01*
G75*
G02*
X307360000Y-60440000I140000J0D01*
G01*
X307640000Y-60440000D01*
G75*
G02*
X307780000Y-60580000I0J-140000D01*
G01*
X307780000Y-60920000D01*
G75*
G02*
X307640000Y-61060000I-140000J0D01*
G01*
X307360000Y-61060000D01*
G75*
G02*
X307220000Y-60920000I0J140000D01*
G01*
G37*
G36*
G01*
X308200000Y-59420000D02*
X308200000Y-59080000D01*
G75*
G02*
X308340000Y-58940000I140000J0D01*
G01*
X308620000Y-58940000D01*
G75*
G02*
X308760000Y-59080000I0J-140000D01*
G01*
X308760000Y-59420000D01*
G75*
G02*
X308620000Y-59560000I-140000J0D01*
G01*
X308340000Y-59560000D01*
G75*
G02*
X308200000Y-59420000I0J140000D01*
G01*
G37*
G36*
G01*
X307240000Y-59420000D02*
X307240000Y-59080000D01*
G75*
G02*
X307380000Y-58940000I140000J0D01*
G01*
X307660000Y-58940000D01*
G75*
G02*
X307800000Y-59080000I0J-140000D01*
G01*
X307800000Y-59420000D01*
G75*
G02*
X307660000Y-59560000I-140000J0D01*
G01*
X307380000Y-59560000D01*
G75*
G02*
X307240000Y-59420000I0J140000D01*
G01*
G37*
G36*
G01*
X326920000Y-66300000D02*
X326580000Y-66300000D01*
G75*
G02*
X326440000Y-66160000I0J140000D01*
G01*
X326440000Y-65880000D01*
G75*
G02*
X326580000Y-65740000I140000J0D01*
G01*
X326920000Y-65740000D01*
G75*
G02*
X327060000Y-65880000I0J-140000D01*
G01*
X327060000Y-66160000D01*
G75*
G02*
X326920000Y-66300000I-140000J0D01*
G01*
G37*
G36*
G01*
X326920000Y-67260000D02*
X326580000Y-67260000D01*
G75*
G02*
X326440000Y-67120000I0J140000D01*
G01*
X326440000Y-66840000D01*
G75*
G02*
X326580000Y-66700000I140000J0D01*
G01*
X326920000Y-66700000D01*
G75*
G02*
X327060000Y-66840000I0J-140000D01*
G01*
X327060000Y-67120000D01*
G75*
G02*
X326920000Y-67260000I-140000J0D01*
G01*
G37*
D30*
X306133600Y-3000000D03*
X301866400Y-3000000D03*
X287133600Y-3000000D03*
X282866400Y-3000000D03*
D31*
X321405000Y-2025850D03*
X320135000Y-2025850D03*
X318865000Y-2025850D03*
X317595000Y-2025850D03*
X317595000Y-7474150D03*
X318865000Y-7474150D03*
X320135000Y-7474150D03*
X321405000Y-7474150D03*
D32*
X333900000Y12575000D03*
X331100000Y12575000D03*
D33*
X333750000Y8375000D03*
X333250000Y8375000D03*
X332750000Y8375000D03*
X332250000Y8375000D03*
X331750000Y8375000D03*
X331250000Y8375000D03*
X334250000Y8375000D03*
X330750000Y8375000D03*
D34*
X334850000Y8375000D03*
X330150000Y8375000D03*
X335600000Y8375000D03*
X329400000Y8375000D03*
D22*
G36*
X340230359Y-110448963D02*
G01*
X339398101Y-109866209D01*
X339980855Y-109033951D01*
X340813113Y-109616705D01*
X340230359Y-110448963D01*
G37*
G36*
X338992007Y-112217512D02*
G01*
X338159749Y-111634758D01*
X338742503Y-110802500D01*
X339574761Y-111385254D01*
X338992007Y-112217512D01*
G37*
G36*
X321230359Y-110448963D02*
G01*
X320398101Y-109866209D01*
X320980855Y-109033951D01*
X321813113Y-109616705D01*
X321230359Y-110448963D01*
G37*
G36*
X319992007Y-112217512D02*
G01*
X319159749Y-111634758D01*
X319742503Y-110802500D01*
X320574761Y-111385254D01*
X319992007Y-112217512D01*
G37*
G36*
X302230359Y-110448963D02*
G01*
X301398101Y-109866209D01*
X301980855Y-109033951D01*
X302813113Y-109616705D01*
X302230359Y-110448963D01*
G37*
G36*
X300992007Y-112217512D02*
G01*
X300159749Y-111634758D01*
X300742503Y-110802500D01*
X301574761Y-111385254D01*
X300992007Y-112217512D01*
G37*
G36*
X271355359Y-110448963D02*
G01*
X270523101Y-109866209D01*
X271105855Y-109033951D01*
X271938113Y-109616705D01*
X271355359Y-110448963D01*
G37*
G36*
X270117007Y-112217512D02*
G01*
X269284749Y-111634758D01*
X269867503Y-110802500D01*
X270699761Y-111385254D01*
X270117007Y-112217512D01*
G37*
G36*
X247605359Y-110448963D02*
G01*
X246773101Y-109866209D01*
X247355855Y-109033951D01*
X248188113Y-109616705D01*
X247605359Y-110448963D01*
G37*
G36*
X246367007Y-112217512D02*
G01*
X245534749Y-111634758D01*
X246117503Y-110802500D01*
X246949761Y-111385254D01*
X246367007Y-112217512D01*
G37*
G36*
X223855359Y-110448963D02*
G01*
X223023101Y-109866209D01*
X223605855Y-109033951D01*
X224438113Y-109616705D01*
X223855359Y-110448963D01*
G37*
G36*
X222617007Y-112217512D02*
G01*
X221784749Y-111634758D01*
X222367503Y-110802500D01*
X223199761Y-111385254D01*
X222617007Y-112217512D01*
G37*
G36*
X200105359Y-110448963D02*
G01*
X199273101Y-109866209D01*
X199855855Y-109033951D01*
X200688113Y-109616705D01*
X200105359Y-110448963D01*
G37*
G36*
X198867007Y-112217512D02*
G01*
X198034749Y-111634758D01*
X198617503Y-110802500D01*
X199449761Y-111385254D01*
X198867007Y-112217512D01*
G37*
G36*
X128855359Y-110448963D02*
G01*
X128023101Y-109866209D01*
X128605855Y-109033951D01*
X129438113Y-109616705D01*
X128855359Y-110448963D01*
G37*
G36*
X127617007Y-112217512D02*
G01*
X126784749Y-111634758D01*
X127367503Y-110802500D01*
X128199761Y-111385254D01*
X127617007Y-112217512D01*
G37*
G36*
X57605359Y-110448963D02*
G01*
X56773101Y-109866209D01*
X57355855Y-109033951D01*
X58188113Y-109616705D01*
X57605359Y-110448963D01*
G37*
G36*
X56367007Y-112217512D02*
G01*
X55534749Y-111634758D01*
X56117503Y-110802500D01*
X56949761Y-111385254D01*
X56367007Y-112217512D01*
G37*
G36*
X33855359Y-110448963D02*
G01*
X33023101Y-109866209D01*
X33605855Y-109033951D01*
X34438113Y-109616705D01*
X33855359Y-110448963D01*
G37*
G36*
X32617007Y-112217512D02*
G01*
X31784749Y-111634758D01*
X32367503Y-110802500D01*
X33199761Y-111385254D01*
X32617007Y-112217512D01*
G37*
G36*
X10105359Y-110448963D02*
G01*
X9273101Y-109866209D01*
X9855855Y-109033951D01*
X10688113Y-109616705D01*
X10105359Y-110448963D01*
G37*
G36*
X8867007Y-112217512D02*
G01*
X8034749Y-111634758D01*
X8617503Y-110802500D01*
X9449761Y-111385254D01*
X8867007Y-112217512D01*
G37*
G36*
X321230359Y-91448963D02*
G01*
X320398101Y-90866209D01*
X320980855Y-90033951D01*
X321813113Y-90616705D01*
X321230359Y-91448963D01*
G37*
G36*
X319992007Y-93217512D02*
G01*
X319159749Y-92634758D01*
X319742503Y-91802500D01*
X320574761Y-92385254D01*
X319992007Y-93217512D01*
G37*
G36*
X257105359Y-91448963D02*
G01*
X256273101Y-90866209D01*
X256855855Y-90033951D01*
X257688113Y-90616705D01*
X257105359Y-91448963D01*
G37*
G36*
X255867007Y-93217512D02*
G01*
X255034749Y-92634758D01*
X255617503Y-91802500D01*
X256449761Y-92385254D01*
X255867007Y-93217512D01*
G37*
G36*
X221480359Y-91448963D02*
G01*
X220648101Y-90866209D01*
X221230855Y-90033951D01*
X222063113Y-90616705D01*
X221480359Y-91448963D01*
G37*
G36*
X220242007Y-93217512D02*
G01*
X219409749Y-92634758D01*
X219992503Y-91802500D01*
X220824761Y-92385254D01*
X220242007Y-93217512D01*
G37*
G36*
X202480359Y-91448963D02*
G01*
X201648101Y-90866209D01*
X202230855Y-90033951D01*
X203063113Y-90616705D01*
X202480359Y-91448963D01*
G37*
G36*
X201242007Y-93217512D02*
G01*
X200409749Y-92634758D01*
X200992503Y-91802500D01*
X201824761Y-92385254D01*
X201242007Y-93217512D01*
G37*
G36*
X183480359Y-91448963D02*
G01*
X182648101Y-90866209D01*
X183230855Y-90033951D01*
X184063113Y-90616705D01*
X183480359Y-91448963D01*
G37*
G36*
X182242007Y-93217512D02*
G01*
X181409749Y-92634758D01*
X181992503Y-91802500D01*
X182824761Y-92385254D01*
X182242007Y-93217512D01*
G37*
G36*
X164480359Y-91448963D02*
G01*
X163648101Y-90866209D01*
X164230855Y-90033951D01*
X165063113Y-90616705D01*
X164480359Y-91448963D01*
G37*
G36*
X163242007Y-93217512D02*
G01*
X162409749Y-92634758D01*
X162992503Y-91802500D01*
X163824761Y-92385254D01*
X163242007Y-93217512D01*
G37*
G36*
X145480359Y-91448963D02*
G01*
X144648101Y-90866209D01*
X145230855Y-90033951D01*
X146063113Y-90616705D01*
X145480359Y-91448963D01*
G37*
G36*
X144242007Y-93217512D02*
G01*
X143409749Y-92634758D01*
X143992503Y-91802500D01*
X144824761Y-92385254D01*
X144242007Y-93217512D01*
G37*
G36*
X126480359Y-91448963D02*
G01*
X125648101Y-90866209D01*
X126230855Y-90033951D01*
X127063113Y-90616705D01*
X126480359Y-91448963D01*
G37*
G36*
X125242007Y-93217512D02*
G01*
X124409749Y-92634758D01*
X124992503Y-91802500D01*
X125824761Y-92385254D01*
X125242007Y-93217512D01*
G37*
G36*
X107480359Y-91448963D02*
G01*
X106648101Y-90866209D01*
X107230855Y-90033951D01*
X108063113Y-90616705D01*
X107480359Y-91448963D01*
G37*
G36*
X106242007Y-93217512D02*
G01*
X105409749Y-92634758D01*
X105992503Y-91802500D01*
X106824761Y-92385254D01*
X106242007Y-93217512D01*
G37*
G36*
X88480359Y-91448963D02*
G01*
X87648101Y-90866209D01*
X88230855Y-90033951D01*
X89063113Y-90616705D01*
X88480359Y-91448963D01*
G37*
G36*
X87242007Y-93217512D02*
G01*
X86409749Y-92634758D01*
X86992503Y-91802500D01*
X87824761Y-92385254D01*
X87242007Y-93217512D01*
G37*
G36*
X69480359Y-91448963D02*
G01*
X68648101Y-90866209D01*
X69230855Y-90033951D01*
X70063113Y-90616705D01*
X69480359Y-91448963D01*
G37*
G36*
X68242007Y-93217512D02*
G01*
X67409749Y-92634758D01*
X67992503Y-91802500D01*
X68824761Y-92385254D01*
X68242007Y-93217512D01*
G37*
G36*
X50480359Y-91448963D02*
G01*
X49648101Y-90866209D01*
X50230855Y-90033951D01*
X51063113Y-90616705D01*
X50480359Y-91448963D01*
G37*
G36*
X49242007Y-93217512D02*
G01*
X48409749Y-92634758D01*
X48992503Y-91802500D01*
X49824761Y-92385254D01*
X49242007Y-93217512D01*
G37*
G36*
X19605359Y-91448963D02*
G01*
X18773101Y-90866209D01*
X19355855Y-90033951D01*
X20188113Y-90616705D01*
X19605359Y-91448963D01*
G37*
G36*
X18367007Y-93217512D02*
G01*
X17534749Y-92634758D01*
X18117503Y-91802500D01*
X18949761Y-92385254D01*
X18367007Y-93217512D01*
G37*
G36*
X261855359Y-72448963D02*
G01*
X261023101Y-71866209D01*
X261605855Y-71033951D01*
X262438113Y-71616705D01*
X261855359Y-72448963D01*
G37*
G36*
X260617007Y-74217512D02*
G01*
X259784749Y-73634758D01*
X260367503Y-72802500D01*
X261199761Y-73385254D01*
X260617007Y-74217512D01*
G37*
G36*
X230980359Y-72448963D02*
G01*
X230148101Y-71866209D01*
X230730855Y-71033951D01*
X231563113Y-71616705D01*
X230980359Y-72448963D01*
G37*
G36*
X229742007Y-74217512D02*
G01*
X228909749Y-73634758D01*
X229492503Y-72802500D01*
X230324761Y-73385254D01*
X229742007Y-74217512D01*
G37*
G36*
X211980359Y-72448963D02*
G01*
X211148101Y-71866209D01*
X211730855Y-71033951D01*
X212563113Y-71616705D01*
X211980359Y-72448963D01*
G37*
G36*
X210742007Y-74217512D02*
G01*
X209909749Y-73634758D01*
X210492503Y-72802500D01*
X211324761Y-73385254D01*
X210742007Y-74217512D01*
G37*
G36*
X192980359Y-72448963D02*
G01*
X192148101Y-71866209D01*
X192730855Y-71033951D01*
X193563113Y-71616705D01*
X192980359Y-72448963D01*
G37*
G36*
X191742007Y-74217512D02*
G01*
X190909749Y-73634758D01*
X191492503Y-72802500D01*
X192324761Y-73385254D01*
X191742007Y-74217512D01*
G37*
G36*
X173980359Y-72448963D02*
G01*
X173148101Y-71866209D01*
X173730855Y-71033951D01*
X174563113Y-71616705D01*
X173980359Y-72448963D01*
G37*
G36*
X172742007Y-74217512D02*
G01*
X171909749Y-73634758D01*
X172492503Y-72802500D01*
X173324761Y-73385254D01*
X172742007Y-74217512D01*
G37*
G36*
X154980359Y-72448963D02*
G01*
X154148101Y-71866209D01*
X154730855Y-71033951D01*
X155563113Y-71616705D01*
X154980359Y-72448963D01*
G37*
G36*
X153742007Y-74217512D02*
G01*
X152909749Y-73634758D01*
X153492503Y-72802500D01*
X154324761Y-73385254D01*
X153742007Y-74217512D01*
G37*
G36*
X135980359Y-72448963D02*
G01*
X135148101Y-71866209D01*
X135730855Y-71033951D01*
X136563113Y-71616705D01*
X135980359Y-72448963D01*
G37*
G36*
X134742007Y-74217512D02*
G01*
X133909749Y-73634758D01*
X134492503Y-72802500D01*
X135324761Y-73385254D01*
X134742007Y-74217512D01*
G37*
G36*
X116980359Y-72448963D02*
G01*
X116148101Y-71866209D01*
X116730855Y-71033951D01*
X117563113Y-71616705D01*
X116980359Y-72448963D01*
G37*
G36*
X115742007Y-74217512D02*
G01*
X114909749Y-73634758D01*
X115492503Y-72802500D01*
X116324761Y-73385254D01*
X115742007Y-74217512D01*
G37*
G36*
X97980359Y-72448963D02*
G01*
X97148101Y-71866209D01*
X97730855Y-71033951D01*
X98563113Y-71616705D01*
X97980359Y-72448963D01*
G37*
G36*
X96742007Y-74217512D02*
G01*
X95909749Y-73634758D01*
X96492503Y-72802500D01*
X97324761Y-73385254D01*
X96742007Y-74217512D01*
G37*
G36*
X78980359Y-72448963D02*
G01*
X78148101Y-71866209D01*
X78730855Y-71033951D01*
X79563113Y-71616705D01*
X78980359Y-72448963D01*
G37*
G36*
X77742007Y-74217512D02*
G01*
X76909749Y-73634758D01*
X77492503Y-72802500D01*
X78324761Y-73385254D01*
X77742007Y-74217512D01*
G37*
G36*
X59980359Y-72448963D02*
G01*
X59148101Y-71866209D01*
X59730855Y-71033951D01*
X60563113Y-71616705D01*
X59980359Y-72448963D01*
G37*
G36*
X58742007Y-74217512D02*
G01*
X57909749Y-73634758D01*
X58492503Y-72802500D01*
X59324761Y-73385254D01*
X58742007Y-74217512D01*
G37*
G36*
X40980359Y-72448963D02*
G01*
X40148101Y-71866209D01*
X40730855Y-71033951D01*
X41563113Y-71616705D01*
X40980359Y-72448963D01*
G37*
G36*
X39742007Y-74217512D02*
G01*
X38909749Y-73634758D01*
X39492503Y-72802500D01*
X40324761Y-73385254D01*
X39742007Y-74217512D01*
G37*
G36*
X14855359Y-72448963D02*
G01*
X14023101Y-71866209D01*
X14605855Y-71033951D01*
X15438113Y-71616705D01*
X14855359Y-72448963D01*
G37*
G36*
X13617007Y-74217512D02*
G01*
X12784749Y-73634758D01*
X13367503Y-72802500D01*
X14199761Y-73385254D01*
X13617007Y-74217512D01*
G37*
G36*
X340230359Y-53448963D02*
G01*
X339398101Y-52866209D01*
X339980855Y-52033951D01*
X340813113Y-52616705D01*
X340230359Y-53448963D01*
G37*
G36*
X338992007Y-55217512D02*
G01*
X338159749Y-54634758D01*
X338742503Y-53802500D01*
X339574761Y-54385254D01*
X338992007Y-55217512D01*
G37*
G36*
X321230359Y-53448963D02*
G01*
X320398101Y-52866209D01*
X320980855Y-52033951D01*
X321813113Y-52616705D01*
X321230359Y-53448963D01*
G37*
G36*
X319992007Y-55217512D02*
G01*
X319159749Y-54634758D01*
X319742503Y-53802500D01*
X320574761Y-54385254D01*
X319992007Y-55217512D01*
G37*
G36*
X302230359Y-53448963D02*
G01*
X301398101Y-52866209D01*
X301980855Y-52033951D01*
X302813113Y-52616705D01*
X302230359Y-53448963D01*
G37*
G36*
X300992007Y-55217512D02*
G01*
X300159749Y-54634758D01*
X300742503Y-53802500D01*
X301574761Y-54385254D01*
X300992007Y-55217512D01*
G37*
G36*
X268980359Y-53448963D02*
G01*
X268148101Y-52866209D01*
X268730855Y-52033951D01*
X269563113Y-52616705D01*
X268980359Y-53448963D01*
G37*
G36*
X267742007Y-55217512D02*
G01*
X266909749Y-54634758D01*
X267492503Y-53802500D01*
X268324761Y-54385254D01*
X267742007Y-55217512D01*
G37*
G36*
X245230359Y-53448963D02*
G01*
X244398101Y-52866209D01*
X244980855Y-52033951D01*
X245813113Y-52616705D01*
X245230359Y-53448963D01*
G37*
G36*
X243992007Y-55217512D02*
G01*
X243159749Y-54634758D01*
X243742503Y-53802500D01*
X244574761Y-54385254D01*
X243992007Y-55217512D01*
G37*
G36*
X226230359Y-53448963D02*
G01*
X225398101Y-52866209D01*
X225980855Y-52033951D01*
X226813113Y-52616705D01*
X226230359Y-53448963D01*
G37*
G36*
X224992007Y-55217512D02*
G01*
X224159749Y-54634758D01*
X224742503Y-53802500D01*
X225574761Y-54385254D01*
X224992007Y-55217512D01*
G37*
G36*
X207230359Y-53448963D02*
G01*
X206398101Y-52866209D01*
X206980855Y-52033951D01*
X207813113Y-52616705D01*
X207230359Y-53448963D01*
G37*
G36*
X205992007Y-55217512D02*
G01*
X205159749Y-54634758D01*
X205742503Y-53802500D01*
X206574761Y-54385254D01*
X205992007Y-55217512D01*
G37*
G36*
X188230359Y-53448963D02*
G01*
X187398101Y-52866209D01*
X187980855Y-52033951D01*
X188813113Y-52616705D01*
X188230359Y-53448963D01*
G37*
G36*
X186992007Y-55217512D02*
G01*
X186159749Y-54634758D01*
X186742503Y-53802500D01*
X187574761Y-54385254D01*
X186992007Y-55217512D01*
G37*
G36*
X169230359Y-53448963D02*
G01*
X168398101Y-52866209D01*
X168980855Y-52033951D01*
X169813113Y-52616705D01*
X169230359Y-53448963D01*
G37*
G36*
X167992007Y-55217512D02*
G01*
X167159749Y-54634758D01*
X167742503Y-53802500D01*
X168574761Y-54385254D01*
X167992007Y-55217512D01*
G37*
G36*
X150230359Y-53448963D02*
G01*
X149398101Y-52866209D01*
X149980855Y-52033951D01*
X150813113Y-52616705D01*
X150230359Y-53448963D01*
G37*
G36*
X148992007Y-55217512D02*
G01*
X148159749Y-54634758D01*
X148742503Y-53802500D01*
X149574761Y-54385254D01*
X148992007Y-55217512D01*
G37*
G36*
X131230359Y-53448963D02*
G01*
X130398101Y-52866209D01*
X130980855Y-52033951D01*
X131813113Y-52616705D01*
X131230359Y-53448963D01*
G37*
G36*
X129992007Y-55217512D02*
G01*
X129159749Y-54634758D01*
X129742503Y-53802500D01*
X130574761Y-54385254D01*
X129992007Y-55217512D01*
G37*
G36*
X112230359Y-53448963D02*
G01*
X111398101Y-52866209D01*
X111980855Y-52033951D01*
X112813113Y-52616705D01*
X112230359Y-53448963D01*
G37*
G36*
X110992007Y-55217512D02*
G01*
X110159749Y-54634758D01*
X110742503Y-53802500D01*
X111574761Y-54385254D01*
X110992007Y-55217512D01*
G37*
G36*
X93230359Y-53448963D02*
G01*
X92398101Y-52866209D01*
X92980855Y-52033951D01*
X93813113Y-52616705D01*
X93230359Y-53448963D01*
G37*
G36*
X91992007Y-55217512D02*
G01*
X91159749Y-54634758D01*
X91742503Y-53802500D01*
X92574761Y-54385254D01*
X91992007Y-55217512D01*
G37*
G36*
X74230359Y-53448963D02*
G01*
X73398101Y-52866209D01*
X73980855Y-52033951D01*
X74813113Y-52616705D01*
X74230359Y-53448963D01*
G37*
G36*
X72992007Y-55217512D02*
G01*
X72159749Y-54634758D01*
X72742503Y-53802500D01*
X73574761Y-54385254D01*
X72992007Y-55217512D01*
G37*
G36*
X55230359Y-53448963D02*
G01*
X54398101Y-52866209D01*
X54980855Y-52033951D01*
X55813113Y-52616705D01*
X55230359Y-53448963D01*
G37*
G36*
X53992007Y-55217512D02*
G01*
X53159749Y-54634758D01*
X53742503Y-53802500D01*
X54574761Y-54385254D01*
X53992007Y-55217512D01*
G37*
G36*
X36230359Y-53448963D02*
G01*
X35398101Y-52866209D01*
X35980855Y-52033951D01*
X36813113Y-52616705D01*
X36230359Y-53448963D01*
G37*
G36*
X34992007Y-55217512D02*
G01*
X34159749Y-54634758D01*
X34742503Y-53802500D01*
X35574761Y-54385254D01*
X34992007Y-55217512D01*
G37*
G36*
X12480359Y-53448963D02*
G01*
X11648101Y-52866209D01*
X12230855Y-52033951D01*
X13063113Y-52616705D01*
X12480359Y-53448963D01*
G37*
G36*
X11242007Y-55217512D02*
G01*
X10409749Y-54634758D01*
X10992503Y-53802500D01*
X11824761Y-54385254D01*
X11242007Y-55217512D01*
G37*
G36*
X340230359Y-34448963D02*
G01*
X339398101Y-33866209D01*
X339980855Y-33033951D01*
X340813113Y-33616705D01*
X340230359Y-34448963D01*
G37*
G36*
X338992007Y-36217512D02*
G01*
X338159749Y-35634758D01*
X338742503Y-34802500D01*
X339574761Y-35385254D01*
X338992007Y-36217512D01*
G37*
G36*
X321230359Y-34448963D02*
G01*
X320398101Y-33866209D01*
X320980855Y-33033951D01*
X321813113Y-33616705D01*
X321230359Y-34448963D01*
G37*
G36*
X319992007Y-36217512D02*
G01*
X319159749Y-35634758D01*
X319742503Y-34802500D01*
X320574761Y-35385254D01*
X319992007Y-36217512D01*
G37*
G36*
X302230359Y-34448963D02*
G01*
X301398101Y-33866209D01*
X301980855Y-33033951D01*
X302813113Y-33616705D01*
X302230359Y-34448963D01*
G37*
G36*
X300992007Y-36217512D02*
G01*
X300159749Y-35634758D01*
X300742503Y-34802500D01*
X301574761Y-35385254D01*
X300992007Y-36217512D01*
G37*
G36*
X264230359Y-34448963D02*
G01*
X263398101Y-33866209D01*
X263980855Y-33033951D01*
X264813113Y-33616705D01*
X264230359Y-34448963D01*
G37*
G36*
X262992007Y-36217512D02*
G01*
X262159749Y-35634758D01*
X262742503Y-34802500D01*
X263574761Y-35385254D01*
X262992007Y-36217512D01*
G37*
G36*
X235730359Y-34448963D02*
G01*
X234898101Y-33866209D01*
X235480855Y-33033951D01*
X236313113Y-33616705D01*
X235730359Y-34448963D01*
G37*
G36*
X234492007Y-36217512D02*
G01*
X233659749Y-35634758D01*
X234242503Y-34802500D01*
X235074761Y-35385254D01*
X234492007Y-36217512D01*
G37*
G36*
X216730359Y-34448963D02*
G01*
X215898101Y-33866209D01*
X216480855Y-33033951D01*
X217313113Y-33616705D01*
X216730359Y-34448963D01*
G37*
G36*
X215492007Y-36217512D02*
G01*
X214659749Y-35634758D01*
X215242503Y-34802500D01*
X216074761Y-35385254D01*
X215492007Y-36217512D01*
G37*
G36*
X197730359Y-34448963D02*
G01*
X196898101Y-33866209D01*
X197480855Y-33033951D01*
X198313113Y-33616705D01*
X197730359Y-34448963D01*
G37*
G36*
X196492007Y-36217512D02*
G01*
X195659749Y-35634758D01*
X196242503Y-34802500D01*
X197074761Y-35385254D01*
X196492007Y-36217512D01*
G37*
G36*
X178730359Y-34448963D02*
G01*
X177898101Y-33866209D01*
X178480855Y-33033951D01*
X179313113Y-33616705D01*
X178730359Y-34448963D01*
G37*
G36*
X177492007Y-36217512D02*
G01*
X176659749Y-35634758D01*
X177242503Y-34802500D01*
X178074761Y-35385254D01*
X177492007Y-36217512D01*
G37*
G36*
X159730359Y-34448963D02*
G01*
X158898101Y-33866209D01*
X159480855Y-33033951D01*
X160313113Y-33616705D01*
X159730359Y-34448963D01*
G37*
G36*
X158492007Y-36217512D02*
G01*
X157659749Y-35634758D01*
X158242503Y-34802500D01*
X159074761Y-35385254D01*
X158492007Y-36217512D01*
G37*
G36*
X140730359Y-34448963D02*
G01*
X139898101Y-33866209D01*
X140480855Y-33033951D01*
X141313113Y-33616705D01*
X140730359Y-34448963D01*
G37*
G36*
X139492007Y-36217512D02*
G01*
X138659749Y-35634758D01*
X139242503Y-34802500D01*
X140074761Y-35385254D01*
X139492007Y-36217512D01*
G37*
G36*
X121730359Y-34448963D02*
G01*
X120898101Y-33866209D01*
X121480855Y-33033951D01*
X122313113Y-33616705D01*
X121730359Y-34448963D01*
G37*
G36*
X120492007Y-36217512D02*
G01*
X119659749Y-35634758D01*
X120242503Y-34802500D01*
X121074761Y-35385254D01*
X120492007Y-36217512D01*
G37*
G36*
X102730359Y-34448963D02*
G01*
X101898101Y-33866209D01*
X102480855Y-33033951D01*
X103313113Y-33616705D01*
X102730359Y-34448963D01*
G37*
G36*
X101492007Y-36217512D02*
G01*
X100659749Y-35634758D01*
X101242503Y-34802500D01*
X102074761Y-35385254D01*
X101492007Y-36217512D01*
G37*
G36*
X83730359Y-34448963D02*
G01*
X82898101Y-33866209D01*
X83480855Y-33033951D01*
X84313113Y-33616705D01*
X83730359Y-34448963D01*
G37*
G36*
X82492007Y-36217512D02*
G01*
X81659749Y-35634758D01*
X82242503Y-34802500D01*
X83074761Y-35385254D01*
X82492007Y-36217512D01*
G37*
G36*
X64730359Y-34448963D02*
G01*
X63898101Y-33866209D01*
X64480855Y-33033951D01*
X65313113Y-33616705D01*
X64730359Y-34448963D01*
G37*
G36*
X63492007Y-36217512D02*
G01*
X62659749Y-35634758D01*
X63242503Y-34802500D01*
X64074761Y-35385254D01*
X63492007Y-36217512D01*
G37*
G36*
X45730359Y-34448963D02*
G01*
X44898101Y-33866209D01*
X45480855Y-33033951D01*
X46313113Y-33616705D01*
X45730359Y-34448963D01*
G37*
G36*
X44492007Y-36217512D02*
G01*
X43659749Y-35634758D01*
X44242503Y-34802500D01*
X45074761Y-35385254D01*
X44492007Y-36217512D01*
G37*
G36*
X26730359Y-34448963D02*
G01*
X25898101Y-33866209D01*
X26480855Y-33033951D01*
X27313113Y-33616705D01*
X26730359Y-34448963D01*
G37*
G36*
X25492007Y-36217512D02*
G01*
X24659749Y-35634758D01*
X25242503Y-34802500D01*
X26074761Y-35385254D01*
X25492007Y-36217512D01*
G37*
G36*
X7730359Y-34448963D02*
G01*
X6898101Y-33866209D01*
X7480855Y-33033951D01*
X8313113Y-33616705D01*
X7730359Y-34448963D01*
G37*
G36*
X6492007Y-36217512D02*
G01*
X5659749Y-35634758D01*
X6242503Y-34802500D01*
X7074761Y-35385254D01*
X6492007Y-36217512D01*
G37*
G36*
X273730359Y-5948963D02*
G01*
X272898101Y-5366209D01*
X273480855Y-4533951D01*
X274313113Y-5116705D01*
X273730359Y-5948963D01*
G37*
G36*
X272492007Y-7717512D02*
G01*
X271659749Y-7134758D01*
X272242503Y-6302500D01*
X273074761Y-6885254D01*
X272492007Y-7717512D01*
G37*
G36*
X254730359Y-5948963D02*
G01*
X253898101Y-5366209D01*
X254480855Y-4533951D01*
X255313113Y-5116705D01*
X254730359Y-5948963D01*
G37*
G36*
X253492007Y-7717512D02*
G01*
X252659749Y-7134758D01*
X253242503Y-6302500D01*
X254074761Y-6885254D01*
X253492007Y-7717512D01*
G37*
G36*
X235730359Y-5948963D02*
G01*
X234898101Y-5366209D01*
X235480855Y-4533951D01*
X236313113Y-5116705D01*
X235730359Y-5948963D01*
G37*
G36*
X234492007Y-7717512D02*
G01*
X233659749Y-7134758D01*
X234242503Y-6302500D01*
X235074761Y-6885254D01*
X234492007Y-7717512D01*
G37*
G36*
X216730359Y-5948963D02*
G01*
X215898101Y-5366209D01*
X216480855Y-4533951D01*
X217313113Y-5116705D01*
X216730359Y-5948963D01*
G37*
G36*
X215492007Y-7717512D02*
G01*
X214659749Y-7134758D01*
X215242503Y-6302500D01*
X216074761Y-6885254D01*
X215492007Y-7717512D01*
G37*
G36*
X188230359Y-5948963D02*
G01*
X187398101Y-5366209D01*
X187980855Y-4533951D01*
X188813113Y-5116705D01*
X188230359Y-5948963D01*
G37*
G36*
X186992007Y-7717512D02*
G01*
X186159749Y-7134758D01*
X186742503Y-6302500D01*
X187574761Y-6885254D01*
X186992007Y-7717512D01*
G37*
G36*
X169230359Y-5948963D02*
G01*
X168398101Y-5366209D01*
X168980855Y-4533951D01*
X169813113Y-5116705D01*
X169230359Y-5948963D01*
G37*
G36*
X167992007Y-7717512D02*
G01*
X167159749Y-7134758D01*
X167742503Y-6302500D01*
X168574761Y-6885254D01*
X167992007Y-7717512D01*
G37*
G36*
X150230359Y-5948963D02*
G01*
X149398101Y-5366209D01*
X149980855Y-4533951D01*
X150813113Y-5116705D01*
X150230359Y-5948963D01*
G37*
G36*
X148992007Y-7717512D02*
G01*
X148159749Y-7134758D01*
X148742503Y-6302500D01*
X149574761Y-6885254D01*
X148992007Y-7717512D01*
G37*
G36*
X131230359Y-5948963D02*
G01*
X130398101Y-5366209D01*
X130980855Y-4533951D01*
X131813113Y-5116705D01*
X131230359Y-5948963D01*
G37*
G36*
X129992007Y-7717512D02*
G01*
X129159749Y-7134758D01*
X129742503Y-6302500D01*
X130574761Y-6885254D01*
X129992007Y-7717512D01*
G37*
G36*
X102730359Y-5948963D02*
G01*
X101898101Y-5366209D01*
X102480855Y-4533951D01*
X103313113Y-5116705D01*
X102730359Y-5948963D01*
G37*
G36*
X101492007Y-7717512D02*
G01*
X100659749Y-7134758D01*
X101242503Y-6302500D01*
X102074761Y-6885254D01*
X101492007Y-7717512D01*
G37*
G36*
X83730359Y-5948963D02*
G01*
X82898101Y-5366209D01*
X83480855Y-4533951D01*
X84313113Y-5116705D01*
X83730359Y-5948963D01*
G37*
G36*
X82492007Y-7717512D02*
G01*
X81659749Y-7134758D01*
X82242503Y-6302500D01*
X83074761Y-6885254D01*
X82492007Y-7717512D01*
G37*
G36*
X64730359Y-5948963D02*
G01*
X63898101Y-5366209D01*
X64480855Y-4533951D01*
X65313113Y-5116705D01*
X64730359Y-5948963D01*
G37*
G36*
X63492007Y-7717512D02*
G01*
X62659749Y-7134758D01*
X63242503Y-6302500D01*
X64074761Y-6885254D01*
X63492007Y-7717512D01*
G37*
G36*
X45730359Y-5948963D02*
G01*
X44898101Y-5366209D01*
X45480855Y-4533951D01*
X46313113Y-5116705D01*
X45730359Y-5948963D01*
G37*
G36*
X44492007Y-7717512D02*
G01*
X43659749Y-7134758D01*
X44242503Y-6302500D01*
X45074761Y-6885254D01*
X44492007Y-7717512D01*
G37*
G36*
X7730359Y-5948963D02*
G01*
X6898101Y-5366209D01*
X7480855Y-4533951D01*
X8313113Y-5116705D01*
X7730359Y-5948963D01*
G37*
G36*
X6492007Y-7717512D02*
G01*
X5659749Y-7134758D01*
X6242503Y-6302500D01*
X7074761Y-6885254D01*
X6492007Y-7717512D01*
G37*
D35*
X7560000Y-2540000D03*
X-6290000Y-5080000D03*
X45560000Y-2540000D03*
X31710000Y-5080000D03*
X64560000Y-2540000D03*
X50710000Y-5080000D03*
X83560000Y-2540000D03*
X69710000Y-5080000D03*
X102560000Y-2540000D03*
X88710000Y-5080000D03*
X131060000Y-2540000D03*
X117210000Y-5080000D03*
X150060000Y-2540000D03*
X136210000Y-5080000D03*
X169060000Y-2540000D03*
X155210000Y-5080000D03*
X188060000Y-2540000D03*
X174210000Y-5080000D03*
X216560000Y-2540000D03*
X202710000Y-5080000D03*
X235560000Y-2540000D03*
X221710000Y-5080000D03*
X254560000Y-2540000D03*
X240710000Y-5080000D03*
X273560000Y-2540000D03*
X259710000Y-5080000D03*
X7560000Y-31040000D03*
X-6290000Y-33580000D03*
X26560000Y-31040000D03*
X12710000Y-33580000D03*
X45560000Y-31040000D03*
X31710000Y-33580000D03*
X64560000Y-31040000D03*
X50710000Y-33580000D03*
X83560000Y-31040000D03*
X69710000Y-33580000D03*
X102560000Y-31040000D03*
X88710000Y-33580000D03*
X121560000Y-31040000D03*
X107710000Y-33580000D03*
X140560000Y-31040000D03*
X126710000Y-33580000D03*
X159560000Y-31040000D03*
X145710000Y-33580000D03*
X178560000Y-31040000D03*
X164710000Y-33580000D03*
X197560000Y-31040000D03*
X183710000Y-33580000D03*
X216560000Y-31040000D03*
X202710000Y-33580000D03*
X235560000Y-31040000D03*
X221710000Y-33580000D03*
X302060000Y-31040000D03*
X288210000Y-33580000D03*
X321060000Y-31040000D03*
X307210000Y-33580000D03*
X340060000Y-31040000D03*
X326210000Y-33580000D03*
X36060000Y-50040000D03*
X22210000Y-52580000D03*
X55060000Y-50040000D03*
X41210000Y-52580000D03*
X74060000Y-50040000D03*
X60210000Y-52580000D03*
X93060000Y-50040000D03*
X79210000Y-52580000D03*
X112060000Y-50040000D03*
X98210000Y-52580000D03*
X131060000Y-50040000D03*
X117210000Y-52580000D03*
X150060000Y-50040000D03*
X136210000Y-52580000D03*
X169060000Y-50040000D03*
X155210000Y-52580000D03*
X188060000Y-50040000D03*
X174210000Y-52580000D03*
X207060000Y-50040000D03*
X193210000Y-52580000D03*
X226060000Y-50040000D03*
X212210000Y-52580000D03*
X302060000Y-50040000D03*
X288210000Y-52580000D03*
X321060000Y-50040000D03*
X307210000Y-52580000D03*
X340060000Y-50040000D03*
X326210000Y-52580000D03*
X40810000Y-69040000D03*
X26960000Y-71580000D03*
X59810000Y-69040000D03*
X45960000Y-71580000D03*
X78810000Y-69040000D03*
X64960000Y-71580000D03*
X97810000Y-69040000D03*
X83960000Y-71580000D03*
X116810000Y-69040000D03*
X102960000Y-71580000D03*
X135810000Y-69040000D03*
X121960000Y-71580000D03*
X154810000Y-69040000D03*
X140960000Y-71580000D03*
X173810000Y-69040000D03*
X159960000Y-71580000D03*
X192810000Y-69040000D03*
X178960000Y-71580000D03*
X211810000Y-69040000D03*
X197960000Y-71580000D03*
X230810000Y-69040000D03*
X216960000Y-71580000D03*
X50310000Y-88040000D03*
X36460000Y-90580000D03*
X69310000Y-88040000D03*
X55460000Y-90580000D03*
X88310000Y-88040000D03*
X74460000Y-90580000D03*
X107310000Y-88040000D03*
X93460000Y-90580000D03*
X126310000Y-88040000D03*
X112460000Y-90580000D03*
X145310000Y-88040000D03*
X131460000Y-90580000D03*
X164310000Y-88040000D03*
X150460000Y-90580000D03*
X183310000Y-88040000D03*
X169460000Y-90580000D03*
X202310000Y-88040000D03*
X188460000Y-90580000D03*
X221310000Y-88040000D03*
X207460000Y-90580000D03*
X321060000Y-88040000D03*
X307210000Y-90580000D03*
X302060000Y-107040000D03*
X288210000Y-109580000D03*
X321060000Y-107040000D03*
X307210000Y-109580000D03*
X340060000Y-107040000D03*
X326210000Y-109580000D03*
X264060000Y-31040000D03*
X250210000Y-33580000D03*
X245060000Y-50040000D03*
X231210000Y-52580000D03*
X12310000Y-50040000D03*
X-1540000Y-52580000D03*
X14685000Y-69040000D03*
X835000Y-71580000D03*
X261685000Y-69040000D03*
X247835000Y-71580000D03*
X19435000Y-88040000D03*
X5585000Y-90580000D03*
X256935000Y-88040000D03*
X243085000Y-90580000D03*
X9935000Y-107040000D03*
X-3915000Y-109580000D03*
X33685000Y-107040000D03*
X19835000Y-109580000D03*
X57435000Y-107040000D03*
X43585000Y-109580000D03*
X128685000Y-107040000D03*
X114835000Y-109580000D03*
X199935000Y-107040000D03*
X186085000Y-109580000D03*
X223685000Y-107040000D03*
X209835000Y-109580000D03*
X247435000Y-107040000D03*
X233585000Y-109580000D03*
X271185000Y-107040000D03*
X257335000Y-109580000D03*
X268810000Y-50040000D03*
X254960000Y-52580000D03*
D36*
X336450000Y-64595000D03*
X332550000Y-64595000D03*
X336450000Y-65865000D03*
X332550000Y-65865000D03*
X336450000Y-67135000D03*
X332550000Y-67135000D03*
X336450000Y-68405000D03*
X332550000Y-68405000D03*
G36*
G01*
X322510000Y-2670000D02*
X322510000Y-2330000D01*
G75*
G02*
X322650000Y-2190000I140000J0D01*
G01*
X322930000Y-2190000D01*
G75*
G02*
X323070000Y-2330000I0J-140000D01*
G01*
X323070000Y-2670000D01*
G75*
G02*
X322930000Y-2810000I-140000J0D01*
G01*
X322650000Y-2810000D01*
G75*
G02*
X322510000Y-2670000I0J140000D01*
G01*
G37*
G36*
G01*
X323470000Y-2670000D02*
X323470000Y-2330000D01*
G75*
G02*
X323610000Y-2190000I140000J0D01*
G01*
X323890000Y-2190000D01*
G75*
G02*
X324030000Y-2330000I0J-140000D01*
G01*
X324030000Y-2670000D01*
G75*
G02*
X323890000Y-2810000I-140000J0D01*
G01*
X323610000Y-2810000D01*
G75*
G02*
X323470000Y-2670000I0J140000D01*
G01*
G37*
G36*
G01*
X331920000Y-18510000D02*
X331580000Y-18510000D01*
G75*
G02*
X331440000Y-18370000I0J140000D01*
G01*
X331440000Y-18090000D01*
G75*
G02*
X331580000Y-17950000I140000J0D01*
G01*
X331920000Y-17950000D01*
G75*
G02*
X332060000Y-18090000I0J-140000D01*
G01*
X332060000Y-18370000D01*
G75*
G02*
X331920000Y-18510000I-140000J0D01*
G01*
G37*
G36*
G01*
X331920000Y-17550000D02*
X331580000Y-17550000D01*
G75*
G02*
X331440000Y-17410000I0J140000D01*
G01*
X331440000Y-17130000D01*
G75*
G02*
X331580000Y-16990000I140000J0D01*
G01*
X331920000Y-16990000D01*
G75*
G02*
X332060000Y-17130000I0J-140000D01*
G01*
X332060000Y-17410000D01*
G75*
G02*
X331920000Y-17550000I-140000J0D01*
G01*
G37*
G36*
G01*
X326580000Y-17010000D02*
X326920000Y-17010000D01*
G75*
G02*
X327060000Y-17150000I0J-140000D01*
G01*
X327060000Y-17430000D01*
G75*
G02*
X326920000Y-17570000I-140000J0D01*
G01*
X326580000Y-17570000D01*
G75*
G02*
X326440000Y-17430000I0J140000D01*
G01*
X326440000Y-17150000D01*
G75*
G02*
X326580000Y-17010000I140000J0D01*
G01*
G37*
G36*
G01*
X326580000Y-17970000D02*
X326920000Y-17970000D01*
G75*
G02*
X327060000Y-18110000I0J-140000D01*
G01*
X327060000Y-18390000D01*
G75*
G02*
X326920000Y-18530000I-140000J0D01*
G01*
X326580000Y-18530000D01*
G75*
G02*
X326440000Y-18390000I0J140000D01*
G01*
X326440000Y-18110000D01*
G75*
G02*
X326580000Y-17970000I140000J0D01*
G01*
G37*
G36*
G01*
X307680000Y-7170000D02*
X307680000Y-6830000D01*
G75*
G02*
X307820000Y-6690000I140000J0D01*
G01*
X308100000Y-6690000D01*
G75*
G02*
X308240000Y-6830000I0J-140000D01*
G01*
X308240000Y-7170000D01*
G75*
G02*
X308100000Y-7310000I-140000J0D01*
G01*
X307820000Y-7310000D01*
G75*
G02*
X307680000Y-7170000I0J140000D01*
G01*
G37*
G36*
G01*
X306720000Y-7170000D02*
X306720000Y-6830000D01*
G75*
G02*
X306860000Y-6690000I140000J0D01*
G01*
X307140000Y-6690000D01*
G75*
G02*
X307280000Y-6830000I0J-140000D01*
G01*
X307280000Y-7170000D01*
G75*
G02*
X307140000Y-7310000I-140000J0D01*
G01*
X306860000Y-7310000D01*
G75*
G02*
X306720000Y-7170000I0J140000D01*
G01*
G37*
G36*
G01*
X336080000Y-5470000D02*
X336420000Y-5470000D01*
G75*
G02*
X336560000Y-5610000I0J-140000D01*
G01*
X336560000Y-5890000D01*
G75*
G02*
X336420000Y-6030000I-140000J0D01*
G01*
X336080000Y-6030000D01*
G75*
G02*
X335940000Y-5890000I0J140000D01*
G01*
X335940000Y-5610000D01*
G75*
G02*
X336080000Y-5470000I140000J0D01*
G01*
G37*
G36*
G01*
X336080000Y-4510000D02*
X336420000Y-4510000D01*
G75*
G02*
X336560000Y-4650000I0J-140000D01*
G01*
X336560000Y-4930000D01*
G75*
G02*
X336420000Y-5070000I-140000J0D01*
G01*
X336080000Y-5070000D01*
G75*
G02*
X335940000Y-4930000I0J140000D01*
G01*
X335940000Y-4650000D01*
G75*
G02*
X336080000Y-4510000I140000J0D01*
G01*
G37*
G36*
G01*
X330420000Y-5030000D02*
X330080000Y-5030000D01*
G75*
G02*
X329940000Y-4890000I0J140000D01*
G01*
X329940000Y-4610000D01*
G75*
G02*
X330080000Y-4470000I140000J0D01*
G01*
X330420000Y-4470000D01*
G75*
G02*
X330560000Y-4610000I0J-140000D01*
G01*
X330560000Y-4890000D01*
G75*
G02*
X330420000Y-5030000I-140000J0D01*
G01*
G37*
G36*
G01*
X330420000Y-4070000D02*
X330080000Y-4070000D01*
G75*
G02*
X329940000Y-3930000I0J140000D01*
G01*
X329940000Y-3650000D01*
G75*
G02*
X330080000Y-3510000I140000J0D01*
G01*
X330420000Y-3510000D01*
G75*
G02*
X330560000Y-3650000I0J-140000D01*
G01*
X330560000Y-3930000D01*
G75*
G02*
X330420000Y-4070000I-140000J0D01*
G01*
G37*
G36*
G01*
X309430000Y-65670000D02*
X309430000Y-65330000D01*
G75*
G02*
X309570000Y-65190000I140000J0D01*
G01*
X309850000Y-65190000D01*
G75*
G02*
X309990000Y-65330000I0J-140000D01*
G01*
X309990000Y-65670000D01*
G75*
G02*
X309850000Y-65810000I-140000J0D01*
G01*
X309570000Y-65810000D01*
G75*
G02*
X309430000Y-65670000I0J140000D01*
G01*
G37*
G36*
G01*
X308470000Y-65670000D02*
X308470000Y-65330000D01*
G75*
G02*
X308610000Y-65190000I140000J0D01*
G01*
X308890000Y-65190000D01*
G75*
G02*
X309030000Y-65330000I0J-140000D01*
G01*
X309030000Y-65670000D01*
G75*
G02*
X308890000Y-65810000I-140000J0D01*
G01*
X308610000Y-65810000D01*
G75*
G02*
X308470000Y-65670000I0J140000D01*
G01*
G37*
G36*
G01*
X304521213Y-78761629D02*
X304761629Y-78521213D01*
G75*
G02*
X304959619Y-78521213I98995J-98995D01*
G01*
X305157609Y-78719203D01*
G75*
G02*
X305157609Y-78917193I-98995J-98995D01*
G01*
X304917193Y-79157609D01*
G75*
G02*
X304719203Y-79157609I-98995J98995D01*
G01*
X304521213Y-78959619D01*
G75*
G02*
X304521213Y-78761629I98995J98995D01*
G01*
G37*
G36*
G01*
X303842391Y-78082807D02*
X304082807Y-77842391D01*
G75*
G02*
X304280797Y-77842391I98995J-98995D01*
G01*
X304478787Y-78040381D01*
G75*
G02*
X304478787Y-78238371I-98995J-98995D01*
G01*
X304238371Y-78478787D01*
G75*
G02*
X304040381Y-78478787I-98995J98995D01*
G01*
X303842391Y-78280797D01*
G75*
G02*
X303842391Y-78082807I98995J98995D01*
G01*
G37*
G36*
G01*
X307978787Y-74738371D02*
X307738371Y-74978787D01*
G75*
G02*
X307540381Y-74978787I-98995J98995D01*
G01*
X307342391Y-74780797D01*
G75*
G02*
X307342391Y-74582807I98995J98995D01*
G01*
X307582807Y-74342391D01*
G75*
G02*
X307780797Y-74342391I98995J-98995D01*
G01*
X307978787Y-74540381D01*
G75*
G02*
X307978787Y-74738371I-98995J-98995D01*
G01*
G37*
G36*
G01*
X308657609Y-75417193D02*
X308417193Y-75657609D01*
G75*
G02*
X308219203Y-75657609I-98995J98995D01*
G01*
X308021213Y-75459619D01*
G75*
G02*
X308021213Y-75261629I98995J98995D01*
G01*
X308261629Y-75021213D01*
G75*
G02*
X308459619Y-75021213I98995J-98995D01*
G01*
X308657609Y-75219203D01*
G75*
G02*
X308657609Y-75417193I-98995J-98995D01*
G01*
G37*
G36*
G01*
X281423519Y-10444567D02*
X281179567Y-10688519D01*
G75*
G02*
X280970971Y-10688519I-104298J104298D01*
G01*
X280762375Y-10479923D01*
G75*
G02*
X280762375Y-10271327I104298J104298D01*
G01*
X281006327Y-10027375D01*
G75*
G02*
X281214923Y-10027375I104298J-104298D01*
G01*
X281423519Y-10235971D01*
G75*
G02*
X281423519Y-10444567I-104298J-104298D01*
G01*
G37*
G36*
G01*
X280737625Y-9758673D02*
X280493673Y-10002625D01*
G75*
G02*
X280285077Y-10002625I-104298J104298D01*
G01*
X280076481Y-9794029D01*
G75*
G02*
X280076481Y-9585433I104298J104298D01*
G01*
X280320433Y-9341481D01*
G75*
G02*
X280529029Y-9341481I104298J-104298D01*
G01*
X280737625Y-9550077D01*
G75*
G02*
X280737625Y-9758673I-104298J-104298D01*
G01*
G37*
G36*
G01*
X284672500Y5985000D02*
X284327500Y5985000D01*
G75*
G02*
X284180000Y6132500I0J147500D01*
G01*
X284180000Y6427500D01*
G75*
G02*
X284327500Y6575000I147500J0D01*
G01*
X284672500Y6575000D01*
G75*
G02*
X284820000Y6427500I0J-147500D01*
G01*
X284820000Y6132500D01*
G75*
G02*
X284672500Y5985000I-147500J0D01*
G01*
G37*
G36*
G01*
X284672500Y6955000D02*
X284327500Y6955000D01*
G75*
G02*
X284180000Y7102500I0J147500D01*
G01*
X284180000Y7397500D01*
G75*
G02*
X284327500Y7545000I147500J0D01*
G01*
X284672500Y7545000D01*
G75*
G02*
X284820000Y7397500I0J-147500D01*
G01*
X284820000Y7102500D01*
G75*
G02*
X284672500Y6955000I-147500J0D01*
G01*
G37*
G36*
G01*
X330422500Y-8545000D02*
X330077500Y-8545000D01*
G75*
G02*
X329930000Y-8397500I0J147500D01*
G01*
X329930000Y-8102500D01*
G75*
G02*
X330077500Y-7955000I147500J0D01*
G01*
X330422500Y-7955000D01*
G75*
G02*
X330570000Y-8102500I0J-147500D01*
G01*
X330570000Y-8397500D01*
G75*
G02*
X330422500Y-8545000I-147500J0D01*
G01*
G37*
G36*
G01*
X330422500Y-9515000D02*
X330077500Y-9515000D01*
G75*
G02*
X329930000Y-9367500I0J147500D01*
G01*
X329930000Y-9072500D01*
G75*
G02*
X330077500Y-8925000I147500J0D01*
G01*
X330422500Y-8925000D01*
G75*
G02*
X330570000Y-9072500I0J-147500D01*
G01*
X330570000Y-9367500D01*
G75*
G02*
X330422500Y-9515000I-147500J0D01*
G01*
G37*
G36*
G01*
X320929567Y-17326481D02*
X321173519Y-17570433D01*
G75*
G02*
X321173519Y-17779029I-104298J-104298D01*
G01*
X320964923Y-17987625D01*
G75*
G02*
X320756327Y-17987625I-104298J104298D01*
G01*
X320512375Y-17743673D01*
G75*
G02*
X320512375Y-17535077I104298J104298D01*
G01*
X320720971Y-17326481D01*
G75*
G02*
X320929567Y-17326481I104298J-104298D01*
G01*
G37*
G36*
G01*
X320243673Y-18012375D02*
X320487625Y-18256327D01*
G75*
G02*
X320487625Y-18464923I-104298J-104298D01*
G01*
X320279029Y-18673519D01*
G75*
G02*
X320070433Y-18673519I-104298J104298D01*
G01*
X319826481Y-18429567D01*
G75*
G02*
X319826481Y-18220971I104298J104298D01*
G01*
X320035077Y-18012375D01*
G75*
G02*
X320243673Y-18012375I104298J-104298D01*
G01*
G37*
G36*
G01*
X319922500Y-14560000D02*
X319577500Y-14560000D01*
G75*
G02*
X319430000Y-14412500I0J147500D01*
G01*
X319430000Y-14117500D01*
G75*
G02*
X319577500Y-13970000I147500J0D01*
G01*
X319922500Y-13970000D01*
G75*
G02*
X320070000Y-14117500I0J-147500D01*
G01*
X320070000Y-14412500D01*
G75*
G02*
X319922500Y-14560000I-147500J0D01*
G01*
G37*
G36*
G01*
X319922500Y-15530000D02*
X319577500Y-15530000D01*
G75*
G02*
X319430000Y-15382500I0J147500D01*
G01*
X319430000Y-15087500D01*
G75*
G02*
X319577500Y-14940000I147500J0D01*
G01*
X319922500Y-14940000D01*
G75*
G02*
X320070000Y-15087500I0J-147500D01*
G01*
X320070000Y-15382500D01*
G75*
G02*
X319922500Y-15530000I-147500J0D01*
G01*
G37*
G36*
G01*
X310515000Y-69577500D02*
X310515000Y-69922500D01*
G75*
G02*
X310367500Y-70070000I-147500J0D01*
G01*
X310072500Y-70070000D01*
G75*
G02*
X309925000Y-69922500I0J147500D01*
G01*
X309925000Y-69577500D01*
G75*
G02*
X310072500Y-69430000I147500J0D01*
G01*
X310367500Y-69430000D01*
G75*
G02*
X310515000Y-69577500I0J-147500D01*
G01*
G37*
G36*
G01*
X309545000Y-69577500D02*
X309545000Y-69922500D01*
G75*
G02*
X309397500Y-70070000I-147500J0D01*
G01*
X309102500Y-70070000D01*
G75*
G02*
X308955000Y-69922500I0J147500D01*
G01*
X308955000Y-69577500D01*
G75*
G02*
X309102500Y-69430000I147500J0D01*
G01*
X309397500Y-69430000D01*
G75*
G02*
X309545000Y-69577500I0J-147500D01*
G01*
G37*
G36*
G01*
X313540000Y-57565000D02*
X313540000Y-57935000D01*
G75*
G02*
X313405000Y-58070000I-135000J0D01*
G01*
X313135000Y-58070000D01*
G75*
G02*
X313000000Y-57935000I0J135000D01*
G01*
X313000000Y-57565000D01*
G75*
G02*
X313135000Y-57430000I135000J0D01*
G01*
X313405000Y-57430000D01*
G75*
G02*
X313540000Y-57565000I0J-135000D01*
G01*
G37*
G36*
G01*
X312520000Y-57565000D02*
X312520000Y-57935000D01*
G75*
G02*
X312385000Y-58070000I-135000J0D01*
G01*
X312115000Y-58070000D01*
G75*
G02*
X311980000Y-57935000I0J135000D01*
G01*
X311980000Y-57565000D01*
G75*
G02*
X312115000Y-57430000I135000J0D01*
G01*
X312385000Y-57430000D01*
G75*
G02*
X312520000Y-57565000I0J-135000D01*
G01*
G37*
G36*
G01*
X323480000Y-5685000D02*
X323480000Y-5315000D01*
G75*
G02*
X323615000Y-5180000I135000J0D01*
G01*
X323885000Y-5180000D01*
G75*
G02*
X324020000Y-5315000I0J-135000D01*
G01*
X324020000Y-5685000D01*
G75*
G02*
X323885000Y-5820000I-135000J0D01*
G01*
X323615000Y-5820000D01*
G75*
G02*
X323480000Y-5685000I0J135000D01*
G01*
G37*
G36*
G01*
X322460000Y-5685000D02*
X322460000Y-5315000D01*
G75*
G02*
X322595000Y-5180000I135000J0D01*
G01*
X322865000Y-5180000D01*
G75*
G02*
X323000000Y-5315000I0J-135000D01*
G01*
X323000000Y-5685000D01*
G75*
G02*
X322865000Y-5820000I-135000J0D01*
G01*
X322595000Y-5820000D01*
G75*
G02*
X322460000Y-5685000I0J135000D01*
G01*
G37*
G36*
G01*
X323565000Y-4230000D02*
X323935000Y-4230000D01*
G75*
G02*
X324070000Y-4365000I0J-135000D01*
G01*
X324070000Y-4635000D01*
G75*
G02*
X323935000Y-4770000I-135000J0D01*
G01*
X323565000Y-4770000D01*
G75*
G02*
X323430000Y-4635000I0J135000D01*
G01*
X323430000Y-4365000D01*
G75*
G02*
X323565000Y-4230000I135000J0D01*
G01*
G37*
G36*
G01*
X323565000Y-3210000D02*
X323935000Y-3210000D01*
G75*
G02*
X324070000Y-3345000I0J-135000D01*
G01*
X324070000Y-3615000D01*
G75*
G02*
X323935000Y-3750000I-135000J0D01*
G01*
X323565000Y-3750000D01*
G75*
G02*
X323430000Y-3615000I0J135000D01*
G01*
X323430000Y-3345000D01*
G75*
G02*
X323565000Y-3210000I135000J0D01*
G01*
G37*
G36*
G01*
X337020000Y6435000D02*
X337020000Y6065000D01*
G75*
G02*
X336885000Y5930000I-135000J0D01*
G01*
X336615000Y5930000D01*
G75*
G02*
X336480000Y6065000I0J135000D01*
G01*
X336480000Y6435000D01*
G75*
G02*
X336615000Y6570000I135000J0D01*
G01*
X336885000Y6570000D01*
G75*
G02*
X337020000Y6435000I0J-135000D01*
G01*
G37*
G36*
G01*
X338040000Y6435000D02*
X338040000Y6065000D01*
G75*
G02*
X337905000Y5930000I-135000J0D01*
G01*
X337635000Y5930000D01*
G75*
G02*
X337500000Y6065000I0J135000D01*
G01*
X337500000Y6435000D01*
G75*
G02*
X337635000Y6570000I135000J0D01*
G01*
X337905000Y6570000D01*
G75*
G02*
X338040000Y6435000I0J-135000D01*
G01*
G37*
G36*
G01*
X333935000Y4470000D02*
X333565000Y4470000D01*
G75*
G02*
X333430000Y4605000I0J135000D01*
G01*
X333430000Y4875000D01*
G75*
G02*
X333565000Y5010000I135000J0D01*
G01*
X333935000Y5010000D01*
G75*
G02*
X334070000Y4875000I0J-135000D01*
G01*
X334070000Y4605000D01*
G75*
G02*
X333935000Y4470000I-135000J0D01*
G01*
G37*
G36*
G01*
X333935000Y5490000D02*
X333565000Y5490000D01*
G75*
G02*
X333430000Y5625000I0J135000D01*
G01*
X333430000Y5895000D01*
G75*
G02*
X333565000Y6030000I135000J0D01*
G01*
X333935000Y6030000D01*
G75*
G02*
X334070000Y5895000I0J-135000D01*
G01*
X334070000Y5625000D01*
G75*
G02*
X333935000Y5490000I-135000J0D01*
G01*
G37*
G36*
G01*
X314240000Y-13435000D02*
X314240000Y-13065000D01*
G75*
G02*
X314375000Y-12930000I135000J0D01*
G01*
X314645000Y-12930000D01*
G75*
G02*
X314780000Y-13065000I0J-135000D01*
G01*
X314780000Y-13435000D01*
G75*
G02*
X314645000Y-13570000I-135000J0D01*
G01*
X314375000Y-13570000D01*
G75*
G02*
X314240000Y-13435000I0J135000D01*
G01*
G37*
G36*
G01*
X313220000Y-13435000D02*
X313220000Y-13065000D01*
G75*
G02*
X313355000Y-12930000I135000J0D01*
G01*
X313625000Y-12930000D01*
G75*
G02*
X313760000Y-13065000I0J-135000D01*
G01*
X313760000Y-13435000D01*
G75*
G02*
X313625000Y-13570000I-135000J0D01*
G01*
X313355000Y-13570000D01*
G75*
G02*
X313220000Y-13435000I0J135000D01*
G01*
G37*
G36*
G01*
X313210000Y-15435000D02*
X313210000Y-15065000D01*
G75*
G02*
X313345000Y-14930000I135000J0D01*
G01*
X313615000Y-14930000D01*
G75*
G02*
X313750000Y-15065000I0J-135000D01*
G01*
X313750000Y-15435000D01*
G75*
G02*
X313615000Y-15570000I-135000J0D01*
G01*
X313345000Y-15570000D01*
G75*
G02*
X313210000Y-15435000I0J135000D01*
G01*
G37*
G36*
G01*
X314230000Y-15435000D02*
X314230000Y-15065000D01*
G75*
G02*
X314365000Y-14930000I135000J0D01*
G01*
X314635000Y-14930000D01*
G75*
G02*
X314770000Y-15065000I0J-135000D01*
G01*
X314770000Y-15435000D01*
G75*
G02*
X314635000Y-15570000I-135000J0D01*
G01*
X314365000Y-15570000D01*
G75*
G02*
X314230000Y-15435000I0J135000D01*
G01*
G37*
G36*
G01*
X318685000Y-14520000D02*
X318315000Y-14520000D01*
G75*
G02*
X318180000Y-14385000I0J135000D01*
G01*
X318180000Y-14115000D01*
G75*
G02*
X318315000Y-13980000I135000J0D01*
G01*
X318685000Y-13980000D01*
G75*
G02*
X318820000Y-14115000I0J-135000D01*
G01*
X318820000Y-14385000D01*
G75*
G02*
X318685000Y-14520000I-135000J0D01*
G01*
G37*
G36*
G01*
X318685000Y-15540000D02*
X318315000Y-15540000D01*
G75*
G02*
X318180000Y-15405000I0J135000D01*
G01*
X318180000Y-15135000D01*
G75*
G02*
X318315000Y-15000000I135000J0D01*
G01*
X318685000Y-15000000D01*
G75*
G02*
X318820000Y-15135000I0J-135000D01*
G01*
X318820000Y-15405000D01*
G75*
G02*
X318685000Y-15540000I-135000J0D01*
G01*
G37*
G36*
G01*
X315010000Y-17565000D02*
X315010000Y-17935000D01*
G75*
G02*
X314875000Y-18070000I-135000J0D01*
G01*
X314605000Y-18070000D01*
G75*
G02*
X314470000Y-17935000I0J135000D01*
G01*
X314470000Y-17565000D01*
G75*
G02*
X314605000Y-17430000I135000J0D01*
G01*
X314875000Y-17430000D01*
G75*
G02*
X315010000Y-17565000I0J-135000D01*
G01*
G37*
G36*
G01*
X316030000Y-17565000D02*
X316030000Y-17935000D01*
G75*
G02*
X315895000Y-18070000I-135000J0D01*
G01*
X315625000Y-18070000D01*
G75*
G02*
X315490000Y-17935000I0J135000D01*
G01*
X315490000Y-17565000D01*
G75*
G02*
X315625000Y-17430000I135000J0D01*
G01*
X315895000Y-17430000D01*
G75*
G02*
X316030000Y-17565000I0J-135000D01*
G01*
G37*
G36*
G01*
X300500000Y-18315000D02*
X300500000Y-18685000D01*
G75*
G02*
X300365000Y-18820000I-135000J0D01*
G01*
X300095000Y-18820000D01*
G75*
G02*
X299960000Y-18685000I0J135000D01*
G01*
X299960000Y-18315000D01*
G75*
G02*
X300095000Y-18180000I135000J0D01*
G01*
X300365000Y-18180000D01*
G75*
G02*
X300500000Y-18315000I0J-135000D01*
G01*
G37*
G36*
G01*
X301520000Y-18315000D02*
X301520000Y-18685000D01*
G75*
G02*
X301385000Y-18820000I-135000J0D01*
G01*
X301115000Y-18820000D01*
G75*
G02*
X300980000Y-18685000I0J135000D01*
G01*
X300980000Y-18315000D01*
G75*
G02*
X301115000Y-18180000I135000J0D01*
G01*
X301385000Y-18180000D01*
G75*
G02*
X301520000Y-18315000I0J-135000D01*
G01*
G37*
G36*
G01*
X304185000Y1740000D02*
X303815000Y1740000D01*
G75*
G02*
X303680000Y1875000I0J135000D01*
G01*
X303680000Y2145000D01*
G75*
G02*
X303815000Y2280000I135000J0D01*
G01*
X304185000Y2280000D01*
G75*
G02*
X304320000Y2145000I0J-135000D01*
G01*
X304320000Y1875000D01*
G75*
G02*
X304185000Y1740000I-135000J0D01*
G01*
G37*
G36*
G01*
X304185000Y720000D02*
X303815000Y720000D01*
G75*
G02*
X303680000Y855000I0J135000D01*
G01*
X303680000Y1125000D01*
G75*
G02*
X303815000Y1260000I135000J0D01*
G01*
X304185000Y1260000D01*
G75*
G02*
X304320000Y1125000I0J-135000D01*
G01*
X304320000Y855000D01*
G75*
G02*
X304185000Y720000I-135000J0D01*
G01*
G37*
G36*
G01*
X283960000Y2815000D02*
X283960000Y3185000D01*
G75*
G02*
X284095000Y3320000I135000J0D01*
G01*
X284365000Y3320000D01*
G75*
G02*
X284500000Y3185000I0J-135000D01*
G01*
X284500000Y2815000D01*
G75*
G02*
X284365000Y2680000I-135000J0D01*
G01*
X284095000Y2680000D01*
G75*
G02*
X283960000Y2815000I0J135000D01*
G01*
G37*
G36*
G01*
X284980000Y2815000D02*
X284980000Y3185000D01*
G75*
G02*
X285115000Y3320000I135000J0D01*
G01*
X285385000Y3320000D01*
G75*
G02*
X285520000Y3185000I0J-135000D01*
G01*
X285520000Y2815000D01*
G75*
G02*
X285385000Y2680000I-135000J0D01*
G01*
X285115000Y2680000D01*
G75*
G02*
X284980000Y2815000I0J135000D01*
G01*
G37*
G36*
G01*
X321670000Y-9815000D02*
X321670000Y-10185000D01*
G75*
G02*
X321535000Y-10320000I-135000J0D01*
G01*
X321265000Y-10320000D01*
G75*
G02*
X321130000Y-10185000I0J135000D01*
G01*
X321130000Y-9815000D01*
G75*
G02*
X321265000Y-9680000I135000J0D01*
G01*
X321535000Y-9680000D01*
G75*
G02*
X321670000Y-9815000I0J-135000D01*
G01*
G37*
G36*
G01*
X322690000Y-9815000D02*
X322690000Y-10185000D01*
G75*
G02*
X322555000Y-10320000I-135000J0D01*
G01*
X322285000Y-10320000D01*
G75*
G02*
X322150000Y-10185000I0J135000D01*
G01*
X322150000Y-9815000D01*
G75*
G02*
X322285000Y-9680000I135000J0D01*
G01*
X322555000Y-9680000D01*
G75*
G02*
X322690000Y-9815000I0J-135000D01*
G01*
G37*
G36*
G01*
X316310000Y-9385000D02*
X316310000Y-9015000D01*
G75*
G02*
X316445000Y-8880000I135000J0D01*
G01*
X316715000Y-8880000D01*
G75*
G02*
X316850000Y-9015000I0J-135000D01*
G01*
X316850000Y-9385000D01*
G75*
G02*
X316715000Y-9520000I-135000J0D01*
G01*
X316445000Y-9520000D01*
G75*
G02*
X316310000Y-9385000I0J135000D01*
G01*
G37*
G36*
G01*
X317330000Y-9385000D02*
X317330000Y-9015000D01*
G75*
G02*
X317465000Y-8880000I135000J0D01*
G01*
X317735000Y-8880000D01*
G75*
G02*
X317870000Y-9015000I0J-135000D01*
G01*
X317870000Y-9385000D01*
G75*
G02*
X317735000Y-9520000I-135000J0D01*
G01*
X317465000Y-9520000D01*
G75*
G02*
X317330000Y-9385000I0J135000D01*
G01*
G37*
G36*
G01*
X279682357Y-8680728D02*
X279420728Y-8942357D01*
G75*
G02*
X279229810Y-8942357I-95459J95459D01*
G01*
X279038891Y-8751438D01*
G75*
G02*
X279038891Y-8560520I95459J95459D01*
G01*
X279300520Y-8298891D01*
G75*
G02*
X279491438Y-8298891I95459J-95459D01*
G01*
X279682357Y-8489810D01*
G75*
G02*
X279682357Y-8680728I-95459J-95459D01*
G01*
G37*
G36*
G01*
X278961109Y-7959480D02*
X278699480Y-8221109D01*
G75*
G02*
X278508562Y-8221109I-95459J95459D01*
G01*
X278317643Y-8030190D01*
G75*
G02*
X278317643Y-7839272I95459J95459D01*
G01*
X278579272Y-7577643D01*
G75*
G02*
X278770190Y-7577643I95459J-95459D01*
G01*
X278961109Y-7768562D01*
G75*
G02*
X278961109Y-7959480I-95459J-95459D01*
G01*
G37*
G36*
G01*
X335530000Y-14565000D02*
X335530000Y-14935000D01*
G75*
G02*
X335395000Y-15070000I-135000J0D01*
G01*
X335125000Y-15070000D01*
G75*
G02*
X334990000Y-14935000I0J135000D01*
G01*
X334990000Y-14565000D01*
G75*
G02*
X335125000Y-14430000I135000J0D01*
G01*
X335395000Y-14430000D01*
G75*
G02*
X335530000Y-14565000I0J-135000D01*
G01*
G37*
G36*
G01*
X334510000Y-14565000D02*
X334510000Y-14935000D01*
G75*
G02*
X334375000Y-15070000I-135000J0D01*
G01*
X334105000Y-15070000D01*
G75*
G02*
X333970000Y-14935000I0J135000D01*
G01*
X333970000Y-14565000D01*
G75*
G02*
X334105000Y-14430000I135000J0D01*
G01*
X334375000Y-14430000D01*
G75*
G02*
X334510000Y-14565000I0J-135000D01*
G01*
G37*
G36*
G01*
X285230000Y-16935000D02*
X285230000Y-16565000D01*
G75*
G02*
X285365000Y-16430000I135000J0D01*
G01*
X285635000Y-16430000D01*
G75*
G02*
X285770000Y-16565000I0J-135000D01*
G01*
X285770000Y-16935000D01*
G75*
G02*
X285635000Y-17070000I-135000J0D01*
G01*
X285365000Y-17070000D01*
G75*
G02*
X285230000Y-16935000I0J135000D01*
G01*
G37*
G36*
G01*
X286250000Y-16935000D02*
X286250000Y-16565000D01*
G75*
G02*
X286385000Y-16430000I135000J0D01*
G01*
X286655000Y-16430000D01*
G75*
G02*
X286790000Y-16565000I0J-135000D01*
G01*
X286790000Y-16935000D01*
G75*
G02*
X286655000Y-17070000I-135000J0D01*
G01*
X286385000Y-17070000D01*
G75*
G02*
X286250000Y-16935000I0J135000D01*
G01*
G37*
G36*
G01*
X286250000Y-15935000D02*
X286250000Y-15565000D01*
G75*
G02*
X286385000Y-15430000I135000J0D01*
G01*
X286655000Y-15430000D01*
G75*
G02*
X286790000Y-15565000I0J-135000D01*
G01*
X286790000Y-15935000D01*
G75*
G02*
X286655000Y-16070000I-135000J0D01*
G01*
X286385000Y-16070000D01*
G75*
G02*
X286250000Y-15935000I0J135000D01*
G01*
G37*
G36*
G01*
X285230000Y-15935000D02*
X285230000Y-15565000D01*
G75*
G02*
X285365000Y-15430000I135000J0D01*
G01*
X285635000Y-15430000D01*
G75*
G02*
X285770000Y-15565000I0J-135000D01*
G01*
X285770000Y-15935000D01*
G75*
G02*
X285635000Y-16070000I-135000J0D01*
G01*
X285365000Y-16070000D01*
G75*
G02*
X285230000Y-15935000I0J135000D01*
G01*
G37*
G36*
G01*
X304935000Y5980000D02*
X304565000Y5980000D01*
G75*
G02*
X304430000Y6115000I0J135000D01*
G01*
X304430000Y6385000D01*
G75*
G02*
X304565000Y6520000I135000J0D01*
G01*
X304935000Y6520000D01*
G75*
G02*
X305070000Y6385000I0J-135000D01*
G01*
X305070000Y6115000D01*
G75*
G02*
X304935000Y5980000I-135000J0D01*
G01*
G37*
G36*
G01*
X304935000Y7000000D02*
X304565000Y7000000D01*
G75*
G02*
X304430000Y7135000I0J135000D01*
G01*
X304430000Y7405000D01*
G75*
G02*
X304565000Y7540000I135000J0D01*
G01*
X304935000Y7540000D01*
G75*
G02*
X305070000Y7405000I0J-135000D01*
G01*
X305070000Y7135000D01*
G75*
G02*
X304935000Y7000000I-135000J0D01*
G01*
G37*
G36*
G01*
X285315000Y6520000D02*
X285685000Y6520000D01*
G75*
G02*
X285820000Y6385000I0J-135000D01*
G01*
X285820000Y6115000D01*
G75*
G02*
X285685000Y5980000I-135000J0D01*
G01*
X285315000Y5980000D01*
G75*
G02*
X285180000Y6115000I0J135000D01*
G01*
X285180000Y6385000D01*
G75*
G02*
X285315000Y6520000I135000J0D01*
G01*
G37*
G36*
G01*
X285315000Y7540000D02*
X285685000Y7540000D01*
G75*
G02*
X285820000Y7405000I0J-135000D01*
G01*
X285820000Y7135000D01*
G75*
G02*
X285685000Y7000000I-135000J0D01*
G01*
X285315000Y7000000D01*
G75*
G02*
X285180000Y7135000I0J135000D01*
G01*
X285180000Y7405000D01*
G75*
G02*
X285315000Y7540000I135000J0D01*
G01*
G37*
G36*
G01*
X330435000Y-7290000D02*
X330065000Y-7290000D01*
G75*
G02*
X329930000Y-7155000I0J135000D01*
G01*
X329930000Y-6885000D01*
G75*
G02*
X330065000Y-6750000I135000J0D01*
G01*
X330435000Y-6750000D01*
G75*
G02*
X330570000Y-6885000I0J-135000D01*
G01*
X330570000Y-7155000D01*
G75*
G02*
X330435000Y-7290000I-135000J0D01*
G01*
G37*
G36*
G01*
X330435000Y-6270000D02*
X330065000Y-6270000D01*
G75*
G02*
X329930000Y-6135000I0J135000D01*
G01*
X329930000Y-5865000D01*
G75*
G02*
X330065000Y-5730000I135000J0D01*
G01*
X330435000Y-5730000D01*
G75*
G02*
X330570000Y-5865000I0J-135000D01*
G01*
X330570000Y-6135000D01*
G75*
G02*
X330435000Y-6270000I-135000J0D01*
G01*
G37*
G36*
G01*
X318780000Y-18565000D02*
X318780000Y-18935000D01*
G75*
G02*
X318645000Y-19070000I-135000J0D01*
G01*
X318375000Y-19070000D01*
G75*
G02*
X318240000Y-18935000I0J135000D01*
G01*
X318240000Y-18565000D01*
G75*
G02*
X318375000Y-18430000I135000J0D01*
G01*
X318645000Y-18430000D01*
G75*
G02*
X318780000Y-18565000I0J-135000D01*
G01*
G37*
G36*
G01*
X317760000Y-18565000D02*
X317760000Y-18935000D01*
G75*
G02*
X317625000Y-19070000I-135000J0D01*
G01*
X317355000Y-19070000D01*
G75*
G02*
X317220000Y-18935000I0J135000D01*
G01*
X317220000Y-18565000D01*
G75*
G02*
X317355000Y-18430000I135000J0D01*
G01*
X317625000Y-18430000D01*
G75*
G02*
X317760000Y-18565000I0J-135000D01*
G01*
G37*
G36*
G01*
X321185000Y-14530000D02*
X320815000Y-14530000D01*
G75*
G02*
X320680000Y-14395000I0J135000D01*
G01*
X320680000Y-14125000D01*
G75*
G02*
X320815000Y-13990000I135000J0D01*
G01*
X321185000Y-13990000D01*
G75*
G02*
X321320000Y-14125000I0J-135000D01*
G01*
X321320000Y-14395000D01*
G75*
G02*
X321185000Y-14530000I-135000J0D01*
G01*
G37*
G36*
G01*
X321185000Y-13510000D02*
X320815000Y-13510000D01*
G75*
G02*
X320680000Y-13375000I0J135000D01*
G01*
X320680000Y-13105000D01*
G75*
G02*
X320815000Y-12970000I135000J0D01*
G01*
X321185000Y-12970000D01*
G75*
G02*
X321320000Y-13105000I0J-135000D01*
G01*
X321320000Y-13375000D01*
G75*
G02*
X321185000Y-13510000I-135000J0D01*
G01*
G37*
G36*
G01*
X296815000Y-59790000D02*
X297185000Y-59790000D01*
G75*
G02*
X297320000Y-59925000I0J-135000D01*
G01*
X297320000Y-60195000D01*
G75*
G02*
X297185000Y-60330000I-135000J0D01*
G01*
X296815000Y-60330000D01*
G75*
G02*
X296680000Y-60195000I0J135000D01*
G01*
X296680000Y-59925000D01*
G75*
G02*
X296815000Y-59790000I135000J0D01*
G01*
G37*
G36*
G01*
X296815000Y-58770000D02*
X297185000Y-58770000D01*
G75*
G02*
X297320000Y-58905000I0J-135000D01*
G01*
X297320000Y-59175000D01*
G75*
G02*
X297185000Y-59310000I-135000J0D01*
G01*
X296815000Y-59310000D01*
G75*
G02*
X296680000Y-59175000I0J135000D01*
G01*
X296680000Y-58905000D01*
G75*
G02*
X296815000Y-58770000I135000J0D01*
G01*
G37*
G36*
G01*
X297815000Y-58770000D02*
X298185000Y-58770000D01*
G75*
G02*
X298320000Y-58905000I0J-135000D01*
G01*
X298320000Y-59175000D01*
G75*
G02*
X298185000Y-59310000I-135000J0D01*
G01*
X297815000Y-59310000D01*
G75*
G02*
X297680000Y-59175000I0J135000D01*
G01*
X297680000Y-58905000D01*
G75*
G02*
X297815000Y-58770000I135000J0D01*
G01*
G37*
G36*
G01*
X297815000Y-59790000D02*
X298185000Y-59790000D01*
G75*
G02*
X298320000Y-59925000I0J-135000D01*
G01*
X298320000Y-60195000D01*
G75*
G02*
X298185000Y-60330000I-135000J0D01*
G01*
X297815000Y-60330000D01*
G75*
G02*
X297680000Y-60195000I0J135000D01*
G01*
X297680000Y-59925000D01*
G75*
G02*
X297815000Y-59790000I135000J0D01*
G01*
G37*
G36*
G01*
X309020000Y-63815000D02*
X309020000Y-64185000D01*
G75*
G02*
X308885000Y-64320000I-135000J0D01*
G01*
X308615000Y-64320000D01*
G75*
G02*
X308480000Y-64185000I0J135000D01*
G01*
X308480000Y-63815000D01*
G75*
G02*
X308615000Y-63680000I135000J0D01*
G01*
X308885000Y-63680000D01*
G75*
G02*
X309020000Y-63815000I0J-135000D01*
G01*
G37*
G36*
G01*
X310040000Y-63815000D02*
X310040000Y-64185000D01*
G75*
G02*
X309905000Y-64320000I-135000J0D01*
G01*
X309635000Y-64320000D01*
G75*
G02*
X309500000Y-64185000I0J135000D01*
G01*
X309500000Y-63815000D01*
G75*
G02*
X309635000Y-63680000I135000J0D01*
G01*
X309905000Y-63680000D01*
G75*
G02*
X310040000Y-63815000I0J-135000D01*
G01*
G37*
G36*
G01*
X310040000Y-62815000D02*
X310040000Y-63185000D01*
G75*
G02*
X309905000Y-63320000I-135000J0D01*
G01*
X309635000Y-63320000D01*
G75*
G02*
X309500000Y-63185000I0J135000D01*
G01*
X309500000Y-62815000D01*
G75*
G02*
X309635000Y-62680000I135000J0D01*
G01*
X309905000Y-62680000D01*
G75*
G02*
X310040000Y-62815000I0J-135000D01*
G01*
G37*
G36*
G01*
X309020000Y-62815000D02*
X309020000Y-63185000D01*
G75*
G02*
X308885000Y-63320000I-135000J0D01*
G01*
X308615000Y-63320000D01*
G75*
G02*
X308480000Y-63185000I0J135000D01*
G01*
X308480000Y-62815000D01*
G75*
G02*
X308615000Y-62680000I135000J0D01*
G01*
X308885000Y-62680000D01*
G75*
G02*
X309020000Y-62815000I0J-135000D01*
G01*
G37*
G36*
G01*
X319065000Y-66740000D02*
X319435000Y-66740000D01*
G75*
G02*
X319570000Y-66875000I0J-135000D01*
G01*
X319570000Y-67145000D01*
G75*
G02*
X319435000Y-67280000I-135000J0D01*
G01*
X319065000Y-67280000D01*
G75*
G02*
X318930000Y-67145000I0J135000D01*
G01*
X318930000Y-66875000D01*
G75*
G02*
X319065000Y-66740000I135000J0D01*
G01*
G37*
G36*
G01*
X319065000Y-65720000D02*
X319435000Y-65720000D01*
G75*
G02*
X319570000Y-65855000I0J-135000D01*
G01*
X319570000Y-66125000D01*
G75*
G02*
X319435000Y-66260000I-135000J0D01*
G01*
X319065000Y-66260000D01*
G75*
G02*
X318930000Y-66125000I0J135000D01*
G01*
X318930000Y-65855000D01*
G75*
G02*
X319065000Y-65720000I135000J0D01*
G01*
G37*
G36*
G01*
X308540000Y-69565000D02*
X308540000Y-69935000D01*
G75*
G02*
X308405000Y-70070000I-135000J0D01*
G01*
X308135000Y-70070000D01*
G75*
G02*
X308000000Y-69935000I0J135000D01*
G01*
X308000000Y-69565000D01*
G75*
G02*
X308135000Y-69430000I135000J0D01*
G01*
X308405000Y-69430000D01*
G75*
G02*
X308540000Y-69565000I0J-135000D01*
G01*
G37*
G36*
G01*
X307520000Y-69565000D02*
X307520000Y-69935000D01*
G75*
G02*
X307385000Y-70070000I-135000J0D01*
G01*
X307115000Y-70070000D01*
G75*
G02*
X306980000Y-69935000I0J135000D01*
G01*
X306980000Y-69565000D01*
G75*
G02*
X307115000Y-69430000I135000J0D01*
G01*
X307385000Y-69430000D01*
G75*
G02*
X307520000Y-69565000I0J-135000D01*
G01*
G37*
D37*
X324000000Y4250000D03*
X323750000Y-12250000D03*
X323500000Y-6750000D03*
X325750000Y-14500000D03*
X303600000Y-7200000D03*
X338500000Y3250000D03*
X303600000Y-8250000D03*
X312250000Y-13250000D03*
X308500000Y-4500000D03*
X289500000Y-4750000D03*
X313000000Y-17750000D03*
X299600000Y-7000000D03*
X293200000Y-11800000D03*
X318000000Y-21750000D03*
X313000000Y-6800000D03*
X295800000Y-11000000D03*
X317250000Y-15250000D03*
X302500000Y-18500000D03*
X334000000Y-12000000D03*
X333000000Y-18250000D03*
X328000000Y-15500000D03*
X305500000Y-19500000D03*
X307000000Y-8200000D03*
X328500000Y-4750000D03*
X290500000Y-17750000D03*
X288500000Y-59000000D03*
X290500000Y-14750000D03*
X287250000Y-60000000D03*
X326000000Y-71000000D03*
X327250000Y-71000000D03*
X323500000Y-71000000D03*
X322250000Y-71000000D03*
X327500000Y-62750000D03*
X301250000Y-76750000D03*
X304000000Y-76000000D03*
G36*
G01*
X290770000Y-60815000D02*
X290770000Y-61185000D01*
G75*
G02*
X290635000Y-61320000I-135000J0D01*
G01*
X290365000Y-61320000D01*
G75*
G02*
X290230000Y-61185000I0J135000D01*
G01*
X290230000Y-60815000D01*
G75*
G02*
X290365000Y-60680000I135000J0D01*
G01*
X290635000Y-60680000D01*
G75*
G02*
X290770000Y-60815000I0J-135000D01*
G01*
G37*
G36*
G01*
X289750000Y-60815000D02*
X289750000Y-61185000D01*
G75*
G02*
X289615000Y-61320000I-135000J0D01*
G01*
X289345000Y-61320000D01*
G75*
G02*
X289210000Y-61185000I0J135000D01*
G01*
X289210000Y-60815000D01*
G75*
G02*
X289345000Y-60680000I135000J0D01*
G01*
X289615000Y-60680000D01*
G75*
G02*
X289750000Y-60815000I0J-135000D01*
G01*
G37*
G36*
G01*
X289770000Y-61815000D02*
X289770000Y-62185000D01*
G75*
G02*
X289635000Y-62320000I-135000J0D01*
G01*
X289365000Y-62320000D01*
G75*
G02*
X289230000Y-62185000I0J135000D01*
G01*
X289230000Y-61815000D01*
G75*
G02*
X289365000Y-61680000I135000J0D01*
G01*
X289635000Y-61680000D01*
G75*
G02*
X289770000Y-61815000I0J-135000D01*
G01*
G37*
G36*
G01*
X290790000Y-61815000D02*
X290790000Y-62185000D01*
G75*
G02*
X290655000Y-62320000I-135000J0D01*
G01*
X290385000Y-62320000D01*
G75*
G02*
X290250000Y-62185000I0J135000D01*
G01*
X290250000Y-61815000D01*
G75*
G02*
X290385000Y-61680000I135000J0D01*
G01*
X290655000Y-61680000D01*
G75*
G02*
X290790000Y-61815000I0J-135000D01*
G01*
G37*
G36*
G01*
X324210000Y7315000D02*
X324210000Y7685000D01*
G75*
G02*
X324345000Y7820000I135000J0D01*
G01*
X324615000Y7820000D01*
G75*
G02*
X324750000Y7685000I0J-135000D01*
G01*
X324750000Y7315000D01*
G75*
G02*
X324615000Y7180000I-135000J0D01*
G01*
X324345000Y7180000D01*
G75*
G02*
X324210000Y7315000I0J135000D01*
G01*
G37*
G36*
G01*
X325230000Y7315000D02*
X325230000Y7685000D01*
G75*
G02*
X325365000Y7820000I135000J0D01*
G01*
X325635000Y7820000D01*
G75*
G02*
X325770000Y7685000I0J-135000D01*
G01*
X325770000Y7315000D01*
G75*
G02*
X325635000Y7180000I-135000J0D01*
G01*
X325365000Y7180000D01*
G75*
G02*
X325230000Y7315000I0J135000D01*
G01*
G37*
M02*
