M48
; DRILL file {KiCad (5.1.8)-1} date 04/06/21 16:33:27
; FORMAT={-:-/ absolute / inch / decimal}
; #@! TF.CreationDate,2021-04-06T16:33:27+02:00
; #@! TF.GenerationSoftware,Kicad,Pcbnew,(5.1.8)-1
; #@! TF.FileFunction,NonPlated,1,2,NPTH
FMAT,2
INCH
T1C0.0248
T2C0.0512
T3C0.1181
T4C0.1200
T5C0.1570
%
G90
G05
T1
X12.9724Y0.373
X13.2087Y0.373
T2
X12.8445Y-0.1654
X13.3366Y-0.1654
T3
X-0.1Y-1.322
X0.15Y-1.222
X10.2789Y-4.3142
X10.5289Y-4.2142
X2.8921Y-0.2
X3.1421Y-0.1
X5.1362Y-1.322
X5.3862Y-1.222
X8.4089Y-4.3142
X8.6589Y-4.2142
X3.8272Y-3.5661
X4.0772Y-3.4661
X11.4945Y-2.0701
X11.7445Y-1.9701
X1.5831Y-3.5661
X1.8331Y-3.4661
X9.9984Y-1.322
X10.2484Y-1.222
X0.9285Y-4.3142
X1.1785Y-4.2142
X4.0142Y-2.0701
X4.2642Y-1.9701
X1.3961Y-1.322
X1.6461Y-1.222
X2.1441Y-1.322
X2.3941Y-1.222
X7.4738Y-4.3142
X7.7238Y-4.2142
X5.5102Y-0.2
X5.7602Y-0.1
X-0.0065Y-4.3142
X0.2435Y-4.2142
X2.8921Y-1.322
X3.1421Y-1.222
X3.0791Y-3.5661
X3.3291Y-3.4661
X12.2425Y-2.0701
X12.4925Y-1.9701
X2.1441Y-0.2
X2.3941Y-0.1
X5.6972Y-2.8181
X5.9472Y-2.7181
X8.6894Y-2.8181
X8.9394Y-2.7181
X1.8636Y-4.3142
X2.1136Y-4.2142
X2.5181Y-2.0701
X2.7681Y-1.9701
X10.3724Y-0.2
X10.6224Y-0.1
X9.6244Y-0.2
X9.8744Y-0.1
X3.2661Y-2.0701
X3.5161Y-1.9701
X0.3675Y-3.5661
X0.6175Y-3.4661
X1.3961Y-0.2
X1.6461Y-0.1
X7.1933Y-2.8181
X7.4433Y-2.7181
X1.2091Y-2.8181
X1.4591Y-2.7181
X12.2425Y-3.5661
X12.4925Y-3.4661
X6.8193Y-3.5661
X7.0693Y-3.4661
X9.7179Y-3.5661
X9.9679Y-3.4661
X8.1283Y-1.322
X8.3783Y-1.222
X3.6402Y-0.2
X3.8902Y-0.1
X12.2425Y-1.322
X12.4925Y-1.222
X4.6687Y-4.3142
X4.9187Y-4.2142
X7.0063Y-0.2
X7.2563Y-0.1
X9.9049Y-2.8181
X10.1549Y-2.7181
X3.4531Y-2.8181
X3.7031Y-2.7181
X9.2504Y-2.0701
X9.5004Y-1.9701
X7.0063Y-2.0701
X7.2563Y-1.9701
X7.7543Y-2.0701
X8.0043Y-1.9701
X7.9413Y-2.8181
X8.1913Y-2.7181
X1.7701Y-2.0701
X2.0201Y-1.9701
X8.8764Y-0.2
X9.1264Y-0.1
X6.6323Y-1.322
X6.8823Y-1.222
X11.4945Y-1.322
X11.7445Y-1.222
X7.3803Y-1.322
X7.6303Y-1.222
X12.9906Y-4.3142
X13.2406Y-4.2142
X6.4453Y-2.8181
X6.6953Y-2.7181
X4.2012Y-2.8181
X4.4512Y-2.7181
X0.087Y-2.0701
X0.337Y-1.9701
X8.3154Y-3.5661
X8.5654Y-3.4661
X0.1805Y-2.8181
X0.4305Y-2.7181
X6.2583Y-2.0701
X6.5083Y-1.9701
X1.022Y-2.0701
X1.272Y-1.9701
X8.1283Y-0.2
X8.3783Y-0.1
X0.648Y-1.322
X0.898Y-1.222
X8.8764Y-1.322
X9.1264Y-1.222
X9.3439Y-4.3142
X9.5939Y-4.2142
X12.2425Y-4.3142
X12.4925Y-4.2142
X4.9492Y-2.8181
X5.1992Y-2.7181
X11.4945Y-4.3142
X11.7445Y-4.2142
X7.5673Y-3.5661
X7.8173Y-3.4661
X12.9906Y-2.0701
X13.2406Y-1.9701
X8.5024Y-2.0701
X8.7524Y-1.9701
X5.5102Y-2.0701
X5.7602Y-1.9701
X12.9906Y-1.322
X13.2406Y-1.222
X6.2583Y-0.2
X6.5083Y-0.1
X4.7622Y-0.2
X5.0122Y-0.1
X5.8843Y-1.322
X6.1343Y-1.222
X10.1854Y-2.0701
X10.4354Y-1.9701
X3.6402Y-1.322
X3.8902Y-1.222
X4.5752Y-3.5661
X4.8252Y-3.4661
X1.9571Y-2.8181
X2.2071Y-2.7181
X-0.1Y-0.2
X0.15Y-0.1
X2.3311Y-3.5661
X2.5811Y-3.4661
X2.7051Y-2.8181
X2.9551Y-2.7181
X6.0713Y-3.5661
X6.3213Y-3.4661
X5.3232Y-3.5661
X5.5732Y-3.4661
X4.7622Y-2.0701
X5.0122Y-1.9701
X4.3882Y-1.322
X4.6382Y-1.222
T4
X2.7002Y-4.3892
X6.8372Y-4.3892
X9.3479Y-3.6411
X10.2879Y-3.6411
X-0.0025Y-3.6411
X0.9375Y-3.6411
X9.6284Y-1.397
X10.5684Y-1.397
X9.5349Y-2.8931
X10.4749Y-2.8931
T5
X4.1142Y-1.8701
X2.7002Y-3.7892
X6.8372Y-3.7892
X1.4961Y-1.122
X2.2441Y-1.122
X7.5738Y-4.1142
X5.6102Y0.0
X0.0935Y-4.1142
X2.9921Y-1.122
X3.1791Y-3.3661
X12.3425Y-1.8701
X2.2441Y0.0
X5.7972Y-2.6181
X8.7894Y-2.6181
X1.9636Y-4.1142
X2.6181Y-1.8701
X10.4724Y0.0
X9.7244Y0.0
X9.3479Y-3.0411
X10.2879Y-3.0411
X3.3661Y-1.8701
X0.4675Y-3.3661
X1.4961Y0.0
X7.2933Y-2.6181
X1.3091Y-2.6181
X12.3425Y-3.3661
X6.9193Y-3.3661
X9.8179Y-3.3661
X8.2283Y-1.122
X3.7402Y0.0
X12.3425Y-1.122
X-0.0025Y-3.0411
X0.9375Y-3.0411
X4.7687Y-4.1142
X7.1063Y0.0
X10.0049Y-2.6181
X3.5531Y-2.6181
X9.3504Y-1.8701
X7.1063Y-1.8701
X7.8543Y-1.8701
X8.0413Y-2.6181
X9.6284Y-0.797
X10.5684Y-0.797
X1.8701Y-1.8701
X8.9764Y0.0
X6.7323Y-1.122
X11.5945Y-1.122
X7.4803Y-1.122
X13.0906Y-4.1142
X6.5453Y-2.6181
X4.3012Y-2.6181
X0.187Y-1.8701
X8.4154Y-3.3661
X0.2805Y-2.6181
X6.3583Y-1.8701
X1.122Y-1.8701
X8.2283Y0.0
X0.748Y-1.122
X8.9764Y-1.122
X9.4439Y-4.1142
X12.3425Y-4.1142
X5.0492Y-2.6181
X11.5945Y-4.1142
X7.6673Y-3.3661
X13.0906Y-1.8701
X8.6024Y-1.8701
X5.6102Y-1.8701
X13.0906Y-1.122
X6.3583Y0.0
X9.5349Y-2.2931
X10.4749Y-2.2931
X4.8622Y0.0
X5.9843Y-1.122
X10.2854Y-1.8701
X3.7402Y-1.122
X4.6752Y-3.3661
X2.0571Y-2.6181
X0.0Y0.0
X2.4311Y-3.3661
X2.8051Y-2.6181
X6.1713Y-3.3661
X5.4232Y-3.3661
X4.8622Y-1.8701
X4.4882Y-1.122
X0.0Y-1.122
X10.3789Y-4.1142
X2.9921Y0.0
X5.2362Y-1.122
X8.5089Y-4.1142
X3.9272Y-3.3661
X11.5945Y-1.8701
X1.6831Y-3.3661
X10.0984Y-1.122
X1.0285Y-4.1142
T0
M30
