G04 #@! TF.GenerationSoftware,KiCad,Pcbnew,(5.1.8)-1*
G04 #@! TF.CreationDate,2021-04-06T16:32:38+02:00*
G04 #@! TF.ProjectId,Keyboard_80_with_USB_HUB_V3,4b657962-6f61-4726-945f-3830255f7769,rev?*
G04 #@! TF.SameCoordinates,Original*
G04 #@! TF.FileFunction,Legend,Top*
G04 #@! TF.FilePolarity,Positive*
%FSLAX46Y46*%
G04 Gerber Fmt 4.6, Leading zero omitted, Abs format (unit mm)*
G04 Created by KiCad (PCBNEW (5.1.8)-1) date 2021-04-06 16:32:38*
%MOMM*%
%LPD*%
G01*
G04 APERTURE LIST*
%ADD10C,0.152400*%
%ADD11C,0.100000*%
%ADD12C,0.150000*%
G04 APERTURE END LIST*
D10*
X291381000Y-540000D02*
G75*
G03*
X291381000Y-540000I-381000J0D01*
G01*
X310381000Y-540000D02*
G75*
G03*
X310381000Y-540000I-381000J0D01*
G01*
D11*
G36*
X153000000Y-103500000D02*
G01*
X140500000Y-103500000D01*
X146750000Y-97250000D01*
X153000000Y-103500000D01*
G37*
X153000000Y-103500000D02*
X140500000Y-103500000D01*
X146750000Y-97250000D01*
X153000000Y-103500000D01*
G36*
X150500000Y-111880000D02*
G01*
X146750000Y-104380000D01*
X154250000Y-104380000D01*
X150500000Y-111880000D01*
G37*
X150500000Y-111880000D02*
X146750000Y-104380000D01*
X154250000Y-104380000D01*
X150500000Y-111880000D01*
G36*
X139250000Y-111880000D02*
G01*
X139250000Y-104380000D01*
X146750000Y-104380000D01*
X139250000Y-111880000D01*
G37*
X139250000Y-111880000D02*
X139250000Y-104380000D01*
X146750000Y-104380000D01*
X139250000Y-111880000D01*
G36*
X154250000Y-103500000D02*
G01*
X146750000Y-96000000D01*
X154250000Y-96000000D01*
X154250000Y-103500000D01*
G37*
X154250000Y-103500000D02*
X146750000Y-96000000D01*
X154250000Y-96000000D01*
X154250000Y-103500000D01*
G36*
X139250000Y-103500000D02*
G01*
X139250000Y-96000000D01*
X146750000Y-96000000D01*
X139250000Y-103500000D01*
G37*
X139250000Y-103500000D02*
X139250000Y-96000000D01*
X146750000Y-96000000D01*
X139250000Y-103500000D01*
D12*
X18238095Y5922619D02*
X18238095Y6922619D01*
X18238095Y6446428D02*
X18809523Y6446428D01*
X18809523Y5922619D02*
X18809523Y6922619D01*
X19809523Y5922619D02*
X19238095Y5922619D01*
X19523809Y5922619D02*
X19523809Y6922619D01*
X19428571Y6779761D01*
X19333333Y6684523D01*
X19238095Y6636904D01*
X15863095Y-41577380D02*
X15863095Y-40577380D01*
X15863095Y-41053571D02*
X16434523Y-41053571D01*
X16434523Y-41577380D02*
X16434523Y-40577380D01*
X16863095Y-40672619D02*
X16910714Y-40625000D01*
X17005952Y-40577380D01*
X17244047Y-40577380D01*
X17339285Y-40625000D01*
X17386904Y-40672619D01*
X17434523Y-40767857D01*
X17434523Y-40863095D01*
X17386904Y-41005952D01*
X16815476Y-41577380D01*
X17434523Y-41577380D01*
X13488095Y-98577380D02*
X13488095Y-97577380D01*
X13488095Y-98053571D02*
X14059523Y-98053571D01*
X14059523Y-98577380D02*
X14059523Y-97577380D01*
X14440476Y-97577380D02*
X15059523Y-97577380D01*
X14726190Y-97958333D01*
X14869047Y-97958333D01*
X14964285Y-98005952D01*
X15011904Y-98053571D01*
X15059523Y-98148809D01*
X15059523Y-98386904D01*
X15011904Y-98482142D01*
X14964285Y-98529761D01*
X14869047Y-98577380D01*
X14583333Y-98577380D01*
X14488095Y-98529761D01*
X14440476Y-98482142D01*
X108488095Y5922619D02*
X108488095Y6922619D01*
X108488095Y6446428D02*
X109059523Y6446428D01*
X109059523Y5922619D02*
X109059523Y6922619D01*
X109964285Y6589285D02*
X109964285Y5922619D01*
X109726190Y6970238D02*
X109488095Y6255952D01*
X110107142Y6255952D01*
X94238095Y-41577380D02*
X94238095Y-40577380D01*
X94238095Y-41053571D02*
X94809523Y-41053571D01*
X94809523Y-41577380D02*
X94809523Y-40577380D01*
X95761904Y-40577380D02*
X95285714Y-40577380D01*
X95238095Y-41053571D01*
X95285714Y-41005952D01*
X95380952Y-40958333D01*
X95619047Y-40958333D01*
X95714285Y-41005952D01*
X95761904Y-41053571D01*
X95809523Y-41148809D01*
X95809523Y-41386904D01*
X95761904Y-41482142D01*
X95714285Y-41529761D01*
X95619047Y-41577380D01*
X95380952Y-41577380D01*
X95285714Y-41529761D01*
X95238095Y-41482142D01*
X94238095Y-98577380D02*
X94238095Y-97577380D01*
X94238095Y-98053571D02*
X94809523Y-98053571D01*
X94809523Y-98577380D02*
X94809523Y-97577380D01*
X95714285Y-97577380D02*
X95523809Y-97577380D01*
X95428571Y-97625000D01*
X95380952Y-97672619D01*
X95285714Y-97815476D01*
X95238095Y-98005952D01*
X95238095Y-98386904D01*
X95285714Y-98482142D01*
X95333333Y-98529761D01*
X95428571Y-98577380D01*
X95619047Y-98577380D01*
X95714285Y-98529761D01*
X95761904Y-98482142D01*
X95809523Y-98386904D01*
X95809523Y-98148809D01*
X95761904Y-98053571D01*
X95714285Y-98005952D01*
X95619047Y-97958333D01*
X95428571Y-97958333D01*
X95333333Y-98005952D01*
X95285714Y-98053571D01*
X95238095Y-98148809D01*
X193988095Y5922619D02*
X193988095Y6922619D01*
X193988095Y6446428D02*
X194559523Y6446428D01*
X194559523Y5922619D02*
X194559523Y6922619D01*
X194940476Y6922619D02*
X195607142Y6922619D01*
X195178571Y5922619D01*
X170238095Y-41577380D02*
X170238095Y-40577380D01*
X170238095Y-41053571D02*
X170809523Y-41053571D01*
X170809523Y-41577380D02*
X170809523Y-40577380D01*
X171428571Y-41005952D02*
X171333333Y-40958333D01*
X171285714Y-40910714D01*
X171238095Y-40815476D01*
X171238095Y-40767857D01*
X171285714Y-40672619D01*
X171333333Y-40625000D01*
X171428571Y-40577380D01*
X171619047Y-40577380D01*
X171714285Y-40625000D01*
X171761904Y-40672619D01*
X171809523Y-40767857D01*
X171809523Y-40815476D01*
X171761904Y-40910714D01*
X171714285Y-40958333D01*
X171619047Y-41005952D01*
X171428571Y-41005952D01*
X171333333Y-41053571D01*
X171285714Y-41101190D01*
X171238095Y-41196428D01*
X171238095Y-41386904D01*
X171285714Y-41482142D01*
X171333333Y-41529761D01*
X171428571Y-41577380D01*
X171619047Y-41577380D01*
X171714285Y-41529761D01*
X171761904Y-41482142D01*
X171809523Y-41386904D01*
X171809523Y-41196428D01*
X171761904Y-41101190D01*
X171714285Y-41053571D01*
X171619047Y-41005952D01*
X165488095Y-98577380D02*
X165488095Y-97577380D01*
X165488095Y-98053571D02*
X166059523Y-98053571D01*
X166059523Y-98577380D02*
X166059523Y-97577380D01*
X166583333Y-98577380D02*
X166773809Y-98577380D01*
X166869047Y-98529761D01*
X166916666Y-98482142D01*
X167011904Y-98339285D01*
X167059523Y-98148809D01*
X167059523Y-97767857D01*
X167011904Y-97672619D01*
X166964285Y-97625000D01*
X166869047Y-97577380D01*
X166678571Y-97577380D01*
X166583333Y-97625000D01*
X166535714Y-97672619D01*
X166488095Y-97767857D01*
X166488095Y-98005952D01*
X166535714Y-98101190D01*
X166583333Y-98148809D01*
X166678571Y-98196428D01*
X166869047Y-98196428D01*
X166964285Y-98148809D01*
X167011904Y-98101190D01*
X167059523Y-98005952D01*
X236261904Y5922619D02*
X236261904Y6922619D01*
X236261904Y6446428D02*
X236833333Y6446428D01*
X236833333Y5922619D02*
X236833333Y6922619D01*
X237833333Y5922619D02*
X237261904Y5922619D01*
X237547619Y5922619D02*
X237547619Y6922619D01*
X237452380Y6779761D01*
X237357142Y6684523D01*
X237261904Y6636904D01*
X238452380Y6922619D02*
X238547619Y6922619D01*
X238642857Y6875000D01*
X238690476Y6827380D01*
X238738095Y6732142D01*
X238785714Y6541666D01*
X238785714Y6303571D01*
X238738095Y6113095D01*
X238690476Y6017857D01*
X238642857Y5970238D01*
X238547619Y5922619D01*
X238452380Y5922619D01*
X238357142Y5970238D01*
X238309523Y6017857D01*
X238261904Y6113095D01*
X238214285Y6303571D01*
X238214285Y6541666D01*
X238261904Y6732142D01*
X238309523Y6827380D01*
X238357142Y6875000D01*
X238452380Y6922619D01*
X248136904Y-41577380D02*
X248136904Y-40577380D01*
X248136904Y-41053571D02*
X248708333Y-41053571D01*
X248708333Y-41577380D02*
X248708333Y-40577380D01*
X249708333Y-41577380D02*
X249136904Y-41577380D01*
X249422619Y-41577380D02*
X249422619Y-40577380D01*
X249327380Y-40720238D01*
X249232142Y-40815476D01*
X249136904Y-40863095D01*
X250660714Y-41577380D02*
X250089285Y-41577380D01*
X250375000Y-41577380D02*
X250375000Y-40577380D01*
X250279761Y-40720238D01*
X250184523Y-40815476D01*
X250089285Y-40863095D01*
X250511904Y-98577380D02*
X250511904Y-97577380D01*
X250511904Y-98053571D02*
X251083333Y-98053571D01*
X251083333Y-98577380D02*
X251083333Y-97577380D01*
X252083333Y-98577380D02*
X251511904Y-98577380D01*
X251797619Y-98577380D02*
X251797619Y-97577380D01*
X251702380Y-97720238D01*
X251607142Y-97815476D01*
X251511904Y-97863095D01*
X252464285Y-97672619D02*
X252511904Y-97625000D01*
X252607142Y-97577380D01*
X252845238Y-97577380D01*
X252940476Y-97625000D01*
X252988095Y-97672619D01*
X253035714Y-97767857D01*
X253035714Y-97863095D01*
X252988095Y-98005952D01*
X252416666Y-98577380D01*
X253035714Y-98577380D01*
X279011904Y5922619D02*
X279011904Y6922619D01*
X279011904Y6446428D02*
X279583333Y6446428D01*
X279583333Y5922619D02*
X279583333Y6922619D01*
X280583333Y5922619D02*
X280011904Y5922619D01*
X280297619Y5922619D02*
X280297619Y6922619D01*
X280202380Y6779761D01*
X280107142Y6684523D01*
X280011904Y6636904D01*
X280916666Y6922619D02*
X281535714Y6922619D01*
X281202380Y6541666D01*
X281345238Y6541666D01*
X281440476Y6494047D01*
X281488095Y6446428D01*
X281535714Y6351190D01*
X281535714Y6113095D01*
X281488095Y6017857D01*
X281440476Y5970238D01*
X281345238Y5922619D01*
X281059523Y5922619D01*
X280964285Y5970238D01*
X280916666Y6017857D01*
X321761904Y-41577380D02*
X321761904Y-40577380D01*
X321761904Y-41053571D02*
X322333333Y-41053571D01*
X322333333Y-41577380D02*
X322333333Y-40577380D01*
X323333333Y-41577380D02*
X322761904Y-41577380D01*
X323047619Y-41577380D02*
X323047619Y-40577380D01*
X322952380Y-40720238D01*
X322857142Y-40815476D01*
X322761904Y-40863095D01*
X324190476Y-40910714D02*
X324190476Y-41577380D01*
X323952380Y-40529761D02*
X323714285Y-41244047D01*
X324333333Y-41244047D01*
X321761904Y-98577380D02*
X321761904Y-97577380D01*
X321761904Y-98053571D02*
X322333333Y-98053571D01*
X322333333Y-98577380D02*
X322333333Y-97577380D01*
X323333333Y-98577380D02*
X322761904Y-98577380D01*
X323047619Y-98577380D02*
X323047619Y-97577380D01*
X322952380Y-97720238D01*
X322857142Y-97815476D01*
X322761904Y-97863095D01*
X324238095Y-97577380D02*
X323761904Y-97577380D01*
X323714285Y-98053571D01*
X323761904Y-98005952D01*
X323857142Y-97958333D01*
X324095238Y-97958333D01*
X324190476Y-98005952D01*
X324238095Y-98053571D01*
X324285714Y-98148809D01*
X324285714Y-98386904D01*
X324238095Y-98482142D01*
X324190476Y-98529761D01*
X324095238Y-98577380D01*
X323857142Y-98577380D01*
X323761904Y-98529761D01*
X323714285Y-98482142D01*
X325238095Y-9654761D02*
X325380952Y-9702380D01*
X325619047Y-9702380D01*
X325714285Y-9654761D01*
X325761904Y-9607142D01*
X325809523Y-9511904D01*
X325809523Y-9416666D01*
X325761904Y-9321428D01*
X325714285Y-9273809D01*
X325619047Y-9226190D01*
X325428571Y-9178571D01*
X325333333Y-9130952D01*
X325285714Y-9083333D01*
X325238095Y-8988095D01*
X325238095Y-8892857D01*
X325285714Y-8797619D01*
X325333333Y-8750000D01*
X325428571Y-8702380D01*
X325666666Y-8702380D01*
X325809523Y-8750000D01*
X326761904Y-9702380D02*
X326190476Y-9702380D01*
X326476190Y-9702380D02*
X326476190Y-8702380D01*
X326380952Y-8845238D01*
X326285714Y-8940476D01*
X326190476Y-8988095D01*
X318452380Y-4261904D02*
X318452380Y-3690476D01*
X319452380Y-3976190D02*
X318452380Y-3976190D01*
X319452380Y-3357142D02*
X318452380Y-3357142D01*
X318452380Y-2976190D01*
X318500000Y-2880952D01*
X318547619Y-2833333D01*
X318642857Y-2785714D01*
X318785714Y-2785714D01*
X318880952Y-2833333D01*
X318928571Y-2880952D01*
X318976190Y-2976190D01*
X318976190Y-3357142D01*
X318880952Y-2214285D02*
X318833333Y-2309523D01*
X318785714Y-2357142D01*
X318690476Y-2404761D01*
X318642857Y-2404761D01*
X318547619Y-2357142D01*
X318500000Y-2309523D01*
X318452380Y-2214285D01*
X318452380Y-2023809D01*
X318500000Y-1928571D01*
X318547619Y-1880952D01*
X318642857Y-1833333D01*
X318690476Y-1833333D01*
X318785714Y-1880952D01*
X318833333Y-1928571D01*
X318880952Y-2023809D01*
X318880952Y-2214285D01*
X318928571Y-2309523D01*
X318976190Y-2357142D01*
X319071428Y-2404761D01*
X319261904Y-2404761D01*
X319357142Y-2357142D01*
X319404761Y-2309523D01*
X319452380Y-2214285D01*
X319452380Y-2023809D01*
X319404761Y-1928571D01*
X319357142Y-1880952D01*
X319261904Y-1833333D01*
X319071428Y-1833333D01*
X318976190Y-1880952D01*
X318928571Y-1928571D01*
X318880952Y-2023809D01*
X317202380Y-4261904D02*
X317202380Y-3690476D01*
X318202380Y-3976190D02*
X317202380Y-3976190D01*
X318202380Y-3357142D02*
X317202380Y-3357142D01*
X317202380Y-2976190D01*
X317250000Y-2880952D01*
X317297619Y-2833333D01*
X317392857Y-2785714D01*
X317535714Y-2785714D01*
X317630952Y-2833333D01*
X317678571Y-2880952D01*
X317726190Y-2976190D01*
X317726190Y-3357142D01*
X318202380Y-2309523D02*
X318202380Y-2119047D01*
X318154761Y-2023809D01*
X318107142Y-1976190D01*
X317964285Y-1880952D01*
X317773809Y-1833333D01*
X317392857Y-1833333D01*
X317297619Y-1880952D01*
X317250000Y-1928571D01*
X317202380Y-2023809D01*
X317202380Y-2214285D01*
X317250000Y-2309523D01*
X317297619Y-2357142D01*
X317392857Y-2404761D01*
X317630952Y-2404761D01*
X317726190Y-2357142D01*
X317773809Y-2309523D01*
X317821428Y-2214285D01*
X317821428Y-2023809D01*
X317773809Y-1928571D01*
X317726190Y-1880952D01*
X317630952Y-1833333D01*
X319702380Y-4238095D02*
X319702380Y-3666666D01*
X320702380Y-3952380D02*
X319702380Y-3952380D01*
X320702380Y-3333333D02*
X319702380Y-3333333D01*
X319702380Y-2952380D01*
X319750000Y-2857142D01*
X319797619Y-2809523D01*
X319892857Y-2761904D01*
X320035714Y-2761904D01*
X320130952Y-2809523D01*
X320178571Y-2857142D01*
X320226190Y-2952380D01*
X320226190Y-3333333D01*
X320702380Y-1809523D02*
X320702380Y-2380952D01*
X320702380Y-2095238D02*
X319702380Y-2095238D01*
X319845238Y-2190476D01*
X319940476Y-2285714D01*
X319988095Y-2380952D01*
X319702380Y-1190476D02*
X319702380Y-1095238D01*
X319750000Y-1000000D01*
X319797619Y-952380D01*
X319892857Y-904761D01*
X320083333Y-857142D01*
X320321428Y-857142D01*
X320511904Y-904761D01*
X320607142Y-952380D01*
X320654761Y-1000000D01*
X320702380Y-1095238D01*
X320702380Y-1190476D01*
X320654761Y-1285714D01*
X320607142Y-1333333D01*
X320511904Y-1380952D01*
X320321428Y-1428571D01*
X320083333Y-1428571D01*
X319892857Y-1380952D01*
X319797619Y-1333333D01*
X319750000Y-1285714D01*
X319702380Y-1190476D01*
X321202380Y-4238095D02*
X321202380Y-3666666D01*
X322202380Y-3952380D02*
X321202380Y-3952380D01*
X322202380Y-3333333D02*
X321202380Y-3333333D01*
X321202380Y-2952380D01*
X321250000Y-2857142D01*
X321297619Y-2809523D01*
X321392857Y-2761904D01*
X321535714Y-2761904D01*
X321630952Y-2809523D01*
X321678571Y-2857142D01*
X321726190Y-2952380D01*
X321726190Y-3333333D01*
X322202380Y-1809523D02*
X322202380Y-2380952D01*
X322202380Y-2095238D02*
X321202380Y-2095238D01*
X321345238Y-2190476D01*
X321440476Y-2285714D01*
X321488095Y-2380952D01*
X322202380Y-857142D02*
X322202380Y-1428571D01*
X322202380Y-1142857D02*
X321202380Y-1142857D01*
X321345238Y-1238095D01*
X321440476Y-1333333D01*
X321488095Y-1428571D01*
M02*
