M48
; DRILL file {KiCad (5.1.8)-1} date 04/06/21 16:33:27
; FORMAT={-:-/ absolute / inch / decimal}
; #@! TF.CreationDate,2021-04-06T16:33:27+02:00
; #@! TF.GenerationSoftware,Kicad,Pcbnew,(5.1.8)-1
; #@! TF.FileFunction,Plated,1,2,PTH
FMAT,2
INCH
T1C0.0118
T2C0.0256
T3C0.0390
T4C0.0910
T5C0.1063
%
G90
G05
T1
X-0.2461Y-0.2756
X-0.2461Y-0.3543
X-0.2461Y-1.25
X-0.2461Y-1.3976
X-0.2165Y-3.2185
X-0.2067Y0.2264
X-0.1772Y-0.7874
X-0.1575Y-4.2421
X-0.1378Y-1.998
X-0.0797Y-3.1959
X-0.0591Y-2.1457
X-0.0394Y-2.7461
X-0.0295Y-2.1752
X0.0295Y-2.8937
X0.1014Y-2.4478
X0.2165Y-3.4843
X0.2165Y-3.6417
X0.4331Y-0.8858
X0.4331Y-2.5197
X0.502Y-1.25
X0.502Y-1.3976
X0.748Y-3.1988
X0.7776Y-3.878
X0.7776Y-4.2323
X0.7972Y-2.0669
X0.876Y-2.1457
X0.9843Y-2.7461
X1.0531Y-2.3819
X1.063Y-2.8937
X1.1516Y-0.374
X1.1811Y-0.8858
X1.25Y-0.2756
X1.25Y-1.2402
X1.25Y-1.3976
X1.4272Y-1.7028
X1.437Y-3.4744
X1.437Y-3.6417
X1.624Y-1.9882
X1.624Y-2.1457
X1.6535Y-3.878
X1.7126Y-4.2323
X1.7913Y0.1673
X1.811Y-2.3819
X1.811Y-2.7362
X1.811Y-2.8937
X1.8209Y-0.748
X1.8799Y-0.3937
X1.9291Y-0.8858
X1.9882Y-3.1988
X1.998Y-0.2756
X1.998Y-1.2402
X1.998Y-1.3976
X2.1752Y-1.7028
X2.185Y-3.4744
X2.185Y-3.6417
X2.2539Y-2.4902
X2.372Y-1.9882
X2.372Y-2.1457
X2.3917Y-3.8091
X2.5492Y0.1673
X2.5591Y-2.3819
X2.5591Y-2.7264
X2.5591Y-2.8937
X2.6083Y-0.4134
X2.687Y-0.8858
X2.6969Y-3.2185
X2.7461Y-0.2756
X2.7461Y-1.2303
X2.7461Y-1.3976
X2.9134Y-1.7028
X2.9331Y-3.4646
X3.0709Y-3.8091
X3.1201Y-1.9685
X3.1201Y-2.1457
X3.2972Y0.1673
X3.3071Y-2.3819
X3.3071Y-2.7362
X3.3071Y-2.8937
X3.3366Y-0.4331
X3.435Y-0.8858
X3.4744Y-3.1988
X3.4941Y-0.2756
X3.4941Y-1.2303
X3.4941Y-1.3976
X3.6811Y-3.4744
X3.7894Y-2.0669
X3.8681Y-2.1457
X4.0551Y-2.3819
X4.0551Y-2.7264
X4.0551Y-2.8937
X4.1831Y-0.8858
X4.2323Y-3.1988
X4.2421Y-0.748
X4.2421Y-1.2303
X4.2421Y-1.3976
X4.4193Y-1.7028
X4.4291Y-3.4744
X4.4291Y-3.6417
X4.439Y-0.4528
X4.5079Y-3.878
X4.5177Y-4.2224
X4.6161Y-0.2756
X4.6161Y-1.9783
X4.6161Y-2.1457
X4.7343Y-2.3819
X4.8031Y-2.7264
X4.8031Y-2.8937
X4.9311Y-0.8858
X4.9803Y-3.1988
X4.9902Y-1.2303
X4.9902Y-1.3976
X5.1575Y0.1673
X5.1673Y-0.4724
X5.1673Y-1.7028
X5.1772Y-3.4744
X5.2362Y-2.5098
X5.3642Y-0.2756
X5.3642Y-1.9783
X5.3642Y-2.1457
X5.4823Y-2.3819
X5.5512Y-2.7264
X5.5512Y-2.8937
X5.6693Y-0.876
X5.7283Y-3.1988
X5.7382Y-1.2303
X5.7382Y-1.3976
X5.8957Y-0.4921
X5.9154Y0.1673
X5.9154Y-1.7028
X5.9252Y-3.4744
X6.1122Y-0.2756
X6.1122Y-1.9783
X6.1122Y-2.1457
X6.2402Y-2.3819
X6.2992Y-2.7165
X6.2992Y-2.8937
X6.4173Y-0.8858
X6.4764Y-3.1988
X6.4862Y-1.2303
X6.4862Y-1.3976
X6.624Y-0.5118
X6.6634Y0.1673
X6.6732Y-3.4744
X6.6732Y-3.6417
X6.7717Y-1.9882
X6.8602Y-0.2756
X6.8602Y-0.5315
X6.8602Y-2.1457
X6.8996Y0.2264
X6.9783Y-2.3819
X7.0472Y-2.7264
X7.0472Y-2.8937
X7.1752Y-0.8858
X7.2146Y-3.1988
X7.2343Y-1.2402
X7.2343Y-1.3976
X7.2343Y-4.311
X7.3228Y-3.878
X7.4114Y-1.7028
X7.4213Y-3.4843
X7.4213Y-3.6417
X7.6083Y-1.9783
X7.6083Y-2.1457
X7.7264Y-2.3819
X7.7953Y-2.7165
X7.7953Y-2.8937
X7.9232Y-0.8858
X7.9724Y-3.1988
X7.9823Y-0.2756
X7.9823Y-1.2303
X7.9823Y-1.3976
X8.1496Y-1.7028
X8.1693Y-3.4744
X8.1693Y-3.6417
X8.248Y-3.878
X8.2579Y-4.2224
X8.3563Y-1.9685
X8.3563Y-2.1457
X8.4547Y-0.5512
X8.4744Y-2.3819
X8.5335Y0.1673
X8.5335Y-0.748
X8.5433Y-2.7264
X8.5433Y-2.8937
X8.6811Y-0.8858
X8.7205Y-3.1988
X8.7303Y-0.2756
X8.7303Y-1.2303
X8.7303Y-1.3976
X8.9075Y-1.7028
X9.1043Y-1.9783
X9.1043Y-2.1457
X9.1831Y-0.5709
X9.1831Y-3.878
X9.1929Y-4.2224
X9.4783Y-0.2756
X9.4882Y-3.4843
X9.5669Y-3.6417
X9.685Y-2.7264
X9.7244Y-2.2441
X9.8031Y-0.6201
X9.8425Y-0.8858
X9.8524Y-1.3976
X9.9114Y-0.5906
X10.0Y-3.2677
X10.0197Y0.1673
X10.0394Y-1.9783
X10.0394Y-4.311
X10.1181Y-0.3051
X10.128Y-3.878
X10.1642Y-3.1957
X10.187Y-2.5
X10.2264Y-0.2756
X10.2756Y-2.3917
X10.4134Y-3.6122
X10.5305Y-0.9518
X10.561Y-1.7028
X10.6201Y0.315
X10.626Y-1.6998
X10.6299Y-2.2047
X10.689Y-1.4567
X10.7677Y-2.2047
X10.7776Y0.1673
X10.7874Y-1.4567
X10.9154Y-3.6024
X10.9154Y-3.8091
X11.2598Y-2.8543
X11.2598Y-3.6417
X11.2598Y-4.4488
X11.2697Y-2.2638
X11.2785Y-1.6998
X11.2795Y-1.4567
X11.2894Y-3.622
X11.2894Y-3.7205
X11.3189Y-3.6024
X11.3189Y-3.7402
X11.3248Y-2.2047
X11.3484Y-1.3976
X11.3484Y-1.9783
X11.3484Y-2.1654
X11.3484Y-3.5827
X11.3484Y-3.7598
X11.3484Y-3.878
X11.3484Y-4.2126
X11.4173Y-0.7776
X11.4252Y-0.9518
X11.4764Y-2.4409
X11.5157Y0.0
X11.5256Y-2.4016
X11.565Y-2.4409
X11.5945Y-0.5217
X11.6043Y-2.4409
X11.6339Y-0.3839
X11.6339Y-2.313
X11.7323Y-0.1378
X11.7323Y-0.3642
X11.7421Y-2.6181
X11.7421Y-2.7264
X11.7717Y-1.0925
X11.7913Y-2.313
X11.8209Y-0.5709
X11.8504Y-2.6181
X11.8602Y-0.9547
X11.8815Y-2.3508
X11.8898Y-1.7028
X11.9094Y-0.3543
X11.9313Y-0.6829
X11.9488Y-2.9035
X11.9587Y-2.6181
X11.9587Y-2.7264
X11.9892Y-0.4045
X12.0079Y-2.9724
X12.0276Y-0.5118
X12.0276Y-0.6299
X12.0276Y-3.878
X12.0866Y-0.5709
X12.0965Y-1.3976
X12.0965Y-1.9783
X12.0965Y-2.1457
X12.0965Y-3.6417
X12.0965Y-3.7402
X12.0965Y-4.2224
X12.1063Y-0.9154
X12.1063Y-1.0138
X12.1327Y-3.1957
X12.1457Y0.0
X12.1457Y-0.0689
X12.1457Y-0.5118
X12.1457Y-0.6299
X12.1457Y-2.2933
X12.1457Y-2.4409
X12.1457Y-2.6083
X12.1457Y-2.8346
X12.1457Y-2.874
X12.1654Y-0.2756
X12.1654Y-0.3622
X12.1949Y-2.6476
X12.1949Y-2.687
X12.2106Y-0.0689
X12.2146Y-2.6673
X12.2146Y-2.7067
X12.2244Y-2.4803
X12.2244Y-2.5197
X12.2461Y-0.7382
X12.2638Y0.0
X12.2736Y-0.5709
X12.2835Y-0.1673
X12.2835Y-0.6004
X12.3031Y-2.7657
X12.3031Y-2.9035
X12.3425Y-3.0709
X12.3622Y-0.7185
X12.4213Y0.0
X12.4252Y-0.3622
X12.4409Y-0.561
X12.4508Y-0.8563
X12.4803Y-0.6988
X12.4902Y-2.7657
X12.4902Y-2.9134
X12.5098Y-0.2362
X12.5591Y-0.2362
X12.5594Y-0.5213
X12.6043Y-0.3898
X12.6043Y-0.4902
X12.6083Y-0.2362
X12.6083Y-0.6496
X12.6181Y0.0591
X12.6181Y-0.9547
X12.6555Y-0.1378
X12.6575Y-0.2362
X12.687Y-2.7067
X12.6929Y-0.3622
X12.7126Y-0.1583
X12.7165Y-2.5
X12.7362Y0.315
X12.7362Y-1.4862
X12.7362Y-2.687
X12.7461Y0.2657
X12.7461Y-0.0591
X12.7657Y-3.6713
X12.7657Y-3.8091
X12.7953Y0.1969
X12.8366Y-0.7441
X12.8445Y-0.0591
X12.8445Y-1.3976
X12.8445Y-1.9685
X12.8445Y-2.1457
X12.8445Y-3.8091
X12.8445Y-4.2224
X12.8504Y-0.3622
X12.8642Y-0.9154
X12.8642Y-1.0138
X12.872Y-0.8524
X12.8839Y0.1378
X12.8937Y-2.5
X12.9035Y-2.6476
X12.9134Y0.0098
X12.9134Y-0.0295
X12.9331Y-1.565
X12.9528Y0.2854
X12.9528Y-0.4823
X12.9606Y-2.6673
X12.9862Y-2.5925
X12.9862Y-2.6476
X12.9921Y0.2362
X13.002Y-0.1181
X13.0197Y-2.6437
X13.0315Y-0.4823
X13.0807Y-3.8091
X13.0906Y-0.6555
X13.1791Y-0.128
X13.1988Y-1.5945
X13.2126Y0.2854
X13.2185Y-3.7205
X13.2283Y-0.128
X13.2343Y-0.5807
X13.2382Y-3.7402
X13.2579Y-3.7598
X13.2874Y-0.9547
X13.2972Y-1.7618
X13.3031Y0.0256
X13.3169Y-0.748
X13.3169Y-0.8957
X13.3209Y-2.6437
X13.3268Y-2.5394
X13.376Y-0.0295
X13.3957Y-2.1949
X13.4154Y-2.2146
T3
X12.2047Y0.0787
X12.3031Y0.0787
X12.3819Y0.0787
X12.4803Y0.0787
X11.4567Y0.0787
X11.5551Y0.0787
X11.6339Y0.0787
X11.7323Y0.0787
T4
X12.0839Y0.1854
X12.6012Y0.1854
X11.3358Y0.1854
X11.8531Y0.1854
T5
X0.748Y0.0935
X11.0335Y0.0935
X12.7165Y-4.0207
X12.7165Y-1.7766
X9.9114Y-4.0207
X9.3504Y0.0935
X9.8179Y-1.7766
X6.5453Y-4.0207
X7.6673Y0.0935
X3.7402Y-4.0207
X6.7323Y-1.7766
X4.3012Y0.0935
X3.7402Y-1.7766
X0.561Y-4.0207
X0.6545Y-1.7766
T2
G00X12.9205Y0.5207
M15
G01X12.9205Y0.4695
M16
G05
G00X12.9205Y0.3642
M15
G01X12.9205Y0.3248
M16
G05
G00X13.2606Y0.5207
M15
G01X13.2606Y0.4695
M16
G05
G00X13.2606Y0.3642
M15
G01X13.2606Y0.3248
M16
G05
T0
M30
