G04 #@! TF.GenerationSoftware,KiCad,Pcbnew,(5.1.8)-1*
G04 #@! TF.CreationDate,2021-04-06T16:32:38+02:00*
G04 #@! TF.ProjectId,Keyboard_80_with_USB_HUB_V3,4b657962-6f61-4726-945f-3830255f7769,rev?*
G04 #@! TF.SameCoordinates,Original*
G04 #@! TF.FileFunction,Profile,NP*
%FSLAX46Y46*%
G04 Gerber Fmt 4.6, Leading zero omitted, Abs format (unit mm)*
G04 Created by KiCad (PCBNEW (5.1.8)-1) date 2021-04-06 16:32:38*
%MOMM*%
%LPD*%
G01*
G04 APERTURE LIST*
G04 #@! TA.AperFunction,Profile*
%ADD10C,0.050000*%
G04 #@! TD*
G04 #@! TA.AperFunction,Profile*
%ADD11C,0.120000*%
G04 #@! TD*
G04 APERTURE END LIST*
D10*
X327200000Y9500000D02*
X275500000Y9500000D01*
X337300000Y14200000D02*
G75*
G02*
X337800000Y13700000I0J-500000D01*
G01*
X327200000Y13700000D02*
G75*
G02*
X327700000Y14200000I500000J0D01*
G01*
X327200000Y13700000D02*
X327200000Y9500000D01*
X327700000Y14200000D02*
X332500000Y14200000D01*
X337300000Y14200000D02*
X332500000Y14200000D01*
X337800000Y9500000D02*
X339625000Y9500000D01*
X337800000Y13700000D02*
X337800000Y9500000D01*
X275500000Y9500000D02*
X-4750000Y9500000D01*
X-9500000Y7125000D02*
G75*
G02*
X-7125000Y9500000I2375000J0D01*
G01*
X-7125000Y-114000000D02*
G75*
G02*
X-9500000Y-111625000I0J2375000D01*
G01*
X342000000Y-111625000D02*
G75*
G02*
X339625000Y-114000000I-2375000J0D01*
G01*
X339625000Y9500000D02*
G75*
G02*
X342000000Y7125000I0J-2375000D01*
G01*
X342000000Y4750000D02*
X342000000Y7125000D01*
X339625000Y-114000000D02*
X337250000Y-114000000D01*
X342000000Y-111625000D02*
X342000000Y-109250000D01*
X-9500000Y-109250000D02*
X-9500000Y-111625000D01*
X-4750000Y-114000000D02*
X-7125000Y-114000000D01*
X-4750000Y9500000D02*
X-7125000Y9500000D01*
X-9500000Y4750000D02*
X-9500000Y7125000D01*
X-9500000Y4750000D02*
X-9500000Y-109250000D01*
X342000000Y-109250000D02*
X342000000Y4750000D01*
X-4750000Y-114000000D02*
X337250000Y-114000000D01*
D11*
X330600000Y-21700000D02*
X334400000Y-21700000D01*
X334400000Y-25100000D02*
X330600000Y-25100000D01*
X330600000Y-21700000D02*
X330600000Y-25100000D01*
X334400000Y-21700000D02*
X334400000Y-25100000D01*
X-1900000Y-21700000D02*
X1900000Y-21700000D01*
X1900000Y-25100000D02*
X-1900000Y-25100000D01*
X-1900000Y-21700000D02*
X-1900000Y-25100000D01*
X1900000Y-21700000D02*
X1900000Y-25100000D01*
X17100000Y-21700000D02*
X20900000Y-21700000D01*
X20900000Y-25100000D02*
X17100000Y-25100000D01*
X17100000Y-21700000D02*
X17100000Y-25100000D01*
X20900000Y-21700000D02*
X20900000Y-25100000D01*
X36100000Y-21700000D02*
X39900000Y-21700000D01*
X39900000Y-25100000D02*
X36100000Y-25100000D01*
X36100000Y-21700000D02*
X36100000Y-25100000D01*
X39900000Y-21700000D02*
X39900000Y-25100000D01*
X55100000Y-21700000D02*
X58900000Y-21700000D01*
X58900000Y-25100000D02*
X55100000Y-25100000D01*
X55100000Y-21700000D02*
X55100000Y-25100000D01*
X58900000Y-21700000D02*
X58900000Y-25100000D01*
X74100000Y-21700000D02*
X77900000Y-21700000D01*
X77900000Y-25100000D02*
X74100000Y-25100000D01*
X74100000Y-21700000D02*
X74100000Y-25100000D01*
X77900000Y-21700000D02*
X77900000Y-25100000D01*
X93100000Y-21700000D02*
X96900000Y-21700000D01*
X96900000Y-25100000D02*
X93100000Y-25100000D01*
X93100000Y-21700000D02*
X93100000Y-25100000D01*
X96900000Y-21700000D02*
X96900000Y-25100000D01*
X112100000Y-21700000D02*
X115900000Y-21700000D01*
X115900000Y-25100000D02*
X112100000Y-25100000D01*
X112100000Y-21700000D02*
X112100000Y-25100000D01*
X115900000Y-21700000D02*
X115900000Y-25100000D01*
X131100000Y-21700000D02*
X134900000Y-21700000D01*
X134900000Y-25100000D02*
X131100000Y-25100000D01*
X131100000Y-21700000D02*
X131100000Y-25100000D01*
X134900000Y-21700000D02*
X134900000Y-25100000D01*
X150100000Y-21700000D02*
X153900000Y-21700000D01*
X153900000Y-25100000D02*
X150100000Y-25100000D01*
X150100000Y-21700000D02*
X150100000Y-25100000D01*
X153900000Y-21700000D02*
X153900000Y-25100000D01*
X169100000Y-21700000D02*
X172900000Y-21700000D01*
X172900000Y-25100000D02*
X169100000Y-25100000D01*
X169100000Y-21700000D02*
X169100000Y-25100000D01*
X172900000Y-21700000D02*
X172900000Y-25100000D01*
X188100000Y-21700000D02*
X191900000Y-21700000D01*
X191900000Y-25100000D02*
X188100000Y-25100000D01*
X188100000Y-21700000D02*
X188100000Y-25100000D01*
X191900000Y-21700000D02*
X191900000Y-25100000D01*
X207100000Y-21700000D02*
X210900000Y-21700000D01*
X210900000Y-25100000D02*
X207100000Y-25100000D01*
X207100000Y-21700000D02*
X207100000Y-25100000D01*
X210900000Y-21700000D02*
X210900000Y-25100000D01*
X226100000Y-21700000D02*
X229900000Y-21700000D01*
X229900000Y-25100000D02*
X226100000Y-25100000D01*
X226100000Y-21700000D02*
X226100000Y-25100000D01*
X229900000Y-21700000D02*
X229900000Y-25100000D01*
X254600000Y-21700000D02*
X258400000Y-21700000D01*
X258400000Y-25100000D02*
X254600000Y-25100000D01*
X254600000Y-21700000D02*
X254600000Y-25100000D01*
X258400000Y-21700000D02*
X258400000Y-25100000D01*
X292600000Y-21700000D02*
X296400000Y-21700000D01*
X296400000Y-25100000D02*
X292600000Y-25100000D01*
X292600000Y-21700000D02*
X292600000Y-25100000D01*
X296400000Y-21700000D02*
X296400000Y-25100000D01*
X311600000Y-21700000D02*
X315400000Y-21700000D01*
X315400000Y-25100000D02*
X311600000Y-25100000D01*
X311600000Y-21700000D02*
X311600000Y-25100000D01*
X315400000Y-21700000D02*
X315400000Y-25100000D01*
X5225000Y-59700000D02*
X9025000Y-59700000D01*
X9025000Y-63100000D02*
X5225000Y-63100000D01*
X5225000Y-59700000D02*
X5225000Y-63100000D01*
X9025000Y-59700000D02*
X9025000Y-63100000D01*
X31350000Y-59700000D02*
X35150000Y-59700000D01*
X35150000Y-63100000D02*
X31350000Y-63100000D01*
X31350000Y-59700000D02*
X31350000Y-63100000D01*
X35150000Y-59700000D02*
X35150000Y-63100000D01*
X50350000Y-59700000D02*
X54150000Y-59700000D01*
X54150000Y-63100000D02*
X50350000Y-63100000D01*
X50350000Y-59700000D02*
X50350000Y-63100000D01*
X54150000Y-59700000D02*
X54150000Y-63100000D01*
X69350000Y-59700000D02*
X73150000Y-59700000D01*
X73150000Y-63100000D02*
X69350000Y-63100000D01*
X69350000Y-59700000D02*
X69350000Y-63100000D01*
X73150000Y-59700000D02*
X73150000Y-63100000D01*
X88350000Y-59700000D02*
X92150000Y-59700000D01*
X92150000Y-63100000D02*
X88350000Y-63100000D01*
X88350000Y-59700000D02*
X88350000Y-63100000D01*
X92150000Y-59700000D02*
X92150000Y-63100000D01*
X107350000Y-59700000D02*
X111150000Y-59700000D01*
X111150000Y-63100000D02*
X107350000Y-63100000D01*
X107350000Y-59700000D02*
X107350000Y-63100000D01*
X111150000Y-59700000D02*
X111150000Y-63100000D01*
X126350000Y-59700000D02*
X130150000Y-59700000D01*
X130150000Y-63100000D02*
X126350000Y-63100000D01*
X126350000Y-59700000D02*
X126350000Y-63100000D01*
X130150000Y-59700000D02*
X130150000Y-63100000D01*
X145350000Y-59700000D02*
X149150000Y-59700000D01*
X149150000Y-63100000D02*
X145350000Y-63100000D01*
X145350000Y-59700000D02*
X145350000Y-63100000D01*
X149150000Y-59700000D02*
X149150000Y-63100000D01*
X164350000Y-59700000D02*
X168150000Y-59700000D01*
X168150000Y-63100000D02*
X164350000Y-63100000D01*
X164350000Y-59700000D02*
X164350000Y-63100000D01*
X168150000Y-59700000D02*
X168150000Y-63100000D01*
X183350000Y-59700000D02*
X187150000Y-59700000D01*
X187150000Y-63100000D02*
X183350000Y-63100000D01*
X183350000Y-59700000D02*
X183350000Y-63100000D01*
X187150000Y-59700000D02*
X187150000Y-63100000D01*
X202350000Y-59700000D02*
X206150000Y-59700000D01*
X206150000Y-63100000D02*
X202350000Y-63100000D01*
X202350000Y-59700000D02*
X202350000Y-63100000D01*
X206150000Y-59700000D02*
X206150000Y-63100000D01*
X221350000Y-59700000D02*
X225150000Y-59700000D01*
X225150000Y-63100000D02*
X221350000Y-63100000D01*
X221350000Y-59700000D02*
X221350000Y-63100000D01*
X225150000Y-59700000D02*
X225150000Y-63100000D01*
X252225000Y-59700000D02*
X256025000Y-59700000D01*
X256025000Y-63100000D02*
X252225000Y-63100000D01*
X252225000Y-59700000D02*
X252225000Y-63100000D01*
X256025000Y-59700000D02*
X256025000Y-63100000D01*
X475000Y-97700000D02*
X4275000Y-97700000D01*
X4275000Y-101100000D02*
X475000Y-101100000D01*
X475000Y-97700000D02*
X475000Y-101100000D01*
X4275000Y-97700000D02*
X4275000Y-101100000D01*
X24225000Y-97700000D02*
X28025000Y-97700000D01*
X28025000Y-101100000D02*
X24225000Y-101100000D01*
X24225000Y-97700000D02*
X24225000Y-101100000D01*
X28025000Y-97700000D02*
X28025000Y-101100000D01*
X47975000Y-97700000D02*
X51775000Y-97700000D01*
X51775000Y-101100000D02*
X47975000Y-101100000D01*
X47975000Y-97700000D02*
X47975000Y-101100000D01*
X51775000Y-97700000D02*
X51775000Y-101100000D01*
X119225000Y-97700000D02*
X123025000Y-97700000D01*
X123025000Y-101100000D02*
X119225000Y-101100000D01*
X119225000Y-97700000D02*
X119225000Y-101100000D01*
X123025000Y-97700000D02*
X123025000Y-101100000D01*
X190475000Y-97700000D02*
X194275000Y-97700000D01*
X194275000Y-101100000D02*
X190475000Y-101100000D01*
X190475000Y-97700000D02*
X190475000Y-101100000D01*
X194275000Y-97700000D02*
X194275000Y-101100000D01*
X214225000Y-97700000D02*
X218025000Y-97700000D01*
X218025000Y-101100000D02*
X214225000Y-101100000D01*
X214225000Y-97700000D02*
X214225000Y-101100000D01*
X218025000Y-97700000D02*
X218025000Y-101100000D01*
X237975000Y-97700000D02*
X241775000Y-97700000D01*
X241775000Y-101100000D02*
X237975000Y-101100000D01*
X237975000Y-97700000D02*
X237975000Y-101100000D01*
X241775000Y-97700000D02*
X241775000Y-101100000D01*
X261725000Y-97700000D02*
X265525000Y-97700000D01*
X265525000Y-101100000D02*
X261725000Y-101100000D01*
X261725000Y-97700000D02*
X261725000Y-101100000D01*
X265525000Y-97700000D02*
X265525000Y-101100000D01*
X292600000Y-97700000D02*
X296400000Y-97700000D01*
X296400000Y-101100000D02*
X292600000Y-101100000D01*
X292600000Y-97700000D02*
X292600000Y-101100000D01*
X296400000Y-97700000D02*
X296400000Y-101100000D01*
X311600000Y-97700000D02*
X315400000Y-97700000D01*
X315400000Y-101100000D02*
X311600000Y-101100000D01*
X311600000Y-97700000D02*
X311600000Y-101100000D01*
X315400000Y-97700000D02*
X315400000Y-101100000D01*
X330600000Y-97700000D02*
X334400000Y-97700000D01*
X334400000Y-101100000D02*
X330600000Y-101100000D01*
X330600000Y-97700000D02*
X330600000Y-101100000D01*
X334400000Y-97700000D02*
X334400000Y-101100000D01*
X334400000Y-1680000D02*
X330600000Y-1680000D01*
X330600000Y1720000D02*
X334400000Y1720000D01*
X334400000Y-1680000D02*
X334400000Y1720000D01*
X330600000Y-1680000D02*
X330600000Y1720000D01*
X267900000Y3400000D02*
X264100000Y3400000D01*
X264100000Y6800000D02*
X267900000Y6800000D01*
X267900000Y3400000D02*
X267900000Y6800000D01*
X264100000Y3400000D02*
X264100000Y6800000D01*
X248900000Y3400000D02*
X245100000Y3400000D01*
X245100000Y6800000D02*
X248900000Y6800000D01*
X248900000Y3400000D02*
X248900000Y6800000D01*
X245100000Y3400000D02*
X245100000Y6800000D01*
X229900000Y3400000D02*
X226100000Y3400000D01*
X226100000Y6800000D02*
X229900000Y6800000D01*
X229900000Y3400000D02*
X229900000Y6800000D01*
X226100000Y3400000D02*
X226100000Y6800000D01*
X210900000Y3400000D02*
X207100000Y3400000D01*
X207100000Y6800000D02*
X210900000Y6800000D01*
X210900000Y3400000D02*
X210900000Y6800000D01*
X207100000Y3400000D02*
X207100000Y6800000D01*
X182400000Y3400000D02*
X178600000Y3400000D01*
X178600000Y6800000D02*
X182400000Y6800000D01*
X182400000Y3400000D02*
X182400000Y6800000D01*
X178600000Y3400000D02*
X178600000Y6800000D01*
X163400000Y3400000D02*
X159600000Y3400000D01*
X159600000Y6800000D02*
X163400000Y6800000D01*
X163400000Y3400000D02*
X163400000Y6800000D01*
X159600000Y3400000D02*
X159600000Y6800000D01*
X144400000Y3400000D02*
X140600000Y3400000D01*
X140600000Y6800000D02*
X144400000Y6800000D01*
X144400000Y3400000D02*
X144400000Y6800000D01*
X140600000Y3400000D02*
X140600000Y6800000D01*
X125400000Y3400000D02*
X121600000Y3400000D01*
X121600000Y6800000D02*
X125400000Y6800000D01*
X125400000Y3400000D02*
X125400000Y6800000D01*
X121600000Y3400000D02*
X121600000Y6800000D01*
X96900000Y3400000D02*
X93100000Y3400000D01*
X93100000Y6800000D02*
X96900000Y6800000D01*
X96900000Y3400000D02*
X96900000Y6800000D01*
X93100000Y3400000D02*
X93100000Y6800000D01*
X77900000Y3400000D02*
X74100000Y3400000D01*
X74100000Y6800000D02*
X77900000Y6800000D01*
X77900000Y3400000D02*
X77900000Y6800000D01*
X74100000Y3400000D02*
X74100000Y6800000D01*
X58900000Y3400000D02*
X55100000Y3400000D01*
X55100000Y6800000D02*
X58900000Y6800000D01*
X58900000Y3400000D02*
X58900000Y6800000D01*
X55100000Y3400000D02*
X55100000Y6800000D01*
X39900000Y3400000D02*
X36100000Y3400000D01*
X36100000Y6800000D02*
X39900000Y6800000D01*
X39900000Y3400000D02*
X39900000Y6800000D01*
X36100000Y3400000D02*
X36100000Y6800000D01*
X1900000Y3400000D02*
X-1900000Y3400000D01*
X-1900000Y6800000D02*
X1900000Y6800000D01*
X1900000Y3400000D02*
X1900000Y6800000D01*
X-1900000Y3400000D02*
X-1900000Y6800000D01*
X334400000Y-44100000D02*
X330600000Y-44100000D01*
X330600000Y-40700000D02*
X334400000Y-40700000D01*
X334400000Y-44100000D02*
X334400000Y-40700000D01*
X330600000Y-44100000D02*
X330600000Y-40700000D01*
X315400000Y-44100000D02*
X311600000Y-44100000D01*
X311600000Y-40700000D02*
X315400000Y-40700000D01*
X315400000Y-44100000D02*
X315400000Y-40700000D01*
X311600000Y-44100000D02*
X311600000Y-40700000D01*
X296400000Y-44100000D02*
X292600000Y-44100000D01*
X292600000Y-40700000D02*
X296400000Y-40700000D01*
X296400000Y-44100000D02*
X296400000Y-40700000D01*
X292600000Y-44100000D02*
X292600000Y-40700000D01*
X263150000Y-44100000D02*
X259350000Y-44100000D01*
X259350000Y-40700000D02*
X263150000Y-40700000D01*
X263150000Y-44100000D02*
X263150000Y-40700000D01*
X259350000Y-44100000D02*
X259350000Y-40700000D01*
X239400000Y-44100000D02*
X235600000Y-44100000D01*
X235600000Y-40700000D02*
X239400000Y-40700000D01*
X239400000Y-44100000D02*
X239400000Y-40700000D01*
X235600000Y-44100000D02*
X235600000Y-40700000D01*
X220400000Y-44100000D02*
X216600000Y-44100000D01*
X216600000Y-40700000D02*
X220400000Y-40700000D01*
X220400000Y-44100000D02*
X220400000Y-40700000D01*
X216600000Y-44100000D02*
X216600000Y-40700000D01*
X201400000Y-44100000D02*
X197600000Y-44100000D01*
X197600000Y-40700000D02*
X201400000Y-40700000D01*
X201400000Y-44100000D02*
X201400000Y-40700000D01*
X197600000Y-44100000D02*
X197600000Y-40700000D01*
X182400000Y-44100000D02*
X178600000Y-44100000D01*
X178600000Y-40700000D02*
X182400000Y-40700000D01*
X182400000Y-44100000D02*
X182400000Y-40700000D01*
X178600000Y-44100000D02*
X178600000Y-40700000D01*
X163400000Y-44100000D02*
X159600000Y-44100000D01*
X159600000Y-40700000D02*
X163400000Y-40700000D01*
X163400000Y-44100000D02*
X163400000Y-40700000D01*
X159600000Y-44100000D02*
X159600000Y-40700000D01*
X144400000Y-44100000D02*
X140600000Y-44100000D01*
X140600000Y-40700000D02*
X144400000Y-40700000D01*
X144400000Y-44100000D02*
X144400000Y-40700000D01*
X140600000Y-44100000D02*
X140600000Y-40700000D01*
X125400000Y-44100000D02*
X121600000Y-44100000D01*
X121600000Y-40700000D02*
X125400000Y-40700000D01*
X125400000Y-44100000D02*
X125400000Y-40700000D01*
X121600000Y-44100000D02*
X121600000Y-40700000D01*
X106400000Y-44100000D02*
X102600000Y-44100000D01*
X102600000Y-40700000D02*
X106400000Y-40700000D01*
X106400000Y-44100000D02*
X106400000Y-40700000D01*
X102600000Y-44100000D02*
X102600000Y-40700000D01*
X87400000Y-44100000D02*
X83600000Y-44100000D01*
X83600000Y-40700000D02*
X87400000Y-40700000D01*
X87400000Y-44100000D02*
X87400000Y-40700000D01*
X83600000Y-44100000D02*
X83600000Y-40700000D01*
X68400000Y-44100000D02*
X64600000Y-44100000D01*
X64600000Y-40700000D02*
X68400000Y-40700000D01*
X68400000Y-44100000D02*
X68400000Y-40700000D01*
X64600000Y-44100000D02*
X64600000Y-40700000D01*
X49400000Y-44100000D02*
X45600000Y-44100000D01*
X45600000Y-40700000D02*
X49400000Y-40700000D01*
X49400000Y-44100000D02*
X49400000Y-40700000D01*
X45600000Y-44100000D02*
X45600000Y-40700000D01*
X30400000Y-44100000D02*
X26600000Y-44100000D01*
X26600000Y-40700000D02*
X30400000Y-40700000D01*
X30400000Y-44100000D02*
X30400000Y-40700000D01*
X26600000Y-44100000D02*
X26600000Y-40700000D01*
X6650000Y-44100000D02*
X2850000Y-44100000D01*
X2850000Y-40700000D02*
X6650000Y-40700000D01*
X6650000Y-44100000D02*
X6650000Y-40700000D01*
X2850000Y-44100000D02*
X2850000Y-40700000D01*
X315400000Y-82100000D02*
X311600000Y-82100000D01*
X311600000Y-78700000D02*
X315400000Y-78700000D01*
X315400000Y-82100000D02*
X315400000Y-78700000D01*
X311600000Y-82100000D02*
X311600000Y-78700000D01*
X251275000Y-82100000D02*
X247475000Y-82100000D01*
X247475000Y-78700000D02*
X251275000Y-78700000D01*
X251275000Y-82100000D02*
X251275000Y-78700000D01*
X247475000Y-82100000D02*
X247475000Y-78700000D01*
X215650000Y-82100000D02*
X211850000Y-82100000D01*
X211850000Y-78700000D02*
X215650000Y-78700000D01*
X215650000Y-82100000D02*
X215650000Y-78700000D01*
X211850000Y-82100000D02*
X211850000Y-78700000D01*
X196650000Y-82100000D02*
X192850000Y-82100000D01*
X192850000Y-78700000D02*
X196650000Y-78700000D01*
X196650000Y-82100000D02*
X196650000Y-78700000D01*
X192850000Y-82100000D02*
X192850000Y-78700000D01*
X177650000Y-82100000D02*
X173850000Y-82100000D01*
X173850000Y-78700000D02*
X177650000Y-78700000D01*
X177650000Y-82100000D02*
X177650000Y-78700000D01*
X173850000Y-82100000D02*
X173850000Y-78700000D01*
X158650000Y-82100000D02*
X154850000Y-82100000D01*
X154850000Y-78700000D02*
X158650000Y-78700000D01*
X158650000Y-82100000D02*
X158650000Y-78700000D01*
X154850000Y-82100000D02*
X154850000Y-78700000D01*
X139650000Y-82100000D02*
X135850000Y-82100000D01*
X135850000Y-78700000D02*
X139650000Y-78700000D01*
X139650000Y-82100000D02*
X139650000Y-78700000D01*
X135850000Y-82100000D02*
X135850000Y-78700000D01*
X120650000Y-82100000D02*
X116850000Y-82100000D01*
X116850000Y-78700000D02*
X120650000Y-78700000D01*
X120650000Y-82100000D02*
X120650000Y-78700000D01*
X116850000Y-82100000D02*
X116850000Y-78700000D01*
X101650000Y-82100000D02*
X97850000Y-82100000D01*
X97850000Y-78700000D02*
X101650000Y-78700000D01*
X101650000Y-82100000D02*
X101650000Y-78700000D01*
X97850000Y-82100000D02*
X97850000Y-78700000D01*
X82650000Y-82100000D02*
X78850000Y-82100000D01*
X78850000Y-78700000D02*
X82650000Y-78700000D01*
X82650000Y-82100000D02*
X82650000Y-78700000D01*
X78850000Y-82100000D02*
X78850000Y-78700000D01*
X63650000Y-82100000D02*
X59850000Y-82100000D01*
X59850000Y-78700000D02*
X63650000Y-78700000D01*
X63650000Y-82100000D02*
X63650000Y-78700000D01*
X59850000Y-82100000D02*
X59850000Y-78700000D01*
X44650000Y-82100000D02*
X40850000Y-82100000D01*
X40850000Y-78700000D02*
X44650000Y-78700000D01*
X44650000Y-82100000D02*
X44650000Y-78700000D01*
X40850000Y-82100000D02*
X40850000Y-78700000D01*
X13775000Y-82100000D02*
X9975000Y-82100000D01*
X9975000Y-78700000D02*
X13775000Y-78700000D01*
X13775000Y-82100000D02*
X13775000Y-78700000D01*
X9975000Y-82100000D02*
X9975000Y-78700000D01*
M02*
