G04 #@! TF.GenerationSoftware,KiCad,Pcbnew,(5.1.8)-1*
G04 #@! TF.CreationDate,2021-04-06T16:32:38+02:00*
G04 #@! TF.ProjectId,Keyboard_80_with_USB_HUB_V3,4b657962-6f61-4726-945f-3830255f7769,rev?*
G04 #@! TF.SameCoordinates,Original*
G04 #@! TF.FileFunction,Soldermask,Top*
G04 #@! TF.FilePolarity,Negative*
%FSLAX46Y46*%
G04 Gerber Fmt 4.6, Leading zero omitted, Abs format (unit mm)*
G04 Created by KiCad (PCBNEW (5.1.8)-1) date 2021-04-06 16:32:38*
%MOMM*%
%LPD*%
G01*
G04 APERTURE LIST*
%ADD10C,4.500000*%
%ADD11C,2.819400*%
%ADD12C,1.498600*%
%ADD13O,1.200000X2.400000*%
%ADD14O,1.158000X2.316000*%
%ADD15C,0.630000*%
%ADD16C,3.987800*%
%ADD17C,3.048000*%
%ADD18C,0.100000*%
%ADD19R,2.500000X2.500000*%
%ADD20C,3.000000*%
%ADD21C,0.750000*%
G04 APERTURE END LIST*
D10*
X19000000Y2375000D03*
X16625000Y-45125000D03*
X14250000Y-102125000D03*
X109250000Y2375000D03*
X95000000Y-45125000D03*
X95000000Y-102125000D03*
X194750000Y2375000D03*
X171000000Y-45125000D03*
X166250000Y-102125000D03*
X237500000Y2375000D03*
X249375000Y-45125000D03*
X251750000Y-102125000D03*
X280250000Y2375000D03*
X323000000Y-45125000D03*
X323000000Y-102125000D03*
D11*
X301070000Y4710000D03*
X287930000Y4710000D03*
D12*
X298000000Y2000000D03*
X295500000Y2000000D03*
X293500000Y2000000D03*
X291000000Y2000000D03*
D11*
X320070000Y4710000D03*
X306930000Y4710000D03*
D12*
X317000000Y2000000D03*
X314500000Y2000000D03*
X312500000Y2000000D03*
X310000000Y2000000D03*
D13*
X336820000Y12575000D03*
X328180000Y12575000D03*
D14*
X336820000Y8750000D03*
X328180000Y8750000D03*
D15*
X329500000Y9475000D03*
X335500000Y9475000D03*
D16*
X173665000Y-96245000D03*
D17*
X173665000Y-111485000D03*
X68585000Y-111485000D03*
D16*
X68585000Y-96245000D03*
X268438000Y-20245000D03*
D17*
X268438000Y-35485000D03*
X244562000Y-35485000D03*
D16*
X244562000Y-20245000D03*
X266063000Y-58245000D03*
D17*
X266063000Y-73485000D03*
X242187000Y-73485000D03*
D16*
X242187000Y-58245000D03*
X23813000Y-77245000D03*
D17*
X23813000Y-92485000D03*
X-63000Y-92485000D03*
D16*
X-63000Y-77245000D03*
X261313000Y-77245000D03*
D17*
X261313000Y-92485000D03*
X237437000Y-92485000D03*
D16*
X237437000Y-77245000D03*
D18*
G36*
X338845375Y-3557035D02*
G01*
X338907937Y-3569480D01*
X338968978Y-3587996D01*
X339027911Y-3612407D01*
X339084167Y-3642476D01*
X339137205Y-3677915D01*
X339186513Y-3718382D01*
X339231618Y-3763487D01*
X339272085Y-3812795D01*
X339307524Y-3865833D01*
X339337593Y-3922089D01*
X339362004Y-3981022D01*
X339380520Y-4042063D01*
X339392965Y-4104625D01*
X339399217Y-4168106D01*
X339399217Y-4231894D01*
X339392965Y-4295375D01*
X339380520Y-4357937D01*
X339362004Y-4418978D01*
X339337593Y-4477911D01*
X339307524Y-4534167D01*
X339272085Y-4587205D01*
X339231618Y-4636513D01*
X339186513Y-4681618D01*
X339137205Y-4722085D01*
X339084167Y-4757524D01*
X339027911Y-4787593D01*
X338968978Y-4812004D01*
X338907937Y-4830520D01*
X338845375Y-4842965D01*
X338781894Y-4849217D01*
X338718106Y-4849217D01*
X338654625Y-4842965D01*
X338592063Y-4830520D01*
X338531022Y-4812004D01*
X338472089Y-4787593D01*
X338415833Y-4757524D01*
X338362795Y-4722085D01*
X338313487Y-4681618D01*
X338268382Y-4636513D01*
X338227915Y-4587205D01*
X338192476Y-4534167D01*
X338162407Y-4477911D01*
X338137996Y-4418978D01*
X338119480Y-4357937D01*
X338107035Y-4295375D01*
X338100783Y-4231894D01*
X338100783Y-4168106D01*
X338107035Y-4104625D01*
X338119480Y-4042063D01*
X338137996Y-3981022D01*
X338162407Y-3922089D01*
X338192476Y-3865833D01*
X338227915Y-3812795D01*
X338268382Y-3763487D01*
X338313487Y-3718382D01*
X338362795Y-3677915D01*
X338415833Y-3642476D01*
X338472089Y-3612407D01*
X338531022Y-3587996D01*
X338592063Y-3569480D01*
X338654625Y-3557035D01*
X338718106Y-3550783D01*
X338781894Y-3550783D01*
X338845375Y-3557035D01*
G37*
G36*
X326345375Y-3557035D02*
G01*
X326407937Y-3569480D01*
X326468978Y-3587996D01*
X326527911Y-3612407D01*
X326584167Y-3642476D01*
X326637205Y-3677915D01*
X326686513Y-3718382D01*
X326731618Y-3763487D01*
X326772085Y-3812795D01*
X326807524Y-3865833D01*
X326837593Y-3922089D01*
X326862004Y-3981022D01*
X326880520Y-4042063D01*
X326892965Y-4104625D01*
X326899217Y-4168106D01*
X326899217Y-4231894D01*
X326892965Y-4295375D01*
X326880520Y-4357937D01*
X326862004Y-4418978D01*
X326837593Y-4477911D01*
X326807524Y-4534167D01*
X326772085Y-4587205D01*
X326731618Y-4636513D01*
X326686513Y-4681618D01*
X326637205Y-4722085D01*
X326584167Y-4757524D01*
X326527911Y-4787593D01*
X326468978Y-4812004D01*
X326407937Y-4830520D01*
X326345375Y-4842965D01*
X326281894Y-4849217D01*
X326218106Y-4849217D01*
X326154625Y-4842965D01*
X326092063Y-4830520D01*
X326031022Y-4812004D01*
X325972089Y-4787593D01*
X325915833Y-4757524D01*
X325862795Y-4722085D01*
X325813487Y-4681618D01*
X325768382Y-4636513D01*
X325727915Y-4587205D01*
X325692476Y-4534167D01*
X325662407Y-4477911D01*
X325637996Y-4418978D01*
X325619480Y-4357937D01*
X325607035Y-4295375D01*
X325600783Y-4231894D01*
X325600783Y-4168106D01*
X325607035Y-4104625D01*
X325619480Y-4042063D01*
X325637996Y-3981022D01*
X325662407Y-3922089D01*
X325692476Y-3865833D01*
X325727915Y-3812795D01*
X325768382Y-3763487D01*
X325813487Y-3718382D01*
X325862795Y-3677915D01*
X325915833Y-3642476D01*
X325972089Y-3612407D01*
X326031022Y-3587996D01*
X326092063Y-3569480D01*
X326154625Y-3557035D01*
X326218106Y-3550783D01*
X326281894Y-3550783D01*
X326345375Y-3557035D01*
G37*
D19*
X325750000Y6750000D03*
X325750000Y-6750000D03*
X339250000Y6750000D03*
X339250000Y-6750000D03*
D20*
X-2540000Y-5080000D03*
X3810000Y-2540000D03*
D16*
X0Y0D03*
D20*
X35460000Y-5080000D03*
X41810000Y-2540000D03*
D16*
X38000000Y0D03*
D20*
X54460000Y-5080000D03*
X60810000Y-2540000D03*
D16*
X57000000Y0D03*
D20*
X73460000Y-5080000D03*
X79810000Y-2540000D03*
D16*
X76000000Y0D03*
D20*
X92460000Y-5080000D03*
X98810000Y-2540000D03*
D16*
X95000000Y0D03*
D20*
X120960000Y-5080000D03*
X127310000Y-2540000D03*
D16*
X123500000Y0D03*
D20*
X139960000Y-5080000D03*
X146310000Y-2540000D03*
D16*
X142500000Y0D03*
D20*
X158960000Y-5080000D03*
X165310000Y-2540000D03*
D16*
X161500000Y0D03*
D20*
X177960000Y-5080000D03*
X184310000Y-2540000D03*
D16*
X180500000Y0D03*
D20*
X206460000Y-5080000D03*
X212810000Y-2540000D03*
D16*
X209000000Y0D03*
D20*
X225460000Y-5080000D03*
X231810000Y-2540000D03*
D16*
X228000000Y0D03*
D20*
X244460000Y-5080000D03*
X250810000Y-2540000D03*
D16*
X247000000Y0D03*
D20*
X263460000Y-5080000D03*
X269810000Y-2540000D03*
D16*
X266000000Y0D03*
D20*
X-2540000Y-33580000D03*
X3810000Y-31040000D03*
D16*
X0Y-28500000D03*
D20*
X16460000Y-33580000D03*
X22810000Y-31040000D03*
D16*
X19000000Y-28500000D03*
D20*
X35460000Y-33580000D03*
X41810000Y-31040000D03*
D16*
X38000000Y-28500000D03*
D20*
X54460000Y-33580000D03*
X60810000Y-31040000D03*
D16*
X57000000Y-28500000D03*
D20*
X73460000Y-33580000D03*
X79810000Y-31040000D03*
D16*
X76000000Y-28500000D03*
D20*
X92460000Y-33580000D03*
X98810000Y-31040000D03*
D16*
X95000000Y-28500000D03*
D20*
X111460000Y-33580000D03*
X117810000Y-31040000D03*
D16*
X114000000Y-28500000D03*
D20*
X130460000Y-33580000D03*
X136810000Y-31040000D03*
D16*
X133000000Y-28500000D03*
D20*
X149460000Y-33580000D03*
X155810000Y-31040000D03*
D16*
X152000000Y-28500000D03*
D20*
X168460000Y-33580000D03*
X174810000Y-31040000D03*
D16*
X171000000Y-28500000D03*
D20*
X187460000Y-33580000D03*
X193810000Y-31040000D03*
D16*
X190000000Y-28500000D03*
D20*
X206460000Y-33580000D03*
X212810000Y-31040000D03*
D16*
X209000000Y-28500000D03*
D20*
X225460000Y-33580000D03*
X231810000Y-31040000D03*
D16*
X228000000Y-28500000D03*
D20*
X291960000Y-33580000D03*
X298310000Y-31040000D03*
D16*
X294500000Y-28500000D03*
D20*
X310960000Y-33580000D03*
X317310000Y-31040000D03*
D16*
X313500000Y-28500000D03*
D20*
X329960000Y-33580000D03*
X336310000Y-31040000D03*
D16*
X332500000Y-28500000D03*
D20*
X25960000Y-52580000D03*
X32310000Y-50040000D03*
D16*
X28500000Y-47500000D03*
D20*
X44960000Y-52580000D03*
X51310000Y-50040000D03*
D16*
X47500000Y-47500000D03*
D20*
X63960000Y-52580000D03*
X70310000Y-50040000D03*
D16*
X66500000Y-47500000D03*
D20*
X82960000Y-52580000D03*
X89310000Y-50040000D03*
D16*
X85500000Y-47500000D03*
D20*
X101960000Y-52580000D03*
X108310000Y-50040000D03*
D16*
X104500000Y-47500000D03*
D20*
X120960000Y-52580000D03*
X127310000Y-50040000D03*
D16*
X123500000Y-47500000D03*
D20*
X139960000Y-52580000D03*
X146310000Y-50040000D03*
D16*
X142500000Y-47500000D03*
D20*
X158960000Y-52580000D03*
X165310000Y-50040000D03*
D16*
X161500000Y-47500000D03*
D20*
X177960000Y-52580000D03*
X184310000Y-50040000D03*
D16*
X180500000Y-47500000D03*
D20*
X196960000Y-52580000D03*
X203310000Y-50040000D03*
D16*
X199500000Y-47500000D03*
D20*
X215960000Y-52580000D03*
X222310000Y-50040000D03*
D16*
X218500000Y-47500000D03*
D20*
X291960000Y-52580000D03*
X298310000Y-50040000D03*
D16*
X294500000Y-47500000D03*
D20*
X310960000Y-52580000D03*
X317310000Y-50040000D03*
D16*
X313500000Y-47500000D03*
D20*
X329960000Y-52580000D03*
X336310000Y-50040000D03*
D16*
X332500000Y-47500000D03*
D20*
X30710000Y-71580000D03*
X37060000Y-69040000D03*
D16*
X33250000Y-66500000D03*
D20*
X49710000Y-71580000D03*
X56060000Y-69040000D03*
D16*
X52250000Y-66500000D03*
D20*
X68710000Y-71580000D03*
X75060000Y-69040000D03*
D16*
X71250000Y-66500000D03*
D20*
X87710000Y-71580000D03*
X94060000Y-69040000D03*
D16*
X90250000Y-66500000D03*
D20*
X106710000Y-71580000D03*
X113060000Y-69040000D03*
D16*
X109250000Y-66500000D03*
D20*
X125710000Y-71580000D03*
X132060000Y-69040000D03*
D16*
X128250000Y-66500000D03*
D20*
X144710000Y-71580000D03*
X151060000Y-69040000D03*
D16*
X147250000Y-66500000D03*
D20*
X163710000Y-71580000D03*
X170060000Y-69040000D03*
D16*
X166250000Y-66500000D03*
D20*
X182710000Y-71580000D03*
X189060000Y-69040000D03*
D16*
X185250000Y-66500000D03*
D20*
X201710000Y-71580000D03*
X208060000Y-69040000D03*
D16*
X204250000Y-66500000D03*
D20*
X220710000Y-71580000D03*
X227060000Y-69040000D03*
D16*
X223250000Y-66500000D03*
D20*
X40210000Y-90580000D03*
X46560000Y-88040000D03*
D16*
X42750000Y-85500000D03*
D20*
X59210000Y-90580000D03*
X65560000Y-88040000D03*
D16*
X61750000Y-85500000D03*
D20*
X78210000Y-90580000D03*
X84560000Y-88040000D03*
D16*
X80750000Y-85500000D03*
D20*
X97210000Y-90580000D03*
X103560000Y-88040000D03*
D16*
X99750000Y-85500000D03*
D20*
X116210000Y-90580000D03*
X122560000Y-88040000D03*
D16*
X118750000Y-85500000D03*
D20*
X135210000Y-90580000D03*
X141560000Y-88040000D03*
D16*
X137750000Y-85500000D03*
D20*
X154210000Y-90580000D03*
X160560000Y-88040000D03*
D16*
X156750000Y-85500000D03*
D20*
X173210000Y-90580000D03*
X179560000Y-88040000D03*
D16*
X175750000Y-85500000D03*
D20*
X192210000Y-90580000D03*
X198560000Y-88040000D03*
D16*
X194750000Y-85500000D03*
D20*
X211210000Y-90580000D03*
X217560000Y-88040000D03*
D16*
X213750000Y-85500000D03*
D20*
X310960000Y-90580000D03*
X317310000Y-88040000D03*
D16*
X313500000Y-85500000D03*
D20*
X291960000Y-109580000D03*
X298310000Y-107040000D03*
D16*
X294500000Y-104500000D03*
D20*
X310960000Y-109580000D03*
X317310000Y-107040000D03*
D16*
X313500000Y-104500000D03*
D20*
X329960000Y-109580000D03*
X336310000Y-107040000D03*
D16*
X332500000Y-104500000D03*
D20*
X253960000Y-33580000D03*
X260310000Y-31040000D03*
D16*
X256500000Y-28500000D03*
D20*
X234960000Y-52580000D03*
X241310000Y-50040000D03*
D16*
X237500000Y-47500000D03*
D20*
X2210000Y-52580000D03*
X8560000Y-50040000D03*
D16*
X4750000Y-47500000D03*
D20*
X4585000Y-71580000D03*
X10935000Y-69040000D03*
D16*
X7125000Y-66500000D03*
D20*
X251585000Y-71580000D03*
X257935000Y-69040000D03*
D16*
X254125000Y-66500000D03*
D20*
X9335000Y-90580000D03*
X15685000Y-88040000D03*
D16*
X11875000Y-85500000D03*
D20*
X246835000Y-90580000D03*
X253185000Y-88040000D03*
D16*
X249375000Y-85500000D03*
D20*
X-165000Y-109580000D03*
X6185000Y-107040000D03*
D16*
X2375000Y-104500000D03*
D20*
X23585000Y-109580000D03*
X29935000Y-107040000D03*
D16*
X26125000Y-104500000D03*
D20*
X47335000Y-109580000D03*
X53685000Y-107040000D03*
D16*
X49875000Y-104500000D03*
D20*
X118585000Y-109580000D03*
X124935000Y-107040000D03*
D16*
X121125000Y-104500000D03*
D20*
X189835000Y-109580000D03*
X196185000Y-107040000D03*
D16*
X192375000Y-104500000D03*
D20*
X213585000Y-109580000D03*
X219935000Y-107040000D03*
D16*
X216125000Y-104500000D03*
D20*
X237335000Y-109580000D03*
X243685000Y-107040000D03*
D16*
X239875000Y-104500000D03*
D20*
X261085000Y-109580000D03*
X267435000Y-107040000D03*
D16*
X263625000Y-104500000D03*
D20*
X258710000Y-52580000D03*
X265060000Y-50040000D03*
D16*
X261250000Y-47500000D03*
D21*
X319000000Y-5000000D03*
X317750000Y-5000000D03*
X320250000Y-5000000D03*
X321500000Y-5000000D03*
M02*
